G04*
G04 #@! TF.GenerationSoftware,Altium Limited,Altium Designer,23.10.1 (27)*
G04*
G04 Layer_Color=2752767*
%FSLAX25Y25*%
%MOIN*%
G70*
G04*
G04 #@! TF.SameCoordinates,C0C592A9-96B4-4F53-9DEC-7EA94FB758FA*
G04*
G04*
G04 #@! TF.FilePolarity,Positive*
G04*
G01*
G75*
%ADD13C,0.00500*%
%ADD58C,0.00667*%
D13*
X249900Y235300D02*
Y239300D01*
X253900D01*
Y235300D01*
X249900D01*
X259743D02*
Y239300D01*
X263743D01*
Y235300D01*
X259743D01*
X269586D02*
Y239300D01*
X273586D01*
Y235300D01*
X269586D01*
X274400Y295100D02*
Y299100D01*
X278400D01*
Y295100D01*
X274400D01*
Y304943D02*
Y308943D01*
X278400D01*
Y304943D01*
X274400D01*
X179000Y360800D02*
X177000Y364800D01*
X181000D01*
X179000Y360800D01*
X253600Y403500D02*
X254600Y404500D01*
X255600D01*
X254600Y405500D01*
X255600Y406500D01*
X254600D01*
X253600Y407500D01*
X252600Y406500D01*
X251600D01*
X252600Y405500D01*
X251600Y404500D01*
X252600D01*
X253600Y403500D01*
X202200D02*
X203200Y404500D01*
X204200D01*
X203200Y405500D01*
X204200Y406500D01*
X203200D01*
X202200Y407500D01*
X201200Y406500D01*
X200200D01*
X201200Y405500D01*
X200200Y404500D01*
X201200D01*
X202200Y403500D01*
X210100Y388284D02*
X208100Y392284D01*
X212100D01*
X210100Y388284D01*
X190300Y310800D02*
X188300Y314800D01*
X192300D01*
X190300Y310800D01*
X194600Y302400D02*
X192600Y306400D01*
X196600D01*
X194600Y302400D01*
X170400Y227700D02*
X168400Y231700D01*
X172400D01*
X170400Y227700D01*
X190400Y230800D02*
X188400Y234800D01*
X192400D01*
X190400Y230800D01*
X150400Y342300D02*
X148400Y346300D01*
X152400D01*
X150400Y342300D01*
X163200Y314400D02*
X161200Y318400D01*
X165200D01*
X163200Y314400D01*
X163000Y310900D02*
X161000Y314900D01*
X165000D01*
X163000Y310900D01*
X176400Y314700D02*
X174400Y318700D01*
X178400D01*
X176400Y314700D01*
X174000Y311600D02*
X172000Y315600D01*
X176000D01*
X174000Y311600D01*
X173800Y377600D02*
X171800Y381600D01*
X175800D01*
X173800Y377600D01*
X192600Y359289D02*
X190600Y363289D01*
X194600D01*
X192600Y359289D01*
X187800Y356700D02*
X185800Y360700D01*
X189800D01*
X187800Y356700D01*
X189400Y351800D02*
X187400Y355800D01*
X191400D01*
X189400Y351800D01*
X167300Y323300D02*
X165300Y327300D01*
X169300D01*
X167300Y323300D01*
X167400Y313800D02*
X165400Y317800D01*
X169400D01*
X167400Y313800D01*
X162900Y318100D02*
X160900Y322100D01*
X164900D01*
X162900Y318100D01*
X233300Y311700D02*
X231300Y315700D01*
X235300D01*
X233300Y311700D01*
X165400Y327700D02*
X163400Y331700D01*
X167400D01*
X165400Y327700D01*
X221000Y344800D02*
X219000Y348800D01*
X223000D01*
X221000Y344800D01*
X205000Y333400D02*
X203000Y337400D01*
X207000D01*
X205000Y333400D01*
X175200Y340400D02*
X173200Y344400D01*
X177200D01*
X175200Y340400D01*
X158700Y317400D02*
X156700Y321400D01*
X160700D01*
X158700Y317400D01*
X213100Y331000D02*
X211100Y335000D01*
X215100D01*
X213100Y331000D01*
X209100Y321700D02*
X207100Y325700D01*
X211100D01*
X209100Y321700D01*
X219900Y335000D02*
X217900Y339000D01*
X221900D01*
X219900Y335000D01*
X184200Y351040D02*
X182200Y355040D01*
X186200D01*
X184200Y351040D01*
X206600Y326300D02*
X204600Y330300D01*
X208600D01*
X206600Y326300D01*
X206165Y315210D02*
X204165Y319210D01*
X208165D01*
X206165Y315210D01*
X198229Y311371D02*
X196229Y315371D01*
X200229D01*
X198229Y311371D01*
X194000Y312100D02*
X192000Y316100D01*
X196000D01*
X194000Y312100D01*
X184300Y330300D02*
X182300Y334300D01*
X186300D01*
X184300Y330300D01*
X180653Y329644D02*
X178653Y333644D01*
X182653D01*
X180653Y329644D01*
X163500Y333700D02*
X161500Y337700D01*
X165500D01*
X163500Y333700D01*
X160300Y343100D02*
X158300Y347100D01*
X162300D01*
X160300Y343100D01*
X163300Y284900D02*
X161300Y288900D01*
X165300D01*
X163300Y284900D01*
X160100Y402800D02*
X161100Y403800D01*
X162100D01*
X161100Y404800D01*
X162100Y405800D01*
X161100D01*
X160100Y406800D01*
X159100Y405800D01*
X158100D01*
X159100Y404800D01*
X158100Y403800D01*
X159100D01*
X160100Y402800D01*
X271500Y327800D02*
X272500Y328800D01*
X273500D01*
X272500Y329800D01*
X273500Y330800D01*
X272500D01*
X271500Y331800D01*
X270500Y330800D01*
X269500D01*
X270500Y329800D01*
X269500Y328800D01*
X270500D01*
X271500Y327800D01*
D58*
X154900Y316900D02*
X154671Y317829D01*
X154036Y318546D01*
X153141Y318885D01*
X152191Y318770D01*
X151403Y318226D01*
X150958Y317379D01*
Y316421D01*
X151403Y315574D01*
X152191Y315030D01*
X153141Y314915D01*
X154036Y315254D01*
X154671Y315971D01*
X154900Y316900D01*
Y306900D02*
X154671Y307829D01*
X154036Y308546D01*
X153141Y308885D01*
X152191Y308770D01*
X151403Y308226D01*
X150958Y307379D01*
Y306421D01*
X151403Y305574D01*
X152191Y305030D01*
X153141Y304915D01*
X154036Y305254D01*
X154671Y305971D01*
X154900Y306900D01*
Y296900D02*
X154671Y297829D01*
X154036Y298546D01*
X153141Y298885D01*
X152191Y298770D01*
X151403Y298226D01*
X150958Y297379D01*
Y296421D01*
X151403Y295574D01*
X152191Y295030D01*
X153141Y294915D01*
X154036Y295254D01*
X154671Y295971D01*
X154900Y296900D01*
Y286900D02*
X154671Y287829D01*
X154036Y288546D01*
X153141Y288885D01*
X152191Y288770D01*
X151403Y288226D01*
X150958Y287379D01*
Y286421D01*
X151403Y285574D01*
X152191Y285030D01*
X153141Y284915D01*
X154036Y285254D01*
X154671Y285971D01*
X154900Y286900D01*
M02*
