G04*
G04 #@! TF.GenerationSoftware,Altium Limited,Altium Designer,23.10.1 (27)*
G04*
G04 Layer_Physical_Order=2*
G04 Layer_Color=16711680*
%FSLAX25Y25*%
%MOIN*%
G70*
G04*
G04 #@! TF.SameCoordinates,C0C592A9-96B4-4F53-9DEC-7EA94FB758FA*
G04*
G04*
G04 #@! TF.FilePolarity,Positive*
G04*
G01*
G75*
%ADD14C,0.01000*%
G04:AMPARAMS|DCode=16|XSize=39.37mil|YSize=55.91mil|CornerRadius=4.92mil|HoleSize=0mil|Usage=FLASHONLY|Rotation=0.000|XOffset=0mil|YOffset=0mil|HoleType=Round|Shape=RoundedRectangle|*
%AMROUNDEDRECTD16*
21,1,0.03937,0.04606,0,0,0.0*
21,1,0.02953,0.05591,0,0,0.0*
1,1,0.00984,0.01476,-0.02303*
1,1,0.00984,-0.01476,-0.02303*
1,1,0.00984,-0.01476,0.02303*
1,1,0.00984,0.01476,0.02303*
%
%ADD16ROUNDEDRECTD16*%
G04:AMPARAMS|DCode=25|XSize=39.37mil|YSize=55.91mil|CornerRadius=4.92mil|HoleSize=0mil|Usage=FLASHONLY|Rotation=90.000|XOffset=0mil|YOffset=0mil|HoleType=Round|Shape=RoundedRectangle|*
%AMROUNDEDRECTD25*
21,1,0.03937,0.04606,0,0,90.0*
21,1,0.02953,0.05591,0,0,90.0*
1,1,0.00984,0.02303,0.01476*
1,1,0.00984,0.02303,-0.01476*
1,1,0.00984,-0.02303,-0.01476*
1,1,0.00984,-0.02303,0.01476*
%
%ADD25ROUNDEDRECTD25*%
%ADD37C,0.05900*%
%ADD42C,0.01968*%
%ADD43C,0.00512*%
%ADD45R,0.05394X0.05394*%
%ADD46C,0.05394*%
%ADD47C,0.01968*%
%ADD48C,0.21260*%
%ADD49R,0.05200X0.07200*%
%ADD50R,0.02000X0.03850*%
G04:AMPARAMS|DCode=51|XSize=47.64mil|YSize=23.23mil|CornerRadius=5.81mil|HoleSize=0mil|Usage=FLASHONLY|Rotation=270.000|XOffset=0mil|YOffset=0mil|HoleType=Round|Shape=RoundedRectangle|*
%AMROUNDEDRECTD51*
21,1,0.04764,0.01161,0,0,270.0*
21,1,0.03602,0.02323,0,0,270.0*
1,1,0.01161,-0.00581,-0.01801*
1,1,0.01161,-0.00581,0.01801*
1,1,0.01161,0.00581,0.01801*
1,1,0.01161,0.00581,-0.01801*
%
%ADD51ROUNDEDRECTD51*%
%ADD52R,0.09700X0.06700*%
%ADD53C,0.01181*%
D14*
X178916Y362884D02*
X179000Y362800D01*
X174700Y364700D02*
X176516Y362884D01*
X178916D01*
X253600Y403200D02*
Y405500D01*
X240684Y390284D02*
X253600Y403200D01*
X210100Y390284D02*
X240684D01*
X183800Y231773D02*
Y232600D01*
X185268Y230305D02*
X186095D01*
X263986Y229700D02*
X271586Y237300D01*
X186700Y229700D02*
X263986D01*
X183800Y231773D02*
X185268Y230305D01*
X186095D02*
X186700Y229700D01*
X174700Y364700D02*
Y374900D01*
X177700Y377900D01*
X183400D01*
X175613D02*
X177700D01*
X173800Y379600D02*
X173913D01*
X175613Y377900D01*
X176300Y240400D02*
X176438Y240262D01*
Y232600D02*
Y240262D01*
X174143Y230305D02*
X174969D01*
X173538Y229700D02*
X174143Y230305D01*
X170400Y229700D02*
X173538D01*
X176438Y231773D02*
Y232600D01*
X174969Y230305D02*
X176438Y231773D01*
X190400Y232800D02*
X253393D01*
X261143Y236700D02*
X261743Y237300D01*
X257293Y236700D02*
X261143D01*
X253393Y232800D02*
X257293Y236700D01*
X186300Y240400D02*
X248707D01*
X251807Y237300D01*
X251900D01*
X189400Y353800D02*
X189585Y353985D01*
Y356247D01*
X192415Y359077D01*
Y361104D01*
X192600Y361289D01*
X203205Y352683D02*
X207632D01*
X195000Y350293D02*
X195655Y349638D01*
X196662D02*
X196775Y349525D01*
X200048D02*
X203205Y352683D01*
X195000Y350293D02*
Y351300D01*
X195655Y349638D02*
X196662D01*
X207632Y352683D02*
X208675Y351640D01*
Y349525D02*
Y351640D01*
X196775Y349525D02*
X200048D01*
X164459Y327428D02*
X166341D01*
X164087Y327800D02*
X164459Y327428D01*
X166341D02*
X166713Y327800D01*
X155404Y334896D02*
X162500Y327800D01*
X172580D02*
X175783Y331003D01*
X162500Y327800D02*
X164087D01*
X166713D02*
X172580D01*
X206828Y322759D02*
X215887Y313700D01*
X206828Y322759D02*
Y324978D01*
X208872Y327022D02*
Y329241D01*
X207541Y330572D02*
X208872Y329241D01*
X206828Y324978D02*
X208872Y327022D01*
X215887Y313700D02*
X233300D01*
X202168Y330572D02*
X207541D01*
X194994Y329717D02*
X201313D01*
X202168Y330572D01*
X191738Y332973D02*
Y333800D01*
Y332973D02*
X194994Y329717D01*
X160100Y333100D02*
X166572D01*
X167972Y334500D01*
X166504Y333032D02*
X166572Y333100D01*
X166504Y331066D02*
Y333032D01*
X165400Y329962D02*
X166504Y331066D01*
X167972Y334500D02*
X168799D01*
X165400Y329700D02*
Y329962D01*
X175783Y331003D02*
Y333661D01*
X178636Y336514D02*
X178932D01*
X179517Y337100D01*
X175783Y333661D02*
X178636Y336514D01*
X179517Y337100D02*
Y346044D01*
X168799Y349019D02*
X169626D01*
X167972D02*
X168799D01*
X157230Y349305D02*
X157528Y349006D01*
X213100Y327700D02*
Y333000D01*
X209100Y323700D02*
X213100Y327700D01*
X195482Y341418D02*
X198740D01*
X182773Y349300D02*
X188402D01*
X193709Y343993D01*
Y343191D02*
X195482Y341418D01*
X193709Y343191D02*
Y343993D01*
X198740Y341418D02*
X198920Y341238D01*
X212781Y339673D02*
X214250Y338205D01*
X215076D02*
X216281Y337000D01*
X219900D01*
X212781Y339673D02*
Y340500D01*
X214250Y338205D02*
X215076D01*
X208675Y349525D02*
X209600Y348600D01*
X212781D01*
X205419Y340500D02*
Y348600D01*
X198920Y333980D02*
Y341238D01*
Y333980D02*
X199100Y333800D01*
X179517Y346044D02*
X182773Y349300D01*
X157687Y335513D02*
Y338734D01*
Y335513D02*
X160100Y333100D01*
X158653Y340983D02*
X159407Y341737D01*
X160541D02*
X165339Y346535D01*
X159407Y341737D02*
X160541D01*
X165339Y346535D02*
X165918D01*
X166504Y347121D01*
Y347551D01*
X167972Y349019D01*
X158653Y339699D02*
Y340983D01*
X157687Y338734D02*
Y344700D01*
X157528Y344859D02*
Y349006D01*
Y344859D02*
X157687Y344700D01*
X155003Y341797D02*
Y345514D01*
X155747Y336067D02*
Y341053D01*
X155003Y341797D02*
X155747Y341053D01*
X153874Y346643D02*
X155003Y345514D01*
X153874Y346643D02*
Y348861D01*
X153460Y349275D02*
X153874Y348861D01*
X155404Y334896D02*
Y335724D01*
X155747Y336067D01*
X157687Y338734D02*
X158653Y339699D01*
X191239Y341398D02*
X191260Y341418D01*
X191239Y333820D02*
Y341398D01*
X164400Y367028D02*
X167972Y370600D01*
X164400Y361341D02*
Y367028D01*
Y361341D02*
X165931Y359809D01*
X154887Y375305D02*
X155714D01*
X156760Y368800D02*
Y374259D01*
X155714Y375305D02*
X156760Y374259D01*
X153419Y376773D02*
X154887Y375305D01*
X153419Y376773D02*
Y377600D01*
X169626Y349019D02*
X172882Y352275D01*
Y358595D01*
X171667Y359809D02*
X172882Y358595D01*
X165931Y359809D02*
X171667D01*
X167972Y370600D02*
X168799D01*
X157230Y368270D02*
X157260Y368300D01*
X156760Y368800D02*
X157260Y368300D01*
X153419Y377600D02*
X153428Y377609D01*
Y385591D02*
X153438Y385600D01*
X153428Y377609D02*
Y385591D01*
D16*
X163119Y298900D02*
D03*
X170481D02*
D03*
X174400Y385600D02*
D03*
X167038D02*
D03*
X160800D02*
D03*
X153438D02*
D03*
X205419Y340500D02*
D03*
X212781D02*
D03*
X176438Y232600D02*
D03*
X183800D02*
D03*
X191738Y333800D02*
D03*
X199100D02*
D03*
X153419Y377600D02*
D03*
X160781D02*
D03*
X212781Y348600D02*
D03*
X205419D02*
D03*
D25*
X183600Y349300D02*
D03*
Y341938D02*
D03*
X168799Y349019D02*
D03*
Y356381D02*
D03*
Y334500D02*
D03*
Y341862D02*
D03*
Y370600D02*
D03*
Y363238D02*
D03*
D37*
X251900Y237300D02*
D03*
X261743D02*
D03*
X271586D02*
D03*
X276400Y297100D02*
D03*
Y306943D02*
D03*
D42*
X160800Y385600D02*
X167038D01*
X160781Y377600D02*
X167227D01*
X174400Y384773D02*
Y385600D01*
X167227Y377600D02*
X174400Y384773D01*
Y385600D02*
Y386427D01*
X175895Y387922D01*
X276200Y377900D02*
X277978Y379678D01*
X241300Y377900D02*
X253600D01*
X206000D02*
X218700D01*
D43*
X188000Y312800D02*
X190300D01*
X190800D01*
X167300Y325885D02*
X172848D01*
X175799Y348231D02*
Y361138D01*
X172900Y345332D02*
X175799Y348231D01*
X167750Y377600D02*
X172900Y372450D01*
X169626Y341862D02*
X172900Y345136D01*
Y364037D02*
Y372450D01*
Y345136D02*
Y345332D01*
Y364037D02*
X175799Y361138D01*
X148300Y328000D02*
Y356731D01*
Y328000D02*
X152299Y324001D01*
X148300Y356731D02*
X153520Y361950D01*
X150400Y333037D02*
X161437Y322000D01*
X150400Y333037D02*
Y344300D01*
X152299Y324001D02*
X157599D01*
X163200Y316772D02*
X165229Y318801D01*
X163200Y316400D02*
Y316772D01*
X168011Y312900D02*
X168711Y313600D01*
X174000D01*
X163000Y312900D02*
X168011D01*
X173807Y316700D02*
X176400D01*
X172006Y314899D02*
X173807Y316700D01*
X191200Y307200D02*
X201000D01*
X179599Y318801D02*
X191200Y307200D01*
X165229Y318801D02*
X179599D01*
X194600Y304400D02*
X233340D01*
X233840Y303900D01*
X272185D01*
X275228Y306943D01*
X184286Y355186D02*
X187800Y358700D01*
X184286Y353127D02*
Y355186D01*
X184200Y353040D02*
X184286Y353127D01*
X161717Y326400D02*
X162818Y325300D01*
X167300D01*
X165073Y322128D02*
X165228Y321972D01*
X162060Y322128D02*
X165073D01*
X168240Y321972D02*
X168267Y322000D01*
X172700D01*
X165228Y321972D02*
X168240D01*
X161437Y322000D02*
X161933D01*
X172700D02*
X178625Y327925D01*
X161933Y322000D02*
X162060Y322128D01*
X180700Y320100D02*
X188000Y312800D01*
X162900Y320100D02*
X180700D01*
X167527Y315800D02*
X168428Y314899D01*
X172006D01*
X167400Y315800D02*
X167527D01*
X161400Y326400D02*
X161717D01*
X172848Y325885D02*
X177326Y330363D01*
X153460Y334340D02*
X161400Y326400D01*
X178625Y327925D02*
Y332484D01*
X179813Y333672D02*
X182804D01*
X186328Y329816D02*
X192343Y323800D01*
X182804Y333672D02*
X183460Y334328D01*
X185140D02*
X186328Y333140D01*
X183460Y334328D02*
X185140D01*
X186328Y329816D02*
Y333140D01*
X192343Y323800D02*
X202100D01*
X206600Y328300D01*
X180900Y334971D02*
X181200Y335271D01*
X179275Y334971D02*
X180900D01*
X177326Y330363D02*
Y333022D01*
X181200Y335271D02*
Y339890D01*
X177326Y333022D02*
X179275Y334971D01*
X178625Y332484D02*
X179813Y333672D01*
X162807Y307000D02*
X172600D01*
X160728Y309080D02*
X162807Y307000D01*
X160728Y309080D02*
Y320240D01*
X172600Y307000D02*
X186300Y293300D01*
X158823Y322145D02*
Y322777D01*
Y322145D02*
X160728Y320240D01*
X157599Y324001D02*
X158823Y322777D01*
X158700Y309270D02*
X165231Y302738D01*
X158700Y309270D02*
Y319400D01*
X218961Y344761D02*
X221000Y346800D01*
X211092Y344761D02*
X218961D01*
X209079Y342749D02*
X211092Y344761D01*
X207490Y336620D02*
X209079Y338209D01*
Y342749D01*
X205038Y335400D02*
X206258Y336620D01*
X205000Y335400D02*
X205038D01*
X206258Y336620D02*
X207490D01*
X161007Y302738D02*
X165231D01*
X175200Y345599D02*
X178250Y348649D01*
X175200Y342400D02*
Y345599D01*
X275228Y306943D02*
X276400D01*
X186300Y282000D02*
Y293300D01*
X206165Y312365D02*
Y317210D01*
X201000Y307200D02*
X206165Y312365D01*
X178250Y351750D02*
X179540Y353040D01*
X184200D01*
X178250Y348649D02*
Y351750D01*
X198229Y313371D02*
Y315906D01*
X184300Y329834D02*
Y332300D01*
Y329834D02*
X198229Y315906D01*
X194000Y314100D02*
Y318297D01*
X180653Y331644D02*
X194000Y318297D01*
X160940Y337600D02*
Y338525D01*
Y337600D02*
X162562Y335979D01*
X163221D01*
X163500Y335700D01*
X161000Y357125D02*
Y357550D01*
Y353616D02*
Y357125D01*
X160300Y345100D02*
X160579Y345379D01*
X161444D01*
X162984Y346918D01*
X161000Y353616D02*
X162984Y351632D01*
Y346918D02*
Y351632D01*
X153460Y334340D02*
Y338525D01*
Y344875D01*
X167227Y377600D02*
X167750D01*
X168799Y341862D02*
X169626D01*
X174500Y348769D02*
Y360600D01*
X170723Y344992D02*
X174500Y348769D01*
X165978Y344992D02*
X170723D01*
X164064Y343077D02*
X165978Y344992D01*
X164064Y342573D02*
Y343077D01*
X160940Y339450D02*
X164064Y342573D01*
X160940Y338525D02*
Y339450D01*
X172062Y363038D02*
X174500Y360600D01*
X160107Y290093D02*
X163300Y286900D01*
X160107Y301839D02*
X161007Y302738D01*
X160107Y290093D02*
Y301839D01*
X165231Y302738D02*
X167023Y300947D01*
X168787D01*
X170481Y299253D01*
Y298900D02*
Y299253D01*
X181207Y339897D02*
Y340243D01*
X182901Y341938D02*
X183600D01*
X181207Y340243D02*
X182901Y341938D01*
X181200Y339890D02*
X181207Y339897D01*
X163119Y295337D02*
X168115Y290341D01*
X163119Y295337D02*
Y298900D01*
X176300Y282000D02*
Y283000D01*
X168959Y290341D02*
X176300Y283000D01*
X168115Y290341D02*
X168959D01*
X153520Y361950D02*
Y368300D01*
X168999Y363038D02*
X172062D01*
X168799Y363238D02*
X168999Y363038D01*
X153520Y353735D02*
Y357550D01*
X151417Y351632D02*
X153520Y353735D01*
X151417Y346918D02*
Y351632D01*
Y346918D02*
X153460Y344875D01*
X161744Y356381D02*
X168799D01*
X161000Y357125D02*
X161744Y356381D01*
X158597Y352464D02*
Y364972D01*
X161000Y367375D01*
Y368300D01*
X160940Y349275D02*
Y350200D01*
X160117Y350944D02*
X160196D01*
X160940Y350200D01*
X158597Y352464D02*
X160117Y350944D01*
X160781Y368519D02*
Y377600D01*
Y368519D02*
X161000Y368300D01*
X157230Y349305D02*
Y368270D01*
D45*
X152900Y316900D02*
D03*
D46*
Y306900D02*
D03*
Y296900D02*
D03*
Y286900D02*
D03*
D47*
X179000Y362800D02*
D03*
X210100Y390284D02*
D03*
X190300Y312800D02*
D03*
X194600Y304400D02*
D03*
X170400Y229700D02*
D03*
X190400Y232800D02*
D03*
X150400Y344300D02*
D03*
X163200Y316400D02*
D03*
X163000Y312900D02*
D03*
X176400Y316700D02*
D03*
X174000Y313600D02*
D03*
X173800Y379600D02*
D03*
X192600Y361289D02*
D03*
X187800Y358700D02*
D03*
X189400Y353800D02*
D03*
X167300Y325300D02*
D03*
X167400Y315800D02*
D03*
X162900Y320100D02*
D03*
X233300Y313700D02*
D03*
X165400Y329700D02*
D03*
X221000Y346800D02*
D03*
X205000Y335400D02*
D03*
X175200Y342400D02*
D03*
X158700Y319400D02*
D03*
X213100Y333000D02*
D03*
X209100Y323700D02*
D03*
X219900Y337000D02*
D03*
X184200Y353040D02*
D03*
X206600Y328300D02*
D03*
X206165Y317210D02*
D03*
X198229Y313371D02*
D03*
X194000Y314100D02*
D03*
X184300Y332300D02*
D03*
X180653Y331644D02*
D03*
X163500Y335700D02*
D03*
X160300Y345100D02*
D03*
X163300Y286900D02*
D03*
D48*
X253600Y405500D02*
D03*
X202200D02*
D03*
X160100Y404800D02*
D03*
X271500Y329800D02*
D03*
D49*
X176300Y282000D02*
D03*
X186300D02*
D03*
Y240400D02*
D03*
X176300D02*
D03*
D50*
X153520Y357550D02*
D03*
X161000D02*
D03*
Y368300D02*
D03*
X157260D02*
D03*
X153520D02*
D03*
X153460Y338525D02*
D03*
X160940D02*
D03*
Y349275D02*
D03*
X157200D02*
D03*
X153460D02*
D03*
D51*
X195000Y351300D02*
D03*
X191260Y341418D02*
D03*
X198740D02*
D03*
D52*
X241300Y377900D02*
D03*
X218700D02*
D03*
X276200D02*
D03*
X253600D02*
D03*
X206000D02*
D03*
X183400D02*
D03*
D53*
X280427Y387922D02*
X281628Y386721D01*
X175895Y387922D02*
X280427D01*
X281628Y380879D02*
Y386721D01*
X280821Y380072D02*
X281628Y380879D01*
X277978Y379678D02*
X278372Y380072D01*
X280821D01*
M02*
