G04*
G04 #@! TF.GenerationSoftware,Altium Limited,Altium Designer,23.10.1 (27)*
G04*
G04 Layer_Color=16711935*
%FSLAX25Y25*%
%MOIN*%
G70*
G04*
G04 #@! TF.SameCoordinates,C0C592A9-96B4-4F53-9DEC-7EA94FB758FA*
G04*
G04*
G04 #@! TF.FilePolarity,Positive*
G04*
G01*
G75*
%ADD10C,0.02000*%
%ADD11C,0.00787*%
%ADD13C,0.00500*%
%ADD15C,0.00300*%
%ADD55C,0.00000*%
%ADD56C,0.00100*%
G36*
X170231Y305938D02*
X168263D01*
Y310662D01*
X170231D01*
Y305938D01*
D02*
G37*
G36*
X176137D02*
X174169D01*
Y310662D01*
X176137D01*
Y305938D01*
D02*
G37*
D10*
X273086Y244800D02*
X272735Y245764D01*
X271847Y246277D01*
X270836Y246099D01*
X270177Y245313D01*
Y244287D01*
X270836Y243501D01*
X271847Y243323D01*
X272735Y243836D01*
X273086Y244800D01*
X285400Y297100D02*
X285049Y298064D01*
X284160Y298577D01*
X283150Y298399D01*
X282490Y297613D01*
Y296587D01*
X283150Y295801D01*
X284160Y295623D01*
X285049Y296136D01*
X285400Y297100D01*
D11*
X202109Y363348D02*
X201322D01*
X202109D01*
X199331Y336910D02*
X198543D01*
X199331D01*
X208870Y312700D02*
X208083D01*
X208870D01*
X153294Y323672D02*
X152506D01*
X153294D01*
X225694Y321476D02*
X224906D01*
X225694D01*
X217394Y319150D02*
X216606D01*
X217394D01*
X168263Y305938D02*
Y310662D01*
Y305938D02*
X176137D01*
Y310662D01*
X168263D02*
X176137D01*
D13*
X182148Y305344D02*
Y310856D01*
X190652Y305344D02*
Y310856D01*
X182148Y305344D02*
X190652D01*
X182148Y310856D02*
X190652D01*
X177405Y356261D02*
X202995D01*
Y338939D02*
Y356261D01*
X177405Y338939D02*
X202995D01*
X177405D02*
Y356261D01*
X180448Y315944D02*
Y321456D01*
X188952Y315944D02*
Y321456D01*
X180448Y315944D02*
X188952D01*
X180448Y321456D02*
X188952D01*
X162548Y296144D02*
X171052D01*
X162548Y301656D02*
X171052D01*
Y296144D02*
Y301656D01*
X162548Y296144D02*
Y301656D01*
X166467Y388356D02*
X174971D01*
X166467Y382844D02*
X174971D01*
X166467D02*
Y388356D01*
X174971Y382844D02*
Y388356D01*
X152867D02*
X161371D01*
X152867Y382844D02*
X161371D01*
X152867D02*
Y388356D01*
X161371Y382844D02*
Y388356D01*
X204848Y337744D02*
X213352D01*
X204848Y343256D02*
X213352D01*
Y337744D02*
Y343256D01*
X204848Y337744D02*
Y343256D01*
X188898Y342816D02*
Y349902D01*
X201102D01*
Y342816D02*
Y349902D01*
X188898Y342816D02*
X201102D01*
X180844Y341367D02*
Y349871D01*
X186356Y341367D02*
Y349871D01*
X180844Y341367D02*
X186356D01*
X180844Y349871D02*
X186356D01*
X175867Y229844D02*
X184371D01*
X175867Y235356D02*
X184371D01*
Y229844D02*
Y235356D01*
X175867Y229844D02*
Y235356D01*
X171555Y348448D02*
Y356952D01*
X166043Y348448D02*
Y356952D01*
X171555D01*
X166043Y348448D02*
X171555D01*
Y333929D02*
Y342433D01*
X166043Y333929D02*
Y342433D01*
X171555D01*
X166043Y333929D02*
X171555D01*
X191167Y331044D02*
X199671D01*
X191167Y336556D02*
X199671D01*
Y331044D02*
Y336556D01*
X191167Y331044D02*
Y336556D01*
X166043Y362667D02*
Y371171D01*
X171555Y362667D02*
Y371171D01*
X166043Y362667D02*
X171555D01*
X166043Y371171D02*
X171555D01*
X152848Y374844D02*
X161352D01*
X152848Y380356D02*
X161352D01*
Y374844D02*
Y380356D01*
X152848Y374844D02*
Y380356D01*
X204848Y351356D02*
X213352D01*
X204848Y345844D02*
X213352D01*
X204848D02*
Y351356D01*
X213352Y345844D02*
Y351356D01*
X206767Y368756D02*
X215271D01*
X206767Y363244D02*
X215271D01*
Y368756D01*
X206767Y363244D02*
Y368756D01*
X198267Y305444D02*
X206771D01*
X198267Y310956D02*
X206771D01*
X198267Y305444D02*
Y310956D01*
X206771Y305444D02*
Y310956D01*
X213870Y309354D02*
Y316046D01*
X225130D01*
Y309354D02*
Y316046D01*
X213870Y309354D02*
X225130D01*
X246844Y317448D02*
Y325952D01*
X252356Y317448D02*
Y325952D01*
X246844D02*
X252356D01*
X246844Y317448D02*
X252356D01*
X238844Y317450D02*
Y325954D01*
X244356Y317450D02*
Y325954D01*
X238844D02*
X244356D01*
X238844Y317450D02*
X244356D01*
X230944Y317448D02*
Y325952D01*
X236456Y317448D02*
Y325952D01*
X230944D02*
X236456D01*
X230944Y317448D02*
X236456D01*
X148294Y321113D02*
X157506D01*
Y282687D02*
Y321113D01*
X148294Y282687D02*
X157506D01*
X148294D02*
Y321113D01*
Y282687D02*
Y321113D01*
X194165Y323845D02*
X202669D01*
X194165Y329357D02*
X202669D01*
X194165Y323845D02*
Y329357D01*
X202669Y323845D02*
Y329357D01*
X194167Y321455D02*
X202671D01*
X194167Y315943D02*
X202671D01*
Y321455D01*
X194167Y315943D02*
Y321455D01*
X221954Y326870D02*
X228646D01*
X221954D02*
Y338130D01*
X228646D01*
Y326870D02*
Y338130D01*
X214323Y324357D02*
X219677D01*
Y331443D01*
X214323D02*
X219677D01*
X214323Y324357D02*
Y331443D01*
X221244Y350748D02*
Y359252D01*
X226756Y350748D02*
Y359252D01*
X221244D02*
X226756D01*
X221244Y350748D02*
X226756D01*
X218856Y350729D02*
Y359233D01*
X213344Y350729D02*
Y359233D01*
Y350729D02*
X218856D01*
X213344Y359233D02*
X218856D01*
X205344Y350729D02*
Y359233D01*
X210856Y350729D02*
Y359233D01*
X205344D02*
X210856D01*
X205344Y350729D02*
X210856D01*
X180467Y329356D02*
X188971D01*
X180467Y323844D02*
X188971D01*
Y329356D01*
X180467Y323844D02*
Y329356D01*
X152267Y328856D02*
X160771D01*
X152267Y323344D02*
X160771D01*
Y328856D01*
X152267Y323344D02*
Y328856D01*
D15*
X151434Y352365D02*
X154766Y349033D01*
X151434D02*
X154766Y352365D01*
X151434Y350699D02*
X154766D01*
X153100Y349033D02*
Y352365D01*
X152154Y366625D02*
X155487Y363293D01*
Y366625D02*
X152154Y363293D01*
X153821Y366625D02*
Y363293D01*
X155487Y364959D02*
X152154D01*
X152094Y347600D02*
X155427Y344268D01*
Y347600D02*
X152094Y344268D01*
X153761Y347600D02*
Y344268D01*
X155427Y345934D02*
X152094D01*
D55*
X171700Y260000D02*
X172548Y260351D01*
X172900Y261200D01*
X172548Y262049D01*
X171700Y262400D01*
X151310Y361725D02*
X152158Y362076D01*
X152510Y362925D01*
X152158Y363773D01*
X151310Y364125D01*
X151250Y342700D02*
X152099Y343052D01*
X152450Y343900D01*
X152099Y344748D01*
X151250Y345100D01*
X183500Y285960D02*
X182750Y286393D01*
Y285527D01*
X183500Y285960D01*
X167200Y286000D02*
X166450Y286433D01*
Y285567D01*
X167200Y286000D01*
X198750Y371200D02*
X198150D01*
X198750D01*
D56*
X281243Y201080D02*
Y246380D01*
X242243Y201080D02*
X281243D01*
X242243D02*
Y246380D01*
X281243D01*
X150934Y349700D02*
X154434D01*
X150934Y333000D02*
Y349700D01*
Y333000D02*
X154434D01*
Y349700D01*
X168966D02*
X172466D01*
X168966Y333000D02*
Y349700D01*
Y333000D02*
X172466D01*
Y349700D01*
X159950Y345700D02*
Y349700D01*
Y345700D02*
X163450D01*
Y349700D01*
X148700D02*
X174700D01*
Y373700D01*
X148700D02*
X174700D01*
X148700Y349700D02*
Y373700D01*
X173700Y275000D02*
X178900D01*
X173700D02*
Y285000D01*
X178900D01*
Y275000D02*
Y285000D01*
X183700Y275000D02*
X188900D01*
X183700D02*
Y285000D01*
X188900D01*
Y275000D02*
Y285000D01*
X183700Y247400D02*
X188900D01*
Y237400D02*
Y247400D01*
X183700Y237400D02*
X188900D01*
X183700D02*
Y247400D01*
X173700D02*
X178900D01*
Y237400D02*
Y247400D01*
X173700Y237400D02*
X178900D01*
X173700D02*
Y247400D01*
X190900D02*
Y275000D01*
X171700Y247400D02*
X190900D01*
X171700D02*
Y275000D01*
X190900D01*
X306349Y287470D02*
Y316770D01*
X260849D02*
X306349D01*
X260849Y287470D02*
Y316770D01*
Y287470D02*
X306349D01*
X151310Y366375D02*
X163210D01*
X151310Y359475D02*
Y366375D01*
Y359475D02*
X163210D01*
Y366375D01*
X152520Y357025D02*
Y359475D01*
Y357025D02*
X154520D01*
Y359475D01*
X152520D02*
X154520D01*
X160000Y357025D02*
Y359475D01*
Y357025D02*
X162000D01*
Y359475D01*
X160000D02*
X162000D01*
Y366375D02*
Y368825D01*
X160000D02*
X162000D01*
X160000Y366375D02*
Y368825D01*
Y366375D02*
X162000D01*
X158260D02*
Y368825D01*
X156260D02*
X158260D01*
X156260Y366375D02*
Y368825D01*
Y366375D02*
X158260D01*
X154520D02*
Y368825D01*
X152520D02*
X154520D01*
X152520Y366375D02*
Y368825D01*
Y366375D02*
X154520D01*
X151250Y347350D02*
X163150D01*
X151250Y340450D02*
Y347350D01*
Y340450D02*
X163150D01*
Y347350D01*
X152460Y338000D02*
Y340450D01*
Y338000D02*
X154460D01*
Y340450D01*
X152460D02*
X154460D01*
X159940Y338000D02*
Y340450D01*
Y338000D02*
X161940D01*
Y340450D01*
X159940D02*
X161940D01*
Y347350D02*
Y349800D01*
X159940D02*
X161940D01*
X159940Y347350D02*
Y349800D01*
Y347350D02*
X161940D01*
X158200D02*
Y349800D01*
X156200D02*
X158200D01*
X156200Y347350D02*
Y349800D01*
Y347350D02*
X158200D01*
X154460D02*
Y349800D01*
X152460D02*
X154460D01*
X152460Y347350D02*
Y349800D01*
Y347350D02*
X154460D01*
X231800Y342700D02*
Y391900D01*
X281000D01*
Y342700D02*
Y391900D01*
X231800Y342700D02*
X281000D01*
X182216Y284960D02*
X186916D01*
X182216Y284770D02*
Y284960D01*
Y284770D02*
X186916D01*
Y284960D01*
X190484D02*
X195184D01*
X190484Y284770D02*
Y284960D01*
Y284770D02*
X195184D01*
Y284960D01*
X185550Y298360D02*
X191850D01*
Y298550D01*
X185550D02*
X191850D01*
X185550Y298360D02*
Y298550D01*
X182000Y284960D02*
X195400D01*
Y298360D01*
X182000D02*
X195400D01*
X182000Y284960D02*
Y298360D01*
X165916Y285000D02*
X170616D01*
X165916Y284810D02*
Y285000D01*
Y284810D02*
X170616D01*
Y285000D01*
X174184D02*
X178884D01*
X174184Y284810D02*
Y285000D01*
Y284810D02*
X178884D01*
Y285000D01*
X169250Y298400D02*
X175550D01*
Y298590D01*
X169250D02*
X175550D01*
X169250Y298400D02*
Y298590D01*
X165700Y285000D02*
X179100D01*
Y298400D01*
X165700D02*
X179100D01*
X165700Y285000D02*
Y298400D01*
X214450Y369450D02*
X245550D01*
X214450D02*
Y386350D01*
X245550D01*
Y369450D02*
Y386350D01*
X249350Y369450D02*
X280450D01*
X249350D02*
Y386350D01*
X280450D01*
Y369450D02*
Y386350D01*
X179150Y369450D02*
X210250D01*
X179150D02*
Y386350D01*
X210250D01*
Y369450D02*
Y386350D01*
X199600Y364500D02*
Y377900D01*
X180400Y364500D02*
X199600D01*
X180400D02*
Y377900D01*
X199600D01*
X180400Y364500D02*
X183900D01*
X180400D02*
Y377900D01*
X183900D01*
Y364500D02*
Y377900D01*
X196100D02*
X199600D01*
Y364500D02*
Y377900D01*
X196100Y364500D02*
X199600D01*
X196100D02*
Y377900D01*
M02*
