G04*
G04 #@! TF.GenerationSoftware,Altium Limited,Altium Designer,23.10.1 (27)*
G04*
G04 Layer_Color=32896*
%FSLAX25Y25*%
%MOIN*%
G70*
G04*
G04 #@! TF.SameCoordinates,C0C592A9-96B4-4F53-9DEC-7EA94FB758FA*
G04*
G04*
G04 #@! TF.FilePolarity,Positive*
G04*
G01*
G75*
%ADD10C,0.02000*%
%ADD11C,0.00787*%
%ADD12C,0.00600*%
%ADD13C,0.00500*%
%ADD14C,0.01000*%
%ADD15C,0.00300*%
D10*
X290243Y237300D02*
X289892Y238264D01*
X289003Y238777D01*
X287993Y238599D01*
X287333Y237813D01*
Y236787D01*
X287993Y236001D01*
X289003Y235823D01*
X289892Y236336D01*
X290243Y237300D01*
X277900Y279970D02*
X277549Y280934D01*
X276660Y281447D01*
X275650Y281269D01*
X274991Y280483D01*
Y279457D01*
X275650Y278671D01*
X276660Y278492D01*
X277549Y279006D01*
X277900Y279970D01*
D11*
X199331Y336910D02*
X198543D01*
X199331D01*
D12*
X191400Y246900D02*
Y275500D01*
X171200Y246900D02*
X191400D01*
X171200D02*
Y275500D01*
X191400D01*
X150810Y358975D02*
Y366875D01*
X155830Y358975D02*
X158690D01*
X163710D02*
Y366875D01*
X150750Y339950D02*
Y347850D01*
X155770Y339950D02*
X158630D01*
X163650D02*
Y347850D01*
X213950Y382560D02*
Y386850D01*
Y368950D02*
X246050D01*
X213950D02*
Y373240D01*
Y386850D02*
X246050D01*
Y382560D02*
Y386850D01*
Y368950D02*
Y373240D01*
X248850Y382560D02*
Y386850D01*
Y368950D02*
X280950D01*
X248850D02*
Y373240D01*
Y386850D02*
X280950D01*
Y382560D02*
Y386850D01*
Y368950D02*
Y373240D01*
X178650Y382560D02*
Y386850D01*
Y368950D02*
X210750D01*
X178650D02*
Y373240D01*
Y386850D02*
X210750D01*
Y382560D02*
Y386850D01*
Y368950D02*
Y373240D01*
D13*
X162863Y295396D02*
X170737D01*
X162863Y302404D02*
X170737D01*
X166782Y389104D02*
X174656D01*
X166782Y382096D02*
X174656D01*
X153182Y389104D02*
X161056D01*
X153182Y382096D02*
X161056D01*
X205163Y336996D02*
X213037D01*
X205163Y344004D02*
X213037D01*
X188862Y349902D02*
X192602D01*
X188862Y342816D02*
Y349902D01*
X197398D02*
X201138D01*
Y342816D02*
Y349902D01*
X180096Y341682D02*
Y349556D01*
X187104Y341682D02*
Y349556D01*
X176182Y229096D02*
X184056D01*
X176182Y236104D02*
X184056D01*
X172303Y348763D02*
Y356637D01*
X165295Y348763D02*
Y356637D01*
X172303Y334244D02*
Y342118D01*
X165295Y334244D02*
Y342118D01*
X191482Y330296D02*
X199356D01*
X191482Y337304D02*
X199356D01*
X165295Y362982D02*
Y370856D01*
X172303Y362982D02*
Y370856D01*
X153163Y374096D02*
X161037D01*
X153163Y381104D02*
X161037D01*
X205163Y352104D02*
X213037D01*
X205163Y345096D02*
X213037D01*
D14*
X269600Y282307D02*
Y286243D01*
X267632D01*
X266976Y285587D01*
Y284275D01*
X267632Y283619D01*
X269600D01*
X265008Y282307D02*
X263696D01*
X263040Y282963D01*
Y284275D01*
X263696Y284931D01*
X265008D01*
X265664Y284275D01*
Y282963D01*
X265008Y282307D01*
X261729Y284931D02*
Y282963D01*
X261073Y282307D01*
X260417Y282963D01*
X259761Y282307D01*
X259105Y282963D01*
Y284931D01*
X255825Y282307D02*
X257137D01*
X257793Y282963D01*
Y284275D01*
X257137Y284931D01*
X255825D01*
X255169Y284275D01*
Y283619D01*
X257793D01*
X253857Y284931D02*
Y282307D01*
Y283619D01*
X253201Y284275D01*
X252545Y284931D01*
X251889D01*
X245330Y282307D02*
X244018D01*
X243362Y282963D01*
Y284275D01*
X244018Y284931D01*
X245330D01*
X245986Y284275D01*
Y282963D01*
X245330Y282307D01*
X241394D02*
Y285587D01*
Y284275D01*
X242050D01*
X240738D01*
X241394D01*
Y285587D01*
X240738Y286243D01*
X234834D02*
X233522D01*
X234178D01*
Y282307D01*
X234834D01*
X233522D01*
X231555D02*
Y284931D01*
X230899D01*
X230243Y284275D01*
Y282307D01*
Y284275D01*
X229587Y284931D01*
X228931Y284275D01*
Y282307D01*
X226963Y284931D02*
X225651D01*
X224995Y284275D01*
Y282307D01*
X226963D01*
X227619Y282963D01*
X226963Y283619D01*
X224995D01*
X222371Y280995D02*
X221715D01*
X221059Y281651D01*
Y284931D01*
X223027D01*
X223683Y284275D01*
Y282963D01*
X223027Y282307D01*
X221059D01*
X219747D02*
X218435D01*
X219091D01*
Y284931D01*
X219747D01*
X216467Y282307D02*
Y284931D01*
X214500D01*
X213844Y284275D01*
Y282307D01*
X211876Y284931D02*
X210564D01*
X209908Y284275D01*
Y282307D01*
X211876D01*
X212532Y282963D01*
X211876Y283619D01*
X209908D01*
X207940Y285587D02*
Y284931D01*
X208596D01*
X207284D01*
X207940D01*
Y282963D01*
X207284Y282307D01*
X205316D02*
X204004D01*
X204660D01*
Y284931D01*
X205316D01*
X201380Y282307D02*
X200069D01*
X199413Y282963D01*
Y284275D01*
X200069Y284931D01*
X201380D01*
X202036Y284275D01*
Y282963D01*
X201380Y282307D01*
X198101D02*
Y284931D01*
X196133D01*
X195477Y284275D01*
Y282307D01*
X169068Y260010D02*
X165788D01*
X165132Y260666D01*
Y261978D01*
X165788Y262634D01*
X169068D01*
X165132Y265914D02*
X169068D01*
X167100Y263946D01*
Y266569D01*
X147532Y357380D02*
X150812D01*
X151468Y356724D01*
Y355412D01*
X150812Y354756D01*
X147532D01*
X148188Y353444D02*
X147532Y352788D01*
Y351476D01*
X148188Y350820D01*
X148844D01*
X149500Y351476D01*
Y352132D01*
Y351476D01*
X150156Y350820D01*
X150812D01*
X151468Y351476D01*
Y352788D01*
X150812Y353444D01*
X147032Y338280D02*
X150312D01*
X150968Y337624D01*
Y336312D01*
X150312Y335656D01*
X147032D01*
X150968Y331720D02*
Y334344D01*
X148344Y331720D01*
X147688D01*
X147032Y332376D01*
Y333688D01*
X147688Y334344D01*
X171948Y230432D02*
Y234368D01*
X169980D01*
X169324Y233712D01*
Y232400D01*
X169980Y231744D01*
X171948D01*
X170636D02*
X169324Y230432D01*
X165388D02*
X168012D01*
X165388Y233056D01*
Y233712D01*
X166044Y234368D01*
X167356D01*
X168012Y233712D01*
X161452Y230432D02*
X164076D01*
X161452Y233056D01*
Y233712D01*
X162108Y234368D01*
X163420D01*
X164076Y233712D01*
X169192Y290332D02*
Y294268D01*
X167224D01*
X166568Y293612D01*
Y292300D01*
X167224Y291644D01*
X169192D01*
X167880D02*
X166568Y290332D01*
X162632D02*
X165256D01*
X162632Y292956D01*
Y293612D01*
X163288Y294268D01*
X164600D01*
X165256Y293612D01*
X161320Y290332D02*
X160008D01*
X160664D01*
Y294268D01*
X161320Y293612D01*
X188520Y352932D02*
Y356868D01*
X186552D01*
X185896Y356212D01*
Y354900D01*
X186552Y354244D01*
X188520D01*
X187208D02*
X185896Y352932D01*
X184584D02*
X183272D01*
X183928D01*
Y356868D01*
X184584Y356212D01*
X179336Y352932D02*
Y356868D01*
X181304Y354900D01*
X178680D01*
X213200Y355500D02*
Y359436D01*
X211232D01*
X210576Y358780D01*
Y357468D01*
X211232Y356812D01*
X213200D01*
X211888D02*
X210576Y355500D01*
X209264D02*
X207952D01*
X208608D01*
Y359436D01*
X209264Y358780D01*
X205984D02*
X205328Y359436D01*
X204017D01*
X203361Y358780D01*
Y358124D01*
X204017Y357468D01*
X204673D01*
X204017D01*
X203361Y356812D01*
Y356156D01*
X204017Y355500D01*
X205328D01*
X205984Y356156D01*
X213139Y331632D02*
Y335568D01*
X211171D01*
X210515Y334912D01*
Y333600D01*
X211171Y332944D01*
X213139D01*
X211827D02*
X210515Y331632D01*
X209203D02*
X207891D01*
X208547D01*
Y335568D01*
X209203Y334912D01*
X203299Y331632D02*
X205923D01*
X203299Y334256D01*
Y334912D01*
X203955Y335568D01*
X205267D01*
X205923Y334912D01*
X161264Y390532D02*
Y394468D01*
X159296D01*
X158640Y393812D01*
Y392500D01*
X159296Y391844D01*
X161264D01*
X159952D02*
X158640Y390532D01*
X157328D02*
X156016D01*
X156672D01*
Y394468D01*
X157328Y393812D01*
X154048Y390532D02*
X152736D01*
X153392D01*
Y394468D01*
X154048Y393812D01*
X175520Y390232D02*
Y394168D01*
X173552D01*
X172896Y393512D01*
Y392200D01*
X173552Y391544D01*
X175520D01*
X174208D02*
X172896Y390232D01*
X171584D02*
X170272D01*
X170928D01*
Y394168D01*
X171584Y393512D01*
X168304D02*
X167648Y394168D01*
X166336D01*
X165680Y393512D01*
Y390888D01*
X166336Y390232D01*
X167648D01*
X168304Y390888D01*
Y393512D01*
X249020Y367568D02*
Y363632D01*
X250988D01*
X251644Y364288D01*
Y365600D01*
X250988Y366256D01*
X249020D01*
X250332D02*
X251644Y367568D01*
X252956Y366912D02*
X253612Y367568D01*
X254924D01*
X255580Y366912D01*
Y364288D01*
X254924Y363632D01*
X253612D01*
X252956Y364288D01*
Y364944D01*
X253612Y365600D01*
X255580D01*
X220100Y390600D02*
Y394536D01*
X218132D01*
X217476Y393880D01*
Y392568D01*
X218132Y391912D01*
X220100D01*
X218788D02*
X217476Y390600D01*
X216164Y393880D02*
X215508Y394536D01*
X214196D01*
X213540Y393880D01*
Y393224D01*
X214196Y392568D01*
X213540Y391912D01*
Y391256D01*
X214196Y390600D01*
X215508D01*
X216164Y391256D01*
Y391912D01*
X215508Y392568D01*
X216164Y393224D01*
Y393880D01*
X215508Y392568D02*
X214196D01*
X184800Y390600D02*
Y394536D01*
X182832D01*
X182176Y393880D01*
Y392568D01*
X182832Y391912D01*
X184800D01*
X183488D02*
X182176Y390600D01*
X180864Y394536D02*
X178240D01*
Y393880D01*
X180864Y391256D01*
Y390600D01*
X197988Y352147D02*
Y354771D01*
X198644Y355427D01*
X199956D01*
X200612Y354771D01*
Y352147D01*
X199956Y351491D01*
X198644D01*
X199300Y352803D02*
X197988Y351491D01*
X198644D02*
X197988Y352147D01*
X177111Y350704D02*
X177767Y350048D01*
Y348736D01*
X177111Y348080D01*
X174487D01*
X173831Y348736D01*
Y350048D01*
X174487Y350704D01*
X173831Y352016D02*
Y353328D01*
Y352672D01*
X177767D01*
X177111Y352016D01*
X173831Y357264D02*
X177767D01*
X175799Y355296D01*
Y357920D01*
X177411Y335685D02*
X178067Y335029D01*
Y333717D01*
X177411Y333061D01*
X174787D01*
X174131Y333717D01*
Y335029D01*
X174787Y335685D01*
X174131Y336997D02*
Y338309D01*
Y337653D01*
X178067D01*
X177411Y336997D01*
Y340277D02*
X178067Y340933D01*
Y342245D01*
X177411Y342901D01*
X176755D01*
X176099Y342245D01*
Y341589D01*
Y342245D01*
X175443Y342901D01*
X174787D01*
X174131Y342245D01*
Y340933D01*
X174787Y340277D01*
X176912Y364604D02*
X177568Y363948D01*
Y362636D01*
X176912Y361980D01*
X174288D01*
X173632Y362636D01*
Y363948D01*
X174288Y364604D01*
X173632Y365916D02*
Y367228D01*
Y366572D01*
X177568D01*
X176912Y365916D01*
X173632Y371820D02*
Y369196D01*
X176256Y371820D01*
X176912D01*
X177568Y371164D01*
Y369852D01*
X176912Y369196D01*
X197159Y328312D02*
X197815Y328968D01*
X199127D01*
X199783Y328312D01*
Y325688D01*
X199127Y325032D01*
X197815D01*
X197159Y325688D01*
X195847Y325032D02*
X194535D01*
X195191D01*
Y328968D01*
X195847Y328312D01*
X192567Y325032D02*
X191255D01*
X191911D01*
Y328968D01*
X192567Y328312D01*
X171696Y379512D02*
X172352Y380168D01*
X173664D01*
X174320Y379512D01*
Y376888D01*
X173664Y376232D01*
X172352D01*
X171696Y376888D01*
X170384Y376232D02*
X169072D01*
X169728D01*
Y380168D01*
X170384Y379512D01*
X167104D02*
X166448Y380168D01*
X165136D01*
X164480Y379512D01*
Y376888D01*
X165136Y376232D01*
X166448D01*
X167104Y376888D01*
Y379512D01*
D15*
X147854Y370550D02*
X151187Y367218D01*
Y370550D02*
X147854Y367218D01*
X149521Y370550D02*
Y367218D01*
X151187Y368884D02*
X147854D01*
X147794Y351525D02*
X151127Y348193D01*
Y351525D02*
X147794Y348193D01*
X149461Y351525D02*
Y348193D01*
X151127Y349859D02*
X147794D01*
M02*
