G04*
G04 #@! TF.GenerationSoftware,Altium Limited,Altium Designer,23.10.1 (27)*
G04*
G04 Layer_Color=128*
%FSLAX25Y25*%
%MOIN*%
G70*
G04*
G04 #@! TF.SameCoordinates,C0C592A9-96B4-4F53-9DEC-7EA94FB758FA*
G04*
G04*
G04 #@! TF.FilePolarity,Positive*
G04*
G01*
G75*
%ADD13C,0.00500*%
D13*
X249950Y237300D02*
X253850D01*
X251900Y235350D02*
Y239250D01*
X259793Y237300D02*
X263693D01*
X261743Y235350D02*
Y239250D01*
X269636Y237300D02*
X273536D01*
X271586Y235350D02*
Y239250D01*
X274450Y297100D02*
X278350D01*
X276400Y295150D02*
Y299050D01*
X274450Y306943D02*
X278350D01*
X276400Y304993D02*
Y308893D01*
X150892Y316900D02*
X154908D01*
X152900Y314892D02*
Y318908D01*
X150892Y306900D02*
X154908D01*
X152900Y304892D02*
Y308908D01*
X150892Y296900D02*
X154908D01*
X152900Y294892D02*
Y298908D01*
X150892Y286900D02*
X154908D01*
X152900Y284892D02*
Y288908D01*
X178409Y362800D02*
X179591D01*
X179000Y362210D02*
Y363390D01*
X246710Y405500D02*
X260490D01*
X253600Y398610D02*
Y412390D01*
X195310Y405500D02*
X209090D01*
X202200Y398610D02*
Y412390D01*
X209509Y390284D02*
X210690D01*
X210100Y389693D02*
Y390874D01*
X189709Y312800D02*
X190891D01*
X190300Y312210D02*
Y313390D01*
X194009Y304400D02*
X195191D01*
X194600Y303809D02*
Y304991D01*
X169809Y229700D02*
X170991D01*
X170400Y229110D02*
Y230291D01*
X189809Y232800D02*
X190991D01*
X190400Y232209D02*
Y233390D01*
X149809Y344300D02*
X150991D01*
X150400Y343709D02*
Y344890D01*
X162609Y316400D02*
X163791D01*
X163200Y315809D02*
Y316990D01*
X162409Y312900D02*
X163591D01*
X163000Y312310D02*
Y313491D01*
X175809Y316700D02*
X176991D01*
X176400Y316109D02*
Y317290D01*
X173409Y313600D02*
X174591D01*
X174000Y313010D02*
Y314191D01*
X173209Y379600D02*
X174391D01*
X173800Y379010D02*
Y380190D01*
X192009Y361289D02*
X193191D01*
X192600Y360699D02*
Y361880D01*
X187209Y358700D02*
X188391D01*
X187800Y358109D02*
Y359291D01*
X188809Y353800D02*
X189991D01*
X189400Y353209D02*
Y354391D01*
X166709Y325300D02*
X167891D01*
X167300Y324710D02*
Y325890D01*
X166809Y315800D02*
X167991D01*
X167400Y315210D02*
Y316390D01*
X162309Y320100D02*
X163491D01*
X162900Y319510D02*
Y320690D01*
X232710Y313700D02*
X233891D01*
X233300Y313109D02*
Y314290D01*
X164809Y329700D02*
X165991D01*
X165400Y329110D02*
Y330291D01*
X220409Y346800D02*
X221590D01*
X221000Y346210D02*
Y347391D01*
X204409Y335400D02*
X205591D01*
X205000Y334809D02*
Y335991D01*
X174609Y342400D02*
X175791D01*
X175200Y341810D02*
Y342990D01*
X158109Y319400D02*
X159291D01*
X158700Y318810D02*
Y319990D01*
X212509Y333000D02*
X213690D01*
X213100Y332410D02*
Y333591D01*
X208509Y323700D02*
X209690D01*
X209100Y323110D02*
Y324290D01*
X219309Y337000D02*
X220491D01*
X219900Y336409D02*
Y337591D01*
X183609Y353040D02*
X184791D01*
X184200Y352450D02*
Y353631D01*
X206010Y328300D02*
X207190D01*
X206600Y327710D02*
Y328890D01*
X205574Y317210D02*
X206756D01*
X206165Y316619D02*
Y317801D01*
X197638Y313371D02*
X198819D01*
X198229Y312781D02*
Y313962D01*
X193409Y314100D02*
X194591D01*
X194000Y313509D02*
Y314690D01*
X183709Y332300D02*
X184891D01*
X184300Y331710D02*
Y332891D01*
X180062Y331644D02*
X181243D01*
X180653Y331054D02*
Y332235D01*
X162909Y335700D02*
X164091D01*
X163500Y335109D02*
Y336291D01*
X159709Y345100D02*
X160891D01*
X160300Y344510D02*
Y345690D01*
X162709Y286900D02*
X163891D01*
X163300Y286310D02*
Y287491D01*
X153210Y404800D02*
X166990D01*
X160100Y397910D02*
Y411690D01*
X264610Y329800D02*
X278390D01*
X271500Y322910D02*
Y336690D01*
M02*
