G04*
G04 #@! TF.GenerationSoftware,Altium Limited,Altium Designer,23.10.1 (27)*
G04*
G04 Layer_Physical_Order=1*
G04 Layer_Color=255*
%FSLAX25Y25*%
%MOIN*%
G70*
G04*
G04 #@! TF.SameCoordinates,C0C592A9-96B4-4F53-9DEC-7EA94FB758FA*
G04*
G04*
G04 #@! TF.FilePolarity,Positive*
G04*
G01*
G75*
%ADD11C,0.00787*%
%ADD14C,0.01000*%
G04:AMPARAMS|DCode=16|XSize=39.37mil|YSize=55.91mil|CornerRadius=4.92mil|HoleSize=0mil|Usage=FLASHONLY|Rotation=0.000|XOffset=0mil|YOffset=0mil|HoleType=Round|Shape=RoundedRectangle|*
%AMROUNDEDRECTD16*
21,1,0.03937,0.04606,0,0,0.0*
21,1,0.02953,0.05591,0,0,0.0*
1,1,0.00984,0.01476,-0.02303*
1,1,0.00984,-0.01476,-0.02303*
1,1,0.00984,-0.01476,0.02303*
1,1,0.00984,0.01476,0.02303*
%
%ADD16ROUNDEDRECTD16*%
%ADD17R,0.01772X0.03150*%
%ADD18R,0.04331X0.05709*%
%ADD19R,0.03700X0.09800*%
%ADD20R,0.26200X0.26800*%
%ADD21R,0.09500X0.20500*%
%ADD22R,0.04700X0.05500*%
%ADD23R,0.06300X0.06700*%
G04:AMPARAMS|DCode=24|XSize=47.64mil|YSize=28.74mil|CornerRadius=2.59mil|HoleSize=0mil|Usage=FLASHONLY|Rotation=0.000|XOffset=0mil|YOffset=0mil|HoleType=Round|Shape=RoundedRectangle|*
%AMROUNDEDRECTD24*
21,1,0.04764,0.02357,0,0,0.0*
21,1,0.04247,0.02874,0,0,0.0*
1,1,0.00517,0.02123,-0.01178*
1,1,0.00517,-0.02123,-0.01178*
1,1,0.00517,-0.02123,0.01178*
1,1,0.00517,0.02123,0.01178*
%
%ADD24ROUNDEDRECTD24*%
G04:AMPARAMS|DCode=25|XSize=39.37mil|YSize=55.91mil|CornerRadius=4.92mil|HoleSize=0mil|Usage=FLASHONLY|Rotation=90.000|XOffset=0mil|YOffset=0mil|HoleType=Round|Shape=RoundedRectangle|*
%AMROUNDEDRECTD25*
21,1,0.03937,0.04606,0,0,90.0*
21,1,0.02953,0.05591,0,0,90.0*
1,1,0.00984,0.02303,0.01476*
1,1,0.00984,0.02303,-0.01476*
1,1,0.00984,-0.02303,-0.01476*
1,1,0.00984,-0.02303,0.01476*
%
%ADD25ROUNDEDRECTD25*%
G04:AMPARAMS|DCode=26|XSize=47.64mil|YSize=28.74mil|CornerRadius=2.59mil|HoleSize=0mil|Usage=FLASHONLY|Rotation=90.000|XOffset=0mil|YOffset=0mil|HoleType=Round|Shape=RoundedRectangle|*
%AMROUNDEDRECTD26*
21,1,0.04764,0.02357,0,0,90.0*
21,1,0.04247,0.02874,0,0,90.0*
1,1,0.00517,0.01178,0.02123*
1,1,0.00517,0.01178,-0.02123*
1,1,0.00517,-0.01178,-0.02123*
1,1,0.00517,-0.01178,0.02123*
%
%ADD26ROUNDEDRECTD26*%
G04:AMPARAMS|DCode=27|XSize=40.55mil|YSize=20.47mil|CornerRadius=2.56mil|HoleSize=0mil|Usage=FLASHONLY|Rotation=90.000|XOffset=0mil|YOffset=0mil|HoleType=Round|Shape=RoundedRectangle|*
%AMROUNDEDRECTD27*
21,1,0.04055,0.01535,0,0,90.0*
21,1,0.03543,0.02047,0,0,90.0*
1,1,0.00512,0.00768,0.01772*
1,1,0.00512,0.00768,-0.01772*
1,1,0.00512,-0.00768,-0.01772*
1,1,0.00512,-0.00768,0.01772*
%
%ADD27ROUNDEDRECTD27*%
%ADD28R,0.05700X0.13600*%
%ADD37C,0.05900*%
%ADD41R,0.22362X0.07008*%
%ADD42C,0.01968*%
%ADD43C,0.00512*%
%ADD44C,0.00551*%
%ADD45R,0.05394X0.05394*%
%ADD46C,0.05394*%
%ADD47C,0.01968*%
%ADD48C,0.21260*%
D11*
X176600Y384034D02*
X185466Y392900D01*
X176600Y361236D02*
X177500Y360336D01*
X176600Y361236D02*
Y384034D01*
X185466Y392900D02*
X223539D01*
X224000Y385898D02*
Y392439D01*
X223539Y392900D02*
X224000Y392439D01*
X220781Y382680D02*
X224000Y385898D01*
X220781Y367658D02*
X224000Y364440D01*
X220781Y367658D02*
Y382680D01*
X224000Y358681D02*
Y364440D01*
X177500Y360336D02*
X178054D01*
X178684Y359706D01*
Y359017D02*
Y359706D01*
D14*
X179000Y362800D02*
Y369150D01*
X181050Y371200D01*
X201483Y373063D02*
X210100Y381679D01*
Y390284D01*
X197187Y369437D02*
X200813Y373063D01*
X201483D01*
X186487Y363213D02*
X188728Y360972D01*
X183567Y363213D02*
X186487D01*
X182813Y363967D02*
X183567Y363213D01*
X187300Y229700D02*
X190400Y232800D01*
X170400Y229700D02*
X187300D01*
X192747Y302741D02*
X194487Y301000D01*
X206674D01*
X189144Y302741D02*
X192747D01*
X186806Y305079D02*
Y313540D01*
Y305079D02*
X189144Y302741D01*
X206674Y301000D02*
X216555Y310881D01*
X192785Y361474D02*
X194695D01*
X197187Y363967D02*
Y369437D01*
X194695Y361474D02*
X197187Y363967D01*
X192600Y361289D02*
X192785Y361474D01*
X190695Y359017D02*
X199157D01*
X188741Y360972D02*
X190695Y359017D01*
X188728Y360972D02*
X188741D01*
X191900Y351300D02*
X208100D01*
X189400Y353800D02*
X191900Y351300D01*
X170322Y309965D02*
Y311197D01*
X168657Y308300D02*
X170322Y309965D01*
Y311197D02*
X170365Y311240D01*
Y326862D01*
X168657Y308300D02*
Y310500D01*
X168700D02*
X169600Y309600D01*
X168214Y329013D02*
X170365Y326862D01*
X165400Y329700D02*
X167108D01*
X167794Y329013D02*
X168214D01*
X167108Y329700D02*
X167794Y329013D01*
X232231Y316550D02*
X233300Y317619D01*
X233701Y318020D02*
X249599D01*
X233300Y313700D02*
Y317619D01*
X233700Y318019D01*
X169600Y299476D02*
Y309600D01*
X225777Y346800D02*
X228083Y349106D01*
X221000Y346800D02*
X225777D01*
X216927Y351300D02*
X220815Y347412D01*
Y346985D02*
Y347412D01*
Y346985D02*
X221000Y346800D01*
X272000Y373063D02*
X276250Y368813D01*
X252446Y373063D02*
X272000D01*
X242771Y382737D02*
X252446Y373063D01*
X222463Y381983D02*
X223217Y382737D01*
X222463Y368354D02*
Y381983D01*
X228083Y349106D02*
Y362734D01*
X276250Y367300D02*
Y368813D01*
X222463Y368354D02*
X228083Y362734D01*
X223217Y382737D02*
X242771D01*
X216100Y351300D02*
X216927D01*
X212872Y322779D02*
Y327446D01*
X208100Y332217D02*
X212872Y327446D01*
X208100Y332217D02*
Y351300D01*
X169750Y298890D02*
X172400Y296240D01*
X169600Y299476D02*
X169750Y299326D01*
Y298890D02*
Y299326D01*
X216476Y333000D02*
X217000Y332476D01*
Y332428D02*
Y332476D01*
X213100Y333000D02*
X216476D01*
X216555Y310881D02*
Y316245D01*
X209100Y323700D02*
X216555Y316245D01*
X186806Y313540D02*
X187671Y314405D01*
Y317990D01*
X188381Y318700D01*
X217632Y318019D02*
X233700D01*
X212872Y322779D02*
X217632Y318019D01*
X219900Y337000D02*
X228024Y328876D01*
Y324761D02*
Y328876D01*
Y324761D02*
X231509Y321276D01*
X252639D02*
X276400Y297515D01*
X231509Y321276D02*
X252639D01*
X276400Y297100D02*
Y297515D01*
X226114Y312700D02*
X227059D01*
X230910Y316550D01*
X232231D01*
X222232Y312700D02*
X226114D01*
X208975Y295941D02*
Y299442D01*
X195717Y282683D02*
X208975Y295941D01*
X189951Y282683D02*
X195717D01*
X189196Y283437D02*
Y295504D01*
X188700Y296000D02*
X189196Y295504D01*
Y283437D02*
X189951Y282683D01*
X208975Y299442D02*
X222232Y312700D01*
X233700Y318019D02*
X233701Y318020D01*
X249599D02*
X249600Y318019D01*
X203217Y363996D02*
Y365117D01*
X202302Y363113D02*
X202333D01*
X204100Y366000D02*
X207338D01*
X201716Y359017D02*
Y362527D01*
X203217Y365117D02*
X204100Y366000D01*
X202333Y363113D02*
X203217Y363996D01*
X201716Y362527D02*
X202302Y363113D01*
X181050Y371200D02*
X182813Y369437D01*
Y363967D02*
Y369437D01*
X220975Y331156D02*
X225300Y326831D01*
X217000Y331680D02*
Y332428D01*
Y331680D02*
X217524Y331156D01*
X220975D01*
X225300Y325886D02*
Y326831D01*
X172440Y296000D02*
X188700D01*
X172400Y296040D02*
X172440Y296000D01*
X172400Y296040D02*
Y296240D01*
X199157Y359017D02*
X201716D01*
D16*
X190081Y308100D02*
D03*
X182719D02*
D03*
X188381Y318700D02*
D03*
X181019D02*
D03*
X207338Y366000D02*
D03*
X214700D02*
D03*
X206200Y308200D02*
D03*
X198838D02*
D03*
X202098Y326601D02*
D03*
X194736D02*
D03*
X194738Y318699D02*
D03*
X202100D02*
D03*
X181038Y326600D02*
D03*
X188400D02*
D03*
X152838Y326100D02*
D03*
X160200D02*
D03*
D17*
X201716Y336183D02*
D03*
X199157D02*
D03*
X196598D02*
D03*
X194039D02*
D03*
X191480D02*
D03*
X188920D02*
D03*
X186361D02*
D03*
X183802D02*
D03*
X181243D02*
D03*
X178684D02*
D03*
Y359017D02*
D03*
X181243D02*
D03*
X183802D02*
D03*
X201716D02*
D03*
X199157D02*
D03*
X196598D02*
D03*
D18*
X175743Y308300D02*
D03*
X168657D02*
D03*
D19*
X152684Y336500D02*
D03*
X170716D02*
D03*
D20*
X161700Y361700D02*
D03*
D21*
X276250Y367300D02*
D03*
X236550D02*
D03*
D22*
X184566Y286720D02*
D03*
X192834D02*
D03*
X168266Y286760D02*
D03*
X176534D02*
D03*
D23*
X188700Y296000D02*
D03*
X172400Y296040D02*
D03*
D24*
X212886Y312700D02*
D03*
X226114D02*
D03*
D25*
X249600Y318019D02*
D03*
Y325381D02*
D03*
X241600Y318020D02*
D03*
Y325383D02*
D03*
X233700Y318019D02*
D03*
Y325381D02*
D03*
X224000Y351319D02*
D03*
Y358681D02*
D03*
X216100Y358662D02*
D03*
Y351300D02*
D03*
X208100D02*
D03*
Y358662D02*
D03*
D26*
X225300Y325886D02*
D03*
Y339114D02*
D03*
D27*
X217000Y323372D02*
D03*
Y332428D02*
D03*
D28*
X181050Y371200D02*
D03*
X198950D02*
D03*
D37*
X251900Y237300D02*
D03*
X261743D02*
D03*
X271586D02*
D03*
X276400Y297100D02*
D03*
Y306943D02*
D03*
D41*
X190200Y343600D02*
D03*
D42*
X199307Y401818D02*
X202200Y404711D01*
X188617Y401818D02*
X199307D01*
X172272Y385473D02*
X188617Y401818D01*
X172272Y381087D02*
Y385473D01*
Y381087D02*
X173760Y379600D01*
X173800D01*
X173800Y379600D01*
Y373800D02*
Y379600D01*
X161700Y361700D02*
X173800Y373800D01*
D43*
X190081Y308100D02*
X190300Y308319D01*
Y312800D01*
X241601Y325382D02*
X250426D01*
X190081Y307483D02*
Y308100D01*
X191776Y305788D02*
X193211D01*
X190081Y307483D02*
X191776Y305788D01*
X193211D02*
X194600Y304400D01*
X150400Y343906D02*
Y344300D01*
X151090Y338094D02*
Y343216D01*
X150400Y343906D02*
X151090Y343216D01*
Y338094D02*
X152684Y336500D01*
X161192Y316900D02*
X161448Y316644D01*
X152900Y316900D02*
X161192D01*
X162956Y316644D02*
X163200Y316400D01*
X161448Y316644D02*
X162956D01*
X158900Y312900D02*
X163000D01*
X152900Y306900D02*
X158900Y312900D01*
X176400Y316700D02*
X178239Y314861D01*
X183131D01*
X192893Y292218D02*
Y299782D01*
X192282Y300393D02*
X192893Y299782D01*
X186707Y300393D02*
X192282D01*
X173716Y303833D02*
X183267D01*
X186707Y300393D01*
X175943Y308100D02*
X182719D01*
X175743Y308300D02*
X175943Y308100D01*
X171909Y305640D02*
X173716Y303833D01*
X171909Y305640D02*
Y327501D01*
X195280Y356399D02*
X203034D01*
X194552Y357127D02*
X195280Y356399D01*
X189373Y357127D02*
X194552D01*
X187800Y358700D02*
X189373Y357127D01*
X185731Y357166D02*
X187070Y355828D01*
X182484Y361635D02*
X185120D01*
X185731Y361024D01*
X190240Y355828D02*
X190967Y355100D01*
X185731Y357166D02*
Y361024D01*
X181873D02*
X182484Y361635D01*
X187070Y355828D02*
X190240D01*
X190967Y355100D02*
X203572D01*
X205421Y356950D01*
X205433D01*
X207145Y358662D01*
X208100D01*
X167021Y324221D02*
Y325021D01*
X167300Y325300D01*
X162900Y320100D02*
X167021Y324221D01*
X161011Y320100D02*
X162900D01*
X165161Y315361D02*
X165600Y315800D01*
X167400D01*
X168853Y330557D02*
X171909Y327501D01*
X167823Y331168D02*
X168434Y330557D01*
X167823Y331168D02*
Y331378D01*
X168434Y330557D02*
X168853D01*
X158700Y319400D02*
X158841Y319541D01*
X160452D01*
X161011Y320100D01*
X165161Y309161D02*
Y315361D01*
X152900Y296900D02*
X165161Y309161D01*
X163500Y335700D02*
X167823Y331378D01*
X218253Y365647D02*
X220161Y363739D01*
Y356569D02*
Y363739D01*
X215053Y365647D02*
X218253D01*
X214700Y366000D02*
X215053Y365647D01*
X201716Y335494D02*
Y336030D01*
Y336183D01*
Y336030D02*
X202346Y335400D01*
X205000D01*
X184070Y315800D02*
Y323020D01*
X185603Y324553D01*
X186705D01*
X188400Y326247D01*
X183131Y314861D02*
X184070Y315800D01*
X188400Y326247D02*
Y326600D01*
X174000Y313600D02*
X174035D01*
X175437Y312198D02*
X178341D01*
X174035Y313600D02*
X175437Y312198D01*
X178341D02*
X178600Y311939D01*
X185263Y314179D02*
X185369Y314286D01*
X178600Y311939D02*
X184963D01*
X185263Y312238D02*
Y314179D01*
X184963Y311939D02*
X185263Y312238D01*
X185369Y314286D02*
Y321639D01*
X201716Y335494D02*
X202346Y334864D01*
X202904D02*
X208628Y329140D01*
X202098Y326601D02*
X202299Y326400D01*
X205553D01*
X205680Y326272D01*
X207440D01*
X208628Y327460D01*
X202346Y334864D02*
X202904D01*
X208628Y327460D02*
Y329140D01*
X185388Y322500D02*
X185688Y322800D01*
X186249D01*
X186288Y322761D01*
X185388Y321658D02*
Y322500D01*
X186288Y322761D02*
X190512D01*
X185369Y321639D02*
X185388Y321658D01*
X190512Y322761D02*
X191412Y323661D01*
X192834Y286720D02*
Y292158D01*
X192893Y292218D01*
X170716Y336500D02*
X174400D01*
X177976Y340076D02*
Y347536D01*
X174400Y336500D02*
X177976Y340076D01*
X188920Y342320D02*
X190200Y343600D01*
X188920Y336183D02*
Y342320D01*
X177976Y347536D02*
X178587Y348147D01*
X175157Y342443D02*
X175200Y342400D01*
X165539Y342443D02*
X175157D01*
X148919Y300881D02*
X152900Y296900D01*
X148919Y300881D02*
Y321354D01*
X152838Y325273D01*
X208100Y355926D02*
X209714Y354312D01*
X209643Y332857D02*
Y346892D01*
X211939Y349188D01*
X209643Y332857D02*
X216632Y325868D01*
X209714Y354312D02*
X211039D01*
X211939Y349188D02*
Y353412D01*
X211039Y354312D02*
X211939Y353412D01*
X216632Y323740D02*
Y325868D01*
Y323740D02*
X217000Y323372D01*
X208100Y355926D02*
Y358662D01*
X178049Y349447D02*
X202351D01*
X203724Y338879D02*
Y348074D01*
X202351Y349447D02*
X203724Y348074D01*
X276025Y307318D02*
X276400Y306943D01*
X272982Y307318D02*
X276025D01*
X254919Y325381D02*
X272982Y307318D01*
X249600Y325381D02*
X254919D01*
X241600Y325383D02*
X241601Y325382D01*
X233701D02*
X241599D01*
X233700Y325381D02*
X233701Y325382D01*
X241599D02*
X241600Y325383D01*
X225300Y338169D02*
Y339114D01*
Y338169D02*
X233700Y329769D01*
Y325381D02*
Y329769D01*
X225300Y339114D02*
Y340059D01*
X236550Y351309D01*
Y367300D01*
X221953Y353014D02*
X223647Y351319D01*
X221953Y353014D02*
Y354778D01*
X220161Y356569D02*
X221953Y354778D01*
X223647Y351319D02*
X224000D01*
X203034Y356399D02*
X204097Y357463D01*
X205161Y361674D02*
X211039D01*
X204097Y360611D02*
X205161Y361674D01*
X211039D02*
X211939Y360775D01*
X204097Y357463D02*
Y360611D01*
X211939Y359261D02*
X212537Y358662D01*
X211939Y359261D02*
Y360775D01*
X212537Y358662D02*
X216100D01*
X181873Y359647D02*
Y361024D01*
X181243Y359017D02*
X181873Y359647D01*
X184200Y353040D02*
Y358620D01*
X183802Y359017D02*
X184200Y358620D01*
X157188Y329048D02*
X158901Y330761D01*
Y335806D01*
X157188Y324499D02*
Y329048D01*
X158901Y335806D02*
X165539Y342443D01*
X154452Y321763D02*
X157188Y324499D01*
X154298Y321763D02*
X154452D01*
X152900Y320365D02*
X154298Y321763D01*
X152900Y316900D02*
Y320365D01*
X160138Y343072D02*
X161140D01*
X155521Y329218D02*
X156975Y330673D01*
Y339910D01*
X154550Y328767D02*
Y328918D01*
X154850Y329218D02*
X155521D01*
X154550Y328918D02*
X154850Y329218D01*
X156975Y339910D02*
X160138Y343072D01*
X152838Y325273D02*
Y327055D01*
X154550Y328767D01*
X178587Y348147D02*
X201813D01*
X161140Y343072D02*
X162328Y344260D01*
Y344628D01*
X164957Y347257D02*
X175859D01*
X162328Y344628D02*
X164957Y347257D01*
X206350Y328300D02*
X206600D01*
X206200Y309027D02*
X208951Y311778D01*
X206200Y308200D02*
Y309027D01*
X211963Y311778D02*
X212886Y312700D01*
X208951Y311778D02*
X211963D01*
X211018Y313881D02*
Y315682D01*
X212199Y312700D02*
X212886D01*
X211018Y313881D02*
X212199Y312700D01*
X206899Y319801D02*
X211018Y315682D01*
X205600Y318169D02*
X206165Y317604D01*
X205600Y318169D02*
Y321150D01*
X206165Y317210D02*
Y317604D01*
X201716Y336183D02*
Y336872D01*
X203724Y338879D01*
X175859Y347257D02*
X178049Y349447D01*
X169488Y337728D02*
X170716Y336500D01*
X162660Y337728D02*
X169488D01*
X161430Y336497D02*
X162660Y337728D01*
X161430Y332148D02*
Y336497D01*
X160200Y326100D02*
Y330917D01*
X161430Y332148D01*
X206899Y319801D02*
Y321688D01*
X204380Y324207D02*
X206899Y321688D01*
X203793Y324207D02*
X204380D01*
X202098Y325902D02*
Y326601D01*
Y325902D02*
X203793Y324207D01*
X199986Y322762D02*
X203988D01*
X197748Y325000D02*
X199986Y322762D01*
X197748Y325000D02*
Y329540D01*
X194039Y333249D02*
X197748Y329540D01*
X203988Y322762D02*
X205600Y321150D01*
X194039Y333249D02*
Y336183D01*
X200405Y321093D02*
X202100Y319398D01*
X194736Y325774D02*
Y326601D01*
Y325774D02*
X199417Y321093D01*
X200405D01*
X202100Y318699D02*
Y319398D01*
X198229Y308809D02*
Y313371D01*
Y308809D02*
X198838Y308200D01*
X194000Y314100D02*
Y317961D01*
X194738Y318699D01*
X199786Y332513D02*
X201861Y330439D01*
X204211D01*
X206350Y328300D01*
X199786Y332513D02*
Y335553D01*
X199157Y336183D02*
X199786Y335553D01*
X197228Y336812D02*
Y338190D01*
X196598Y336183D02*
X197228Y336812D01*
X197965Y338927D02*
X201687D01*
X197228Y338190D02*
X197965Y338927D01*
X201687D02*
X202424Y339664D01*
Y347536D01*
X201813Y348147D02*
X202424Y347536D01*
X188400Y335662D02*
X188920Y336183D01*
X188400Y326600D02*
Y335662D01*
X191412Y323661D02*
Y323812D01*
X191480Y323880D02*
Y336183D01*
X191412Y323812D02*
X191480Y323880D01*
X184300Y332300D02*
X184324D01*
X185731Y333708D01*
X178625Y333564D02*
X180002D01*
X180613Y334176D02*
Y334564D01*
X180614Y334564D02*
Y335553D01*
X180002Y333564D02*
X180613Y334176D01*
Y334564D02*
X180614Y334564D01*
X185731Y333708D02*
Y335553D01*
X183236Y335616D02*
X183802Y336183D01*
X180653Y331644D02*
X183236Y334227D01*
Y335616D01*
X178200Y333139D02*
X178625Y333564D01*
X178200Y329438D02*
Y333139D01*
X185731Y335553D02*
X186361Y336183D01*
X180614Y335553D02*
X181243Y336183D01*
X181028Y320609D02*
Y326600D01*
X178200Y329438D02*
X181038Y326600D01*
X181028D02*
Y328491D01*
X181019Y320600D02*
X181028Y320609D01*
X197838Y343600D02*
X201086Y340352D01*
X190200Y343600D02*
X197838D01*
X168126Y286900D02*
X168266Y286760D01*
X163300Y286900D02*
X168126D01*
X168266Y286360D02*
X170360Y284266D01*
X170760D01*
X173126Y281900D01*
X168266Y286360D02*
Y286760D01*
X173126Y281900D02*
X183200D01*
X184566Y283266D02*
Y286720D01*
X183200Y281900D02*
X184566Y283266D01*
D44*
X153437Y330537D02*
X154974D01*
X149806Y329047D02*
X150717Y329958D01*
X147600Y300335D02*
Y324700D01*
X150717Y329958D02*
X152858D01*
X147600Y324700D02*
X149806Y326906D01*
X152858Y329958D02*
X153437Y330537D01*
X149806Y326906D02*
Y329047D01*
X154974Y330537D02*
X155597Y331160D01*
X148051Y296114D02*
Y299884D01*
X147600Y300335D02*
X148051Y299884D01*
Y296114D02*
X152763Y291402D01*
X155597Y331160D02*
Y338083D01*
X155656Y338142D01*
Y340456D01*
X160300Y345100D01*
X174684Y289000D02*
X176534Y287150D01*
Y286760D02*
Y287150D01*
X171150Y290798D02*
X172947Y289000D01*
X159798Y291402D02*
X160402Y290798D01*
X172947Y289000D02*
X174684D01*
X152763Y291402D02*
X159798D01*
X160402Y290798D02*
X171150D01*
D45*
X152900Y316900D02*
D03*
D46*
Y306900D02*
D03*
Y296900D02*
D03*
Y286900D02*
D03*
D47*
X179000Y362800D02*
D03*
X210100Y390284D02*
D03*
X190300Y312800D02*
D03*
X194600Y304400D02*
D03*
X170400Y229700D02*
D03*
X190400Y232800D02*
D03*
X150400Y344300D02*
D03*
X163200Y316400D02*
D03*
X163000Y312900D02*
D03*
X176400Y316700D02*
D03*
X174000Y313600D02*
D03*
X173800Y379600D02*
D03*
X192600Y361289D02*
D03*
X187800Y358700D02*
D03*
X189400Y353800D02*
D03*
X167300Y325300D02*
D03*
X167400Y315800D02*
D03*
X162900Y320100D02*
D03*
X233300Y313700D02*
D03*
X165400Y329700D02*
D03*
X221000Y346800D02*
D03*
X205000Y335400D02*
D03*
X175200Y342400D02*
D03*
X158700Y319400D02*
D03*
X213100Y333000D02*
D03*
X209100Y323700D02*
D03*
X219900Y337000D02*
D03*
X184200Y353040D02*
D03*
X206600Y328300D02*
D03*
X206165Y317210D02*
D03*
X198229Y313371D02*
D03*
X194000Y314100D02*
D03*
X184300Y332300D02*
D03*
X180653Y331644D02*
D03*
X163500Y335700D02*
D03*
X160300Y345100D02*
D03*
X163300Y286900D02*
D03*
D48*
X253600Y405500D02*
D03*
X202200D02*
D03*
X160100Y404800D02*
D03*
X271500Y329800D02*
D03*
M02*
