M48
;Layer_Color=9474304
;FILE_FORMAT=2:4
INCH,TZ
;TYPE=PLATED
T01F00S00C0.0118
T02F00S00C0.0390
T03F00S00C0.0402
T04F00S00C0.1378
%
T01
X17040Y22970
X19040Y23280
X19460Y30440
X16330Y28690
X15040Y34430
X16030Y34510
X16350Y33570
X16540Y32970
X16730Y32530
X16740Y31580
X16320Y31640
X16300Y31290
X16290Y32010
X15870Y31940
X17640Y31670
X17400Y31360
X19030Y31280
X19400Y31410
X19823Y31337
X20617Y31721
X20910Y32370
X20660Y32830
X20500Y33540
X21310Y33300
X21990Y33700
X22100Y34680
X18940Y35380
X18420Y35304
X18780Y35870
X19260Y36129
X17900Y36280
X17380Y37960
X17520Y34240
X18065Y33164
X18430Y33230
X23330Y31370
X21010Y39028
T02
X25190Y23730
X26174
X27159
X27640Y29710
Y30694
T03
X15290Y28690
Y29690
Y30690
Y31690
T04
X16010Y40480
X20220Y40550
X25360
X27150Y32980
M30
