G04*
G04 #@! TF.GenerationSoftware,Altium Limited,Altium Designer,23.8.1 (32)*
G04*
G04 Layer_Color=16711935*
%FSLAX25Y25*%
%MOIN*%
G70*
G04*
G04 #@! TF.SameCoordinates,BB991CD9-E61E-4A70-A8D9-3A71C13EE87A*
G04*
G04*
G04 #@! TF.FilePolarity,Positive*
G04*
G01*
G75*
%ADD10C,0.00787*%
%ADD12C,0.00500*%
%ADD13C,0.01000*%
%ADD14C,0.00300*%
%ADD62C,0.00000*%
%ADD63C,0.00100*%
G36*
X260524Y175626D02*
X255799D01*
Y177594D01*
X260524D01*
Y175626D01*
D02*
G37*
G36*
Y169720D02*
X255799D01*
Y171689D01*
X260524D01*
Y169720D01*
D02*
G37*
G36*
X371296Y128938D02*
X369328D01*
Y133662D01*
X371296D01*
Y128938D01*
D02*
G37*
G36*
X365390D02*
X363422D01*
Y133662D01*
X365390D01*
Y128938D01*
D02*
G37*
G36*
X217949Y31338D02*
X215980D01*
Y36062D01*
X217949D01*
Y31338D01*
D02*
G37*
G36*
X212043D02*
X210075D01*
Y36062D01*
X212043D01*
Y31338D01*
D02*
G37*
D10*
X248205Y155224D02*
X247418D01*
X248205D01*
X140957Y105016D02*
X140170D01*
X140957D01*
X275590Y194173D02*
X274803D01*
X275590D01*
X168068Y62000D02*
X167280D01*
X168068D01*
X197106Y114976D02*
X196318D01*
X197106D01*
X157106Y45250D02*
X156318D01*
X157106D01*
X255799Y169720D02*
X260524D01*
Y177594D01*
X255799D02*
X260524D01*
X255799Y169720D02*
Y177594D01*
X210075Y31338D02*
Y36062D01*
Y31338D02*
X217949D01*
Y36062D01*
X210075D02*
X217949D01*
X371296Y128938D02*
Y133662D01*
X363422D02*
X371296D01*
X363422Y128938D02*
Y133662D01*
Y128938D02*
X371296D01*
D12*
X244465Y149830D02*
X251158D01*
Y138570D02*
Y149830D01*
X244465Y138570D02*
X251158D01*
X244465D02*
Y149830D01*
X147650Y80705D02*
Y106295D01*
X164973D01*
Y80705D02*
Y106295D01*
X147650Y80705D02*
X164973D01*
X176457Y212205D02*
X184961D01*
X176457Y206693D02*
X184961D01*
Y212205D01*
X176457Y206693D02*
Y212205D01*
X191457D02*
X199961D01*
X191457Y206693D02*
X199961D01*
Y212205D01*
X191457Y206693D02*
Y212205D01*
X278983Y217361D02*
Y222872D01*
X270479Y217361D02*
Y222872D01*
X278983D01*
X270479Y217361D02*
X278983D01*
X265145D02*
Y222872D01*
X256641Y217361D02*
Y222872D01*
X265145D01*
X256641Y217361D02*
X265145D01*
X262795Y209134D02*
X268307D01*
X262795Y200630D02*
X268307D01*
X262795D02*
Y209134D01*
X268307Y200630D02*
Y209134D01*
X273032Y200079D02*
X285236D01*
X273032D02*
Y207165D01*
X285236D01*
Y200079D02*
Y207165D01*
X253543Y200630D02*
X259055D01*
X253543Y209134D02*
X259055D01*
Y200630D02*
Y209134D01*
X253543Y200630D02*
Y209134D01*
X263405Y177909D02*
X268917D01*
X263405Y169406D02*
X268917D01*
X263405D02*
Y177909D01*
X268917Y169406D02*
Y177909D01*
X240531Y219291D02*
Y224803D01*
X232028Y219291D02*
Y224803D01*
X240531D01*
X232028Y219291D02*
X240531D01*
X107677Y168236D02*
X110827D01*
X107677D02*
X109252Y165087D01*
X110827Y168236D01*
X748Y30768D02*
X113307D01*
X748Y163917D02*
X113307D01*
Y30768D02*
Y163917D01*
X748Y30768D02*
Y163917D01*
Y195768D01*
X241260Y187894D02*
Y193406D01*
X232756Y187894D02*
Y193406D01*
X241260D01*
X232756Y187894D02*
X241260D01*
X230656Y148550D02*
X236168D01*
X230656Y140046D02*
X236168D01*
X230656D02*
Y148550D01*
X236168Y140046D02*
Y148550D01*
X282795Y165059D02*
Y170571D01*
X274291Y165059D02*
Y170571D01*
X282795D01*
X274291Y165059D02*
X282795D01*
X291634Y155295D02*
X297146D01*
X291634Y146791D02*
X297146D01*
X291634D02*
Y155295D01*
X297146Y146791D02*
Y155295D01*
X294508Y133661D02*
Y139173D01*
X286004Y133661D02*
Y139173D01*
X294508D01*
X286004Y133661D02*
X294508D01*
X218164Y39844D02*
Y45356D01*
X209660Y39844D02*
Y45356D01*
X218164D01*
X209660Y39844D02*
X218164D01*
X176457Y182382D02*
Y187894D01*
X184961Y182382D02*
Y187894D01*
X176457Y182382D02*
X184961D01*
X176457Y187894D02*
X184961D01*
X183064Y114544D02*
Y120056D01*
X174560Y114544D02*
Y120056D01*
X183064D01*
X174560Y114544D02*
X183064D01*
X221106Y148550D02*
X226618D01*
X221106Y140046D02*
X226618D01*
X221106D02*
Y148550D01*
X226618Y140046D02*
Y148550D01*
X211556D02*
X217068D01*
X211556Y140046D02*
X217068D01*
X211556D02*
Y148550D01*
X217068Y140046D02*
Y148550D01*
X173068Y58654D02*
Y65346D01*
X184328D01*
Y58654D02*
Y65346D01*
X173068Y58654D02*
X184328D01*
X181979Y74044D02*
Y79556D01*
X190483Y74044D02*
Y79556D01*
X181979Y74044D02*
X190483D01*
X181979Y79556D02*
X190483D01*
X193365Y120370D02*
X200058D01*
X193365D02*
Y131630D01*
X200058D01*
Y120370D02*
Y131630D01*
X196056Y83629D02*
X201568D01*
X196056Y92133D02*
X201568D01*
Y83629D02*
Y92133D01*
X196056Y83629D02*
Y92133D01*
X195177Y71673D02*
X200689D01*
X195177Y63169D02*
X200689D01*
X195177D02*
Y71673D01*
X200689Y63169D02*
Y71673D01*
X183554Y85144D02*
Y90656D01*
X192057Y85144D02*
Y90656D01*
X183554Y85144D02*
X192057D01*
X183554Y90656D02*
X192057D01*
Y94244D02*
Y99756D01*
X183554Y94244D02*
Y99756D01*
X192057D01*
X183554Y94244D02*
X192057D01*
X350183Y116367D02*
Y124871D01*
X355695Y116367D02*
Y124871D01*
X350183D02*
X355695D01*
X350183Y116367D02*
X355695D01*
X363107Y137244D02*
Y142756D01*
X371611Y137244D02*
Y142756D01*
X363107Y137244D02*
X371611D01*
X363107Y142756D02*
X371611D01*
X149541Y71944D02*
Y77456D01*
X158045Y71944D02*
Y77456D01*
X149541Y71944D02*
X158045D01*
X149541Y77456D02*
X158045D01*
X149541Y63444D02*
Y68956D01*
X158045Y63444D02*
Y68956D01*
X149541Y63444D02*
X158045D01*
X149541Y68956D02*
X158045D01*
X133071Y90052D02*
X138583D01*
X133071Y81548D02*
X138583D01*
X133071D02*
Y90052D01*
X138583Y81548D02*
Y90052D01*
Y101299D02*
Y109803D01*
X133071Y101299D02*
Y109803D01*
Y101299D02*
X138583D01*
X133071Y109803D02*
X138583D01*
X191457Y182382D02*
Y187894D01*
X199961Y182382D02*
Y187894D01*
X191457Y182382D02*
X199961D01*
X191457Y187894D02*
X199961D01*
X154035Y50457D02*
Y57543D01*
X159389D01*
Y50457D02*
Y57543D01*
X154035Y50457D02*
X159389D01*
D13*
X2953Y172146D02*
X7951D01*
Y174645D01*
X7118Y175478D01*
X5452D01*
X4619Y174645D01*
Y172146D01*
X7118Y180476D02*
X7951Y179643D01*
Y177977D01*
X7118Y177144D01*
X3786D01*
X2953Y177977D01*
Y179643D01*
X3786Y180476D01*
X7951Y182142D02*
X2953D01*
Y184642D01*
X3786Y185475D01*
X4619D01*
X5452Y184642D01*
Y182142D01*
Y184642D01*
X6285Y185475D01*
X7118D01*
X7951Y184642D01*
Y182142D01*
Y195472D02*
Y192139D01*
X2953D01*
Y195472D01*
X5452Y192139D02*
Y193805D01*
X7951Y200470D02*
X2953D01*
Y197971D01*
X3786Y197138D01*
X5452D01*
X6285Y197971D01*
Y200470D01*
X1287Y203802D02*
Y204635D01*
X2120Y205468D01*
X6285D01*
Y202969D01*
X5452Y202136D01*
X3786D01*
X2953Y202969D01*
Y205468D01*
Y209633D02*
Y207967D01*
X3786Y207134D01*
X5452D01*
X6285Y207967D01*
Y209633D01*
X5452Y210467D01*
X4619D01*
Y207134D01*
D14*
X285617Y154881D02*
X282285Y151549D01*
Y154881D02*
X285617Y151549D01*
X283951Y154881D02*
Y151549D01*
X282285Y153215D02*
X285617D01*
X242113Y207834D02*
X238781Y204502D01*
Y207834D02*
X242113Y204502D01*
X240447Y207834D02*
Y204502D01*
X238781Y206168D02*
X242113D01*
X143946Y133165D02*
X147278Y129833D01*
X143946D02*
X147278Y133165D01*
X143946Y131499D02*
X147278D01*
X145612Y129833D02*
Y133165D01*
D62*
X318879Y114423D02*
X319230Y113574D01*
X320079Y113223D01*
X320927Y113574D01*
X321279Y114423D01*
X286462Y152381D02*
X285613Y152030D01*
X285262Y151181D01*
X285613Y150333D01*
X286462Y149981D01*
X242958Y205334D02*
X242109Y204982D01*
X241758Y204134D01*
X242109Y203285D01*
X242958Y202934D01*
X210745Y198256D02*
X209995Y198688D01*
Y197822D01*
X210745Y198256D01*
X196462Y147500D02*
X195862D01*
X196462D01*
D63*
X306279Y95223D02*
Y114423D01*
X333879D01*
Y95223D02*
Y114423D01*
X306279Y95223D02*
X333879D01*
Y112423D02*
X343879D01*
Y107223D02*
Y112423D01*
X333879Y107223D02*
X343879D01*
X333879D02*
Y112423D01*
Y102423D02*
X343879D01*
Y97223D02*
Y102423D01*
X333879Y97223D02*
X343879D01*
X333879D02*
Y102423D01*
X296279Y97223D02*
X306279D01*
X296279D02*
Y102423D01*
X306279D01*
Y97223D02*
Y102423D01*
X296279Y107223D02*
X306279D01*
X296279D02*
Y112423D01*
X306279D01*
Y107223D02*
Y112423D01*
X283252Y154631D02*
X285252D01*
Y157081D01*
X283252D02*
X285252D01*
X283252Y154631D02*
Y157081D01*
X279512Y154631D02*
X281512D01*
Y157081D01*
X279512D02*
X281512D01*
X279512Y154631D02*
Y157081D01*
X275772Y154631D02*
X277772D01*
Y157081D01*
X275772D02*
X277772D01*
X275772Y154631D02*
Y157081D01*
Y147731D02*
X277772D01*
X275772Y145281D02*
Y147731D01*
Y145281D02*
X277772D01*
Y147731D01*
X283252D02*
X285252D01*
X283252Y145281D02*
Y147731D01*
Y145281D02*
X285252D01*
Y147731D01*
X274562D02*
Y154631D01*
Y147731D02*
X286462D01*
Y154631D01*
X274562D02*
X286462D01*
X239748Y207584D02*
X241748D01*
Y210034D01*
X239748D02*
X241748D01*
X239748Y207584D02*
Y210034D01*
X236008Y207584D02*
X238008D01*
Y210034D01*
X236008D02*
X238008D01*
X236008Y207584D02*
Y210034D01*
X232268Y207584D02*
X234268D01*
Y210034D01*
X232268D02*
X234268D01*
X232268Y207584D02*
Y210034D01*
Y200684D02*
X234268D01*
X232268Y198234D02*
Y200684D01*
Y198234D02*
X234268D01*
Y200684D01*
X239748D02*
X241748D01*
X239748Y198234D02*
Y200684D01*
Y198234D02*
X241748D01*
Y200684D01*
X231058D02*
Y207584D01*
Y200684D02*
X242958D01*
Y207584D01*
X231058D02*
X242958D01*
X209245Y197256D02*
Y210656D01*
X222645D01*
Y197256D02*
Y210656D01*
X209245Y197256D02*
X222645D01*
X212795Y210656D02*
Y210845D01*
X219095D01*
Y210656D02*
Y210845D01*
X212795Y210656D02*
X219095D01*
X222429Y197066D02*
Y197256D01*
X217729Y197066D02*
X222429D01*
X217729D02*
Y197256D01*
X222429D01*
X214161Y197066D02*
Y197256D01*
X209461Y197066D02*
X214161D01*
X209461D02*
Y197256D01*
X214161D01*
X98895Y217733D02*
X129995D01*
X98895Y200833D02*
Y217733D01*
Y200833D02*
X129995D01*
Y217733D01*
X61095D02*
X92195D01*
X61095Y200833D02*
Y217733D01*
Y200833D02*
X92195D01*
Y217733D01*
X129995Y176667D02*
Y193567D01*
X98895Y176667D02*
X129995D01*
X98895D02*
Y193567D01*
X129995D01*
X167795Y176666D02*
Y193566D01*
X136695Y176666D02*
X167795D01*
X136695D02*
Y193566D01*
X167795D01*
X136695Y217733D02*
X167795D01*
X136695Y200833D02*
Y217733D01*
Y200833D02*
X167795D01*
Y217733D01*
X193812Y140800D02*
Y154200D01*
Y140800D02*
X197312D01*
Y154200D01*
X193812D02*
X197312D01*
X181612Y140800D02*
Y154200D01*
X178112D02*
X181612D01*
X178112Y140800D02*
Y154200D01*
Y140800D02*
X181612D01*
X178112Y154200D02*
X197312D01*
X178112Y140800D02*
Y154200D01*
Y140800D02*
X197312D01*
Y154200D01*
X92195Y176667D02*
Y193567D01*
X61095Y176667D02*
X92195D01*
X61095D02*
Y193567D01*
X92195D01*
X204962Y100600D02*
X254162D01*
X204962Y51400D02*
Y100600D01*
Y51400D02*
X254162D01*
Y100600D01*
X141212Y130500D02*
Y154500D01*
X167212D01*
Y130500D02*
Y154500D01*
X141212Y130500D02*
X167212D01*
X155962Y126500D02*
Y130500D01*
X152462Y126500D02*
X155962D01*
X152462D02*
Y130500D01*
X164978Y113800D02*
Y130500D01*
X161478Y113800D02*
X164978D01*
X161478D02*
Y130500D01*
X164978D01*
X146946Y113800D02*
Y130500D01*
X143446Y113800D02*
X146946D01*
X143446D02*
Y130500D01*
X146946D01*
M02*
