G04*
G04 #@! TF.GenerationSoftware,Altium Limited,Altium Designer,23.8.1 (32)*
G04*
G04 Layer_Physical_Order=1*
G04 Layer_Color=255*
%FSLAX25Y25*%
%MOIN*%
G70*
G04*
G04 #@! TF.SameCoordinates,22D07956-A4C6-4432-BF09-06FBB0FDB0D1*
G04*
G04*
G04 #@! TF.FilePolarity,Positive*
G04*
G01*
G75*
G04:AMPARAMS|DCode=16|XSize=39.37mil|YSize=55.91mil|CornerRadius=4.92mil|HoleSize=0mil|Usage=FLASHONLY|Rotation=90.000|XOffset=0mil|YOffset=0mil|HoleType=Round|Shape=RoundedRectangle|*
%AMROUNDEDRECTD16*
21,1,0.03937,0.04606,0,0,90.0*
21,1,0.02953,0.05591,0,0,90.0*
1,1,0.00984,0.02303,0.01476*
1,1,0.00984,0.02303,-0.01476*
1,1,0.00984,-0.02303,-0.01476*
1,1,0.00984,-0.02303,0.01476*
%
%ADD16ROUNDEDRECTD16*%
G04:AMPARAMS|DCode=17|XSize=39.37mil|YSize=55.91mil|CornerRadius=4.92mil|HoleSize=0mil|Usage=FLASHONLY|Rotation=0.000|XOffset=0mil|YOffset=0mil|HoleType=Round|Shape=RoundedRectangle|*
%AMROUNDEDRECTD17*
21,1,0.03937,0.04606,0,0,0.0*
21,1,0.02953,0.05591,0,0,0.0*
1,1,0.00984,0.01476,-0.02303*
1,1,0.00984,-0.01476,-0.02303*
1,1,0.00984,-0.01476,0.02303*
1,1,0.00984,0.01476,0.02303*
%
%ADD17ROUNDEDRECTD17*%
%ADD18R,0.04724X0.04724*%
%ADD19R,0.06299X0.05906*%
%ADD20R,0.03700X0.09800*%
%ADD21R,0.26200X0.26800*%
%ADD22R,0.03150X0.01772*%
%ADD23R,0.05700X0.13600*%
G04:AMPARAMS|DCode=24|XSize=40.55mil|YSize=20.47mil|CornerRadius=2.56mil|HoleSize=0mil|Usage=FLASHONLY|Rotation=0.000|XOffset=0mil|YOffset=0mil|HoleType=Round|Shape=RoundedRectangle|*
%AMROUNDEDRECTD24*
21,1,0.04055,0.01535,0,0,0.0*
21,1,0.03543,0.02047,0,0,0.0*
1,1,0.00512,0.01772,-0.00768*
1,1,0.00512,-0.01772,-0.00768*
1,1,0.00512,-0.01772,0.00768*
1,1,0.00512,0.01772,0.00768*
%
%ADD24ROUNDEDRECTD24*%
G04:AMPARAMS|DCode=25|XSize=47.64mil|YSize=28.74mil|CornerRadius=2.59mil|HoleSize=0mil|Usage=FLASHONLY|Rotation=0.000|XOffset=0mil|YOffset=0mil|HoleType=Round|Shape=RoundedRectangle|*
%AMROUNDEDRECTD25*
21,1,0.04764,0.02357,0,0,0.0*
21,1,0.04247,0.02874,0,0,0.0*
1,1,0.00517,0.02123,-0.01178*
1,1,0.00517,-0.02123,-0.01178*
1,1,0.00517,-0.02123,0.01178*
1,1,0.00517,0.02123,0.01178*
%
%ADD25ROUNDEDRECTD25*%
G04:AMPARAMS|DCode=26|XSize=47.64mil|YSize=28.74mil|CornerRadius=2.59mil|HoleSize=0mil|Usage=FLASHONLY|Rotation=90.000|XOffset=0mil|YOffset=0mil|HoleType=Round|Shape=RoundedRectangle|*
%AMROUNDEDRECTD26*
21,1,0.04764,0.02357,0,0,90.0*
21,1,0.04247,0.02874,0,0,90.0*
1,1,0.00517,0.01178,0.02123*
1,1,0.00517,0.01178,-0.02123*
1,1,0.00517,-0.01178,-0.02123*
1,1,0.00517,-0.01178,0.02123*
%
%ADD26ROUNDEDRECTD26*%
%ADD27R,0.05709X0.04331*%
%ADD28R,0.04331X0.05709*%
%ADD29R,0.09500X0.20500*%
G04:AMPARAMS|DCode=30|XSize=47.64mil|YSize=23.23mil|CornerRadius=5.81mil|HoleSize=0mil|Usage=FLASHONLY|Rotation=270.000|XOffset=0mil|YOffset=0mil|HoleType=Round|Shape=RoundedRectangle|*
%AMROUNDEDRECTD30*
21,1,0.04764,0.01161,0,0,270.0*
21,1,0.03602,0.02323,0,0,270.0*
1,1,0.01161,-0.00581,-0.01801*
1,1,0.01161,-0.00581,0.01801*
1,1,0.01161,0.00581,0.01801*
1,1,0.01161,0.00581,-0.01801*
%
%ADD30ROUNDEDRECTD30*%
%ADD31R,0.09700X0.06700*%
%ADD32R,0.02000X0.03850*%
%ADD33R,0.09843X0.05200*%
%ADD50C,0.05900*%
%ADD52R,0.07008X0.22362*%
%ADD53C,0.03937*%
%ADD54C,0.01575*%
%ADD55C,0.02362*%
%ADD56C,0.01181*%
%ADD57C,0.02756*%
%ADD58C,0.01968*%
%ADD59C,0.12992*%
%ADD60C,0.11811*%
%ADD61R,0.12992X0.12992*%
%ADD62C,0.17717*%
%ADD63C,0.03937*%
%ADD64C,0.05000*%
%ADD65C,0.01968*%
G36*
X283000Y99500D02*
X213000D01*
X210000Y89500D01*
X206500Y83500D01*
X198000D01*
Y94497D01*
X199900D01*
X200207Y94558D01*
X200468Y94732D01*
X200642Y94993D01*
X200703Y95300D01*
Y108700D01*
X200642Y109007D01*
X200468Y109268D01*
X200207Y109442D01*
X199900Y109503D01*
X198000D01*
Y126000D01*
X77254D01*
X76162Y157140D01*
X76509Y157500D01*
X283000D01*
Y99500D01*
D02*
G37*
G36*
X189500Y109503D02*
X188100D01*
X187793Y109442D01*
X187532Y109268D01*
X187358Y109007D01*
X187297Y108700D01*
Y108500D01*
Y95500D01*
Y95300D01*
X187358Y94993D01*
X187532Y94732D01*
X187793Y94558D01*
X188100Y94497D01*
X189500D01*
Y83500D01*
X150000D01*
Y52000D01*
X138000D01*
Y44500D01*
X123500D01*
Y82500D01*
X77500D01*
Y114000D01*
X189500D01*
Y109503D01*
D02*
G37*
G36*
X167000Y34000D02*
X167500Y33500D01*
X169000D01*
Y14302D01*
X167198Y12500D01*
X152763D01*
X152500Y12763D01*
Y19000D01*
X159000Y19685D01*
Y39000D01*
X167000D01*
Y34000D01*
D02*
G37*
D16*
X256496Y200905D02*
D03*
Y208268D02*
D03*
X353136Y124005D02*
D03*
Y116642D02*
D03*
X196500Y49681D02*
D03*
Y42319D02*
D03*
X256609Y102684D02*
D03*
Y95322D02*
D03*
X247059Y102684D02*
D03*
Y95322D02*
D03*
X237509Y102684D02*
D03*
Y95322D02*
D03*
X247500Y170819D02*
D03*
Y178181D02*
D03*
X133500Y40319D02*
D03*
Y47681D02*
D03*
X181000Y29681D02*
D03*
Y22319D02*
D03*
X265748Y208268D02*
D03*
Y200905D02*
D03*
X295358Y219543D02*
D03*
Y212181D02*
D03*
X278000Y176681D02*
D03*
Y169319D02*
D03*
D17*
X153309Y29405D02*
D03*
X160671D02*
D03*
X147819Y16000D02*
D03*
X155181D02*
D03*
X133500Y30500D02*
D03*
X140862D02*
D03*
X187681Y45000D02*
D03*
X180319D02*
D03*
X239362Y219500D02*
D03*
X232000D02*
D03*
X240886Y190354D02*
D03*
X233524D02*
D03*
X173362Y29500D02*
D03*
X166000D02*
D03*
X180319Y37000D02*
D03*
X187681D02*
D03*
X189500Y75000D02*
D03*
X182138D02*
D03*
X289181Y57000D02*
D03*
X281819D02*
D03*
X177225Y184843D02*
D03*
X184587D02*
D03*
X192225D02*
D03*
X199587D02*
D03*
X260271Y218321D02*
D03*
X252909D02*
D03*
X274109D02*
D03*
X266746D02*
D03*
X184362Y171000D02*
D03*
X177000D02*
D03*
X363875Y139705D02*
D03*
X371237D02*
D03*
X184587Y209154D02*
D03*
X177225D02*
D03*
X199587D02*
D03*
X192225D02*
D03*
D18*
X213563Y185701D02*
D03*
X221437D02*
D03*
D19*
X217500Y198496D02*
D03*
D20*
X154484Y71800D02*
D03*
X172516D02*
D03*
D21*
X163500Y97000D02*
D03*
D22*
X148091Y54602D02*
D03*
Y57161D02*
D03*
Y59720D02*
D03*
Y41807D02*
D03*
Y39248D02*
D03*
Y36689D02*
D03*
X170926D02*
D03*
Y39248D02*
D03*
Y41807D02*
D03*
Y44366D02*
D03*
Y46925D02*
D03*
Y49484D02*
D03*
Y52043D02*
D03*
Y54602D02*
D03*
Y57161D02*
D03*
Y59720D02*
D03*
D23*
X185050Y102000D02*
D03*
X202950D02*
D03*
D24*
X174972Y14000D02*
D03*
X184028D02*
D03*
D25*
X201728Y19500D02*
D03*
X188500D02*
D03*
D26*
X199500Y88728D02*
D03*
Y75500D02*
D03*
X268000Y92386D02*
D03*
Y105614D02*
D03*
D27*
X287358Y212319D02*
D03*
Y219406D02*
D03*
D28*
X281957Y48500D02*
D03*
X289043D02*
D03*
X371099Y131005D02*
D03*
X364013D02*
D03*
D29*
X216150Y63000D02*
D03*
X255850D02*
D03*
D30*
X278000Y196941D02*
D03*
X281740Y187059D02*
D03*
X274260D02*
D03*
D31*
X88142Y184821D02*
D03*
X65542D02*
D03*
X125942D02*
D03*
X103342D02*
D03*
X163742Y184820D02*
D03*
X141142D02*
D03*
Y208987D02*
D03*
X163742D02*
D03*
X65542D02*
D03*
X88142D02*
D03*
X103342D02*
D03*
X125942D02*
D03*
D32*
X240945Y198463D02*
D03*
X233465D02*
D03*
Y209213D02*
D03*
X237205D02*
D03*
X240945D02*
D03*
X263740Y167625D02*
D03*
X256260D02*
D03*
Y178375D02*
D03*
X260000D02*
D03*
X263740D02*
D03*
D33*
X299476Y99528D02*
D03*
Y109528D02*
D03*
X341076Y99528D02*
D03*
Y109528D02*
D03*
D50*
X365136Y89219D02*
D03*
Y99062D02*
D03*
Y108905D02*
D03*
X279157Y31000D02*
D03*
X289000D02*
D03*
D52*
X163509Y48205D02*
D03*
D53*
X189500Y49650D02*
Y75000D01*
X190327Y49681D02*
X196500D01*
X189500Y75000D02*
X199500D01*
X209650D01*
X187681Y45000D02*
Y49583D01*
X294806Y206806D02*
Y212181D01*
X264921Y195921D02*
Y200905D01*
X231500Y193205D02*
Y198500D01*
X217500Y198496D02*
X217504Y198500D01*
X231500D01*
Y193205D02*
X233524Y191181D01*
Y190354D02*
Y191181D01*
X289500Y136885D02*
X294000Y141385D01*
X289500Y101834D02*
Y136885D01*
Y101834D02*
X291806Y99528D01*
X299476D01*
X89764Y57677D02*
X109449D01*
X371237Y138878D02*
Y152457D01*
X377622Y138878D02*
X384735Y131765D01*
X371237Y138878D02*
X377622D01*
X365136Y108905D02*
X384735Y128504D01*
Y131765D01*
X363875Y131142D02*
Y139705D01*
Y131142D02*
X364013Y131005D01*
X353136Y124005D02*
Y144636D01*
X363263Y154763D01*
X368931D02*
X371237Y152457D01*
X363263Y154763D02*
X368931D01*
X353136Y116642D02*
X358568D01*
X370902Y128977D01*
Y130808D01*
X371099Y131005D01*
X343397Y109528D02*
X350512Y116642D01*
X341076Y109528D02*
X343397D01*
X350512Y116642D02*
X353136D01*
Y111062D02*
X365136Y99062D01*
X353136Y111062D02*
Y116642D01*
X343397Y99528D02*
X353706Y89219D01*
X365136D01*
X341076Y99528D02*
X343397D01*
X76823Y57677D02*
X89764D01*
X25500Y109000D02*
Y173343D01*
Y109000D02*
X76823Y57677D01*
X249352Y219148D02*
X252909D01*
X240886Y185806D02*
Y189527D01*
X254812Y173000D02*
X257707D01*
X260000Y175293D01*
X252631Y170819D02*
X254812Y173000D01*
X247500Y170819D02*
X252631D01*
X199587Y181107D02*
X209875Y170819D01*
X247500D01*
X199587Y181107D02*
Y184843D01*
X184362Y170173D02*
X185189D01*
X189862Y165500D01*
X184362Y170173D02*
Y171000D01*
X189862Y165500D02*
X222212D01*
X177225Y184820D02*
Y191194D01*
X179531Y193500D01*
X203776D01*
X285646Y183500D02*
X287500D01*
X278000Y176681D02*
X278827D01*
X285646Y183500D01*
X294000Y141385D02*
Y167000D01*
X247500Y161000D02*
X276500Y132000D01*
X247500Y161000D02*
Y170819D01*
X284000Y170000D02*
X295358Y181358D01*
Y212181D01*
X273847Y187472D02*
X274260Y187059D01*
X269528Y187472D02*
X273847D01*
X269500Y187500D02*
X269528Y187472D01*
X256496Y208268D02*
X265748D01*
X255669D02*
X256496D01*
X265748D02*
X270768D01*
X272500Y210000D01*
X252909Y218321D02*
Y219148D01*
X247000Y221500D02*
X249352Y219148D01*
X177000Y164500D02*
Y171000D01*
X163742Y208987D02*
X177225D01*
Y209154D01*
Y201275D02*
Y208987D01*
Y201275D02*
X177500Y201000D01*
X255000Y162500D02*
Y166365D01*
X256260Y167625D01*
X278000Y169319D02*
X283319D01*
X284000Y170000D01*
X263740Y167625D02*
X267605D01*
X269299Y169319D01*
X278000D01*
X295000Y114003D02*
Y119000D01*
X297154Y109528D02*
X299476D01*
X296523Y110159D02*
X297154Y109528D01*
X296523Y110159D02*
Y112480D01*
X295000Y114003D02*
X296523Y112480D01*
X273000Y163000D02*
X286500D01*
X213563Y185701D02*
X213957Y186094D01*
Y190457D01*
X215500Y192000D01*
X241500Y209000D02*
X254937D01*
X255669Y208268D01*
X267605Y178375D02*
X269299Y176681D01*
X278000D01*
X265000Y178375D02*
X267605D01*
X278413Y197354D02*
X281854D01*
X283500Y199000D01*
X278000Y196941D02*
X278413Y197354D01*
X260271Y218321D02*
X266746D01*
X279284Y212319D02*
X287358D01*
X274109Y217495D02*
X279284Y212319D01*
X274109Y217495D02*
Y218321D01*
X287358Y219406D02*
X287496Y219543D01*
X295358D01*
X292500Y204500D02*
X294806Y206806D01*
Y212181D02*
X295358D01*
X275000Y204500D02*
X292500D01*
X271406Y200905D02*
X275000Y204500D01*
X265748Y200905D02*
X271406D01*
X261500Y192500D02*
X264921Y195921D01*
Y200905D02*
X265748D01*
X250000Y192500D02*
X261500D01*
X244037Y198463D02*
X250000Y192500D01*
X242500Y198463D02*
X244037D01*
X231512Y183500D02*
X238580D01*
X221437Y185701D02*
X221831Y185307D01*
X229705D01*
X231512Y183500D01*
X238580D02*
X240886Y185806D01*
X232000Y218673D02*
Y219500D01*
Y210678D02*
Y218673D01*
X163742Y184820D02*
X177225D01*
X232000Y210678D02*
X232839Y209839D01*
X223959Y210632D02*
X232000Y218673D01*
X219636Y210632D02*
X223959D01*
X203776Y194771D02*
X219636Y210632D01*
X203776Y192225D02*
Y194771D01*
X247500Y178181D02*
X254819D01*
X209194D02*
X247500D01*
X206888Y180487D02*
Y189112D01*
Y180487D02*
X209194Y178181D01*
X203776Y192225D02*
X206888Y189112D01*
X184587Y184843D02*
X192225D01*
X184587Y209154D02*
X192225D01*
X125942Y208987D02*
X141142D01*
X88142D02*
X103342D01*
X125942Y184821D02*
X125942Y184821D01*
X141141D01*
X141142Y184820D01*
X88142Y184821D02*
X103342D01*
X75453Y97047D02*
X89764D01*
X37000Y135500D02*
X75453Y97047D01*
X37000Y135500D02*
Y168000D01*
X53821Y184821D01*
X65542D01*
X60350Y208193D02*
X64748D01*
X65542Y208987D01*
X25500Y173343D02*
X60350Y208193D01*
X276500Y75500D02*
X278007Y73993D01*
X284007D01*
X295500Y62500D01*
Y37500D02*
Y62500D01*
X289000Y31000D02*
X295500Y37500D01*
X289043Y48500D02*
X289181Y48638D01*
Y57000D01*
X276500Y73369D02*
X281819Y68050D01*
Y57000D02*
Y68050D01*
X267000Y66000D02*
X276500Y75500D01*
X267000Y36000D02*
Y66000D01*
X250500Y19500D02*
X267000Y36000D01*
X276500Y75500D02*
Y86500D01*
X201728Y19500D02*
X250500D01*
X268000Y92386D02*
X270614D01*
X276500Y86500D01*
X256609Y95322D02*
X264946D01*
X247059D02*
X256609D01*
X237509D02*
X247059D01*
X264946D02*
X267882Y92386D01*
X268000D01*
Y80650D02*
Y92386D01*
X255850Y63000D02*
Y68500D01*
X268000Y80650D01*
X209650Y75000D02*
X216150Y68500D01*
Y63000D02*
Y68500D01*
X187681Y37827D02*
X191181D01*
X195673Y42319D01*
X187681Y37000D02*
Y37827D01*
X195673Y42319D02*
X196500D01*
X172516Y74613D02*
X172903Y75000D01*
X182138D01*
X172516Y71800D02*
Y74613D01*
X188087Y17613D02*
Y19087D01*
X185249Y14776D02*
X188087Y17613D01*
Y19087D02*
X188500Y19500D01*
X184087Y14776D02*
X185249D01*
X184646Y19500D02*
X188500D01*
X184028Y14000D02*
Y14717D01*
X184087Y14776D01*
X181000Y22319D02*
X181827D01*
X184646Y19500D01*
X145035Y35500D02*
X147500D01*
X140862Y30500D02*
Y31327D01*
X145035Y35500D01*
X133500Y31327D02*
X133500Y31327D01*
Y40319D01*
X133500Y30500D02*
Y31327D01*
D54*
X187681Y49583D02*
X190327D01*
X171024D02*
X187681D01*
X170968Y14000D02*
X174972D01*
X167469Y10500D02*
X170968Y14000D01*
X147993Y41906D02*
X148091Y41807D01*
X145201Y41906D02*
X147993D01*
X144106Y43000D02*
X145201Y41906D01*
X144000Y43000D02*
X144106D01*
X176937Y52043D02*
X177893Y53000D01*
X178000D01*
X170926Y52043D02*
X176937D01*
X167249Y59622D02*
X170828D01*
X170926Y59720D01*
X163509Y55882D02*
X167249Y59622D01*
X163509Y48205D02*
Y55882D01*
X170926Y49484D02*
X171024Y49583D01*
X164788Y49484D02*
X170926D01*
X163509Y47000D02*
Y48205D01*
Y40528D02*
Y47000D01*
X163584Y46925D02*
X170926D01*
X163509Y47000D02*
X163584Y46925D01*
X163509Y48205D02*
X164788Y49484D01*
X171024Y44464D02*
X179783D01*
X170926Y44366D02*
X171024Y44464D01*
X179783D02*
X180319Y45000D01*
X170926Y41807D02*
X176339D01*
X180319Y37827D01*
Y37000D02*
Y37827D01*
X173362Y29500D02*
X177484D01*
X178992Y31008D01*
X176500Y33500D02*
Y35803D01*
X173153Y39150D02*
X176500Y35803D01*
Y33500D02*
X178992Y31008D01*
X173362Y30327D02*
X174543Y31508D01*
X173362Y29500D02*
Y30327D01*
X167647Y67687D02*
X174427Y60907D01*
X155547Y67687D02*
X167647D01*
X173419Y57260D02*
X174427Y58268D01*
Y60907D01*
X171025Y57260D02*
X173419D01*
X154484Y68750D02*
X155547Y67687D01*
X154484Y68750D02*
Y71800D01*
X170926Y57161D02*
X171025Y57260D01*
X174201Y54701D02*
X182138Y62638D01*
X171024Y54701D02*
X174201D01*
X182138Y62638D02*
Y75000D01*
X170926Y54602D02*
X171024Y54701D01*
X179929Y37209D02*
X180138Y37000D01*
X170926Y41807D02*
X171024Y41709D01*
X171025Y39150D02*
X173153D01*
X170926Y39248D02*
X171025Y39150D01*
X163509Y32991D02*
Y40528D01*
Y32991D02*
X164819Y31681D01*
Y30681D02*
Y31681D01*
Y30681D02*
X166000Y29500D01*
X160671Y29405D02*
Y37690D01*
X163509Y40528D01*
X155181Y16827D02*
X160671Y22317D01*
Y29405D01*
X155181Y16000D02*
Y16827D01*
X152492Y10500D02*
X167469D01*
X147819Y15173D02*
Y16000D01*
Y15173D02*
X152492Y10500D01*
X151632Y41709D02*
X154862Y38478D01*
X148190Y41709D02*
X151632D01*
X154862Y34320D02*
Y38478D01*
X154490Y33948D02*
X154862Y34320D01*
X154490Y30586D02*
Y33948D01*
X148091Y41807D02*
X148190Y41709D01*
X153309Y29405D02*
X154490Y30586D01*
X147819Y30618D02*
X152500Y35299D01*
Y37500D01*
X147819Y16000D02*
Y30618D01*
X150850Y39150D02*
X152500Y37500D01*
X148190Y39150D02*
X150850D01*
X148091Y39248D02*
X148190Y39150D01*
D55*
X260000Y178375D02*
X260000Y178375D01*
X260000Y175293D02*
Y178375D01*
X275000Y48500D02*
X281957D01*
X237205Y199000D02*
Y209213D01*
X237461Y194606D02*
X240886Y191181D01*
X237461Y194606D02*
Y196380D01*
X240886Y190354D02*
Y191181D01*
X262174Y182518D02*
X278380D01*
X260181Y178556D02*
Y180525D01*
X281740Y185878D02*
Y187059D01*
X278380Y182518D02*
X281740Y185878D01*
X260181Y180525D02*
X262174Y182518D01*
X260000Y178375D02*
X260181Y178556D01*
X242165Y188740D02*
X242342Y188563D01*
X241673Y188740D02*
X242165D01*
X242342Y188563D02*
X253437D01*
X240886Y189527D02*
Y190020D01*
Y189527D02*
X241673Y188740D01*
X253437Y188563D02*
X259819Y182181D01*
Y178556D02*
X260000Y178375D01*
X259819Y178556D02*
Y182181D01*
D56*
X237205Y197330D02*
Y199000D01*
X240886Y190020D02*
Y190354D01*
D57*
X199587Y209980D02*
X200177Y210571D01*
X201004D02*
X216433Y226000D01*
X199587Y209154D02*
Y209980D01*
X200177Y210571D02*
X201004D01*
X216433Y226000D02*
X237000D01*
X238772Y224228D01*
Y220091D02*
Y224228D01*
Y220091D02*
X239362Y219500D01*
X249467Y200905D02*
X256496D01*
X247373Y203000D02*
X249467Y200905D01*
X241171Y203000D02*
X247373D01*
X237366Y206805D02*
X241171Y203000D01*
X239362Y214453D02*
Y219500D01*
X237205Y212296D02*
X239362Y214453D01*
X237205Y209213D02*
Y212296D01*
D58*
X298456Y99494D02*
X299456D01*
X298456Y99528D02*
X299476D01*
D59*
X89764Y57677D02*
D03*
X109449D02*
D03*
X89764Y97047D02*
D03*
X109449D02*
D03*
D60*
X54331Y158976D02*
D03*
Y35118D02*
D03*
X276500Y132000D02*
D03*
Y75500D02*
D03*
D61*
X89764Y136417D02*
D03*
X109449D02*
D03*
D62*
X368799Y23622D02*
D03*
X373697Y209705D02*
D03*
X39764Y11909D02*
D03*
X30816Y209705D02*
D03*
D63*
X275000Y48500D02*
D03*
X287500Y183500D02*
D03*
X294000Y167000D02*
D03*
X269500Y187500D02*
D03*
X272500Y210000D02*
D03*
X247000Y221500D02*
D03*
X177000Y164500D02*
D03*
X177500Y201000D02*
D03*
X255000Y162500D02*
D03*
X284000Y170000D02*
D03*
X286500Y163000D02*
D03*
X295000Y119000D02*
D03*
X273000Y163000D02*
D03*
X215500Y192000D02*
D03*
X283500Y199000D02*
D03*
X279284Y212319D02*
D03*
D64*
X222500Y165500D02*
D03*
D65*
X144000Y43000D02*
D03*
X178000Y53000D02*
D03*
M02*
