G04*
G04 #@! TF.GenerationSoftware,Altium Limited,Altium Designer,23.8.1 (32)*
G04*
G04 Layer_Color=128*
%FSLAX25Y25*%
%MOIN*%
G70*
G04*
G04 #@! TF.SameCoordinates,BB991CD9-E61E-4A70-A8D9-3A71C13EE87A*
G04*
G04*
G04 #@! TF.FilePolarity,Positive*
G04*
G01*
G75*
%ADD12C,0.00500*%
D12*
X362989Y109200D02*
X366889D01*
X364939Y107250D02*
Y111150D01*
X362989Y99357D02*
X366889D01*
X364939Y97407D02*
Y101307D01*
X362989Y89514D02*
X366889D01*
X364939Y87564D02*
Y91464D01*
X182893Y30020D02*
X186793D01*
X184843Y28070D02*
Y31970D01*
X173050Y30020D02*
X176950D01*
X175000Y28070D02*
Y31970D01*
X361713Y23917D02*
X375492D01*
X368602Y17028D02*
Y30807D01*
X103740Y136713D02*
X114764D01*
X109252Y131201D02*
Y142224D01*
X84055Y136713D02*
X95079D01*
X89567Y131201D02*
Y142224D01*
X103740Y97343D02*
X114764D01*
X109252Y91831D02*
Y102854D01*
X84055Y97343D02*
X95079D01*
X89567Y91831D02*
Y102854D01*
X48228Y35413D02*
X60039D01*
X54134Y29508D02*
Y41319D01*
X48228Y159272D02*
X60039D01*
X54134Y153366D02*
Y165177D01*
X103740Y57972D02*
X114764D01*
X109252Y52461D02*
Y63484D01*
X84055Y57972D02*
X95079D01*
X89567Y52461D02*
Y63484D01*
X366610Y210000D02*
X380390D01*
X373500Y203110D02*
Y216890D01*
X32677Y12205D02*
X46457D01*
X39567Y5315D02*
Y19095D01*
X23730Y210000D02*
X37509D01*
X30620Y203110D02*
Y216890D01*
X196730Y218110D02*
X199530D01*
X198130Y216710D02*
Y219510D01*
X192202Y202264D02*
X195002D01*
X193602Y200864D02*
Y203664D01*
X250076Y220177D02*
X252876D01*
X251476Y218777D02*
Y221577D01*
X178718Y196457D02*
X181518D01*
X180118Y195057D02*
Y197857D01*
X261100Y142400D02*
X263900D01*
X262500Y141000D02*
Y143800D01*
X251000Y142500D02*
X253800D01*
X252400Y141100D02*
Y143900D01*
X288462Y163189D02*
X291262D01*
X289862Y161789D02*
Y164589D01*
X281080Y122835D02*
X283880D01*
X282480Y121435D02*
Y124235D01*
X286198Y206988D02*
X288998D01*
X287598Y205588D02*
Y208388D01*
X288167Y174606D02*
X290967D01*
X289567Y173206D02*
Y176006D01*
X264700Y156200D02*
X267500D01*
X266100Y154800D02*
Y157600D01*
X254400Y161700D02*
X257200D01*
X255800Y160300D02*
Y163100D01*
X272200Y134400D02*
X275000D01*
X273600Y133000D02*
Y135800D01*
X143110Y92323D02*
X144291D01*
X143701Y91732D02*
Y92913D01*
X175591Y97539D02*
X176772D01*
X176181Y96949D02*
Y98130D01*
M02*
