G04*
G04 #@! TF.GenerationSoftware,Altium Limited,Altium Designer,23.8.1 (32)*
G04*
G04 Layer_Color=2752767*
%FSLAX25Y25*%
%MOIN*%
G70*
G04*
G04 #@! TF.SameCoordinates,BB991CD9-E61E-4A70-A8D9-3A71C13EE87A*
G04*
G04*
G04 #@! TF.FilePolarity,Positive*
G04*
G01*
G75*
%ADD12C,0.00500*%
%ADD66C,0.00667*%
D12*
X362939Y107200D02*
Y111200D01*
X366939D01*
Y107200D01*
X362939D01*
Y97357D02*
Y101357D01*
X366939D01*
Y97357D01*
X362939D01*
Y87514D02*
Y91514D01*
X366939D01*
Y87514D01*
X362939D01*
X182843Y28020D02*
Y32020D01*
X186843D01*
Y28020D01*
X182843D01*
X173000D02*
Y32020D01*
X177000D01*
Y28020D01*
X173000D01*
X109252Y134713D02*
X110252Y135713D01*
X111252D01*
X110252Y136713D01*
X111252Y137713D01*
X110252D01*
X109252Y138713D01*
X108252Y137713D01*
X107252D01*
X108252Y136713D01*
X107252Y135713D01*
X108252D01*
X109252Y134713D01*
X89567D02*
X90567Y135713D01*
X91567D01*
X90567Y136713D01*
X91567Y137713D01*
X90567D01*
X89567Y138713D01*
X88567Y137713D01*
X87567D01*
X88567Y136713D01*
X87567Y135713D01*
X88567D01*
X89567Y134713D01*
X109252Y95343D02*
X110252Y96343D01*
X111252D01*
X110252Y97343D01*
X111252Y98343D01*
X110252D01*
X109252Y99343D01*
X108252Y98343D01*
X107252D01*
X108252Y97343D01*
X107252Y96343D01*
X108252D01*
X109252Y95343D01*
X89567D02*
X90567Y96343D01*
X91567D01*
X90567Y97343D01*
X91567Y98343D01*
X90567D01*
X89567Y99343D01*
X88567Y98343D01*
X87567D01*
X88567Y97343D01*
X87567Y96343D01*
X88567D01*
X89567Y95343D01*
X52134Y33413D02*
X53134Y35413D01*
X52134Y37413D01*
X54134Y36413D01*
X56134Y37413D01*
X55134Y35413D01*
X56134Y33413D01*
X54134Y34413D01*
X52134Y33413D01*
Y157272D02*
X53134Y159272D01*
X52134Y161272D01*
X54134Y160272D01*
X56134Y161272D01*
X55134Y159272D01*
X56134Y157272D01*
X54134Y158272D01*
X52134Y157272D01*
X109252Y55972D02*
X110252Y56972D01*
X111252D01*
X110252Y57972D01*
X111252Y58972D01*
X110252D01*
X109252Y59972D01*
X108252Y58972D01*
X107252D01*
X108252Y57972D01*
X107252Y56972D01*
X108252D01*
X109252Y55972D01*
X89567D02*
X90567Y56972D01*
X91567D01*
X90567Y57972D01*
X91567Y58972D01*
X90567D01*
X89567Y59972D01*
X88567Y58972D01*
X87567D01*
X88567Y57972D01*
X87567Y56972D01*
X88567D01*
X89567Y55972D01*
X198130Y216110D02*
X196130Y220110D01*
X200130D01*
X198130Y216110D01*
X193602Y200264D02*
X191602Y204264D01*
X195602D01*
X193602Y200264D01*
X251476Y218177D02*
X249476Y222177D01*
X253476D01*
X251476Y218177D01*
X180118Y194457D02*
X178118Y198457D01*
X182118D01*
X180118Y194457D01*
X262500Y140400D02*
X260500Y144400D01*
X264500D01*
X262500Y140400D01*
X252400Y140500D02*
X250400Y144500D01*
X254400D01*
X252400Y140500D01*
X289862Y161189D02*
X287862Y165189D01*
X291862D01*
X289862Y161189D01*
X282480Y120835D02*
X280480Y124835D01*
X284480D01*
X282480Y120835D01*
X287598Y204988D02*
X285598Y208988D01*
X289598D01*
X287598Y204988D01*
X289567Y172606D02*
X287567Y176606D01*
X291567D01*
X289567Y172606D01*
X266100Y154200D02*
X264100Y158200D01*
X268100D01*
X266100Y154200D01*
X255800Y159700D02*
X253800Y163700D01*
X257800D01*
X255800Y159700D01*
X273600Y132400D02*
X271600Y136400D01*
X275600D01*
X273600Y132400D01*
X142701Y91323D02*
Y90323D01*
X144701D01*
Y91323D01*
X145701D01*
Y93323D01*
X144701D01*
Y94323D01*
X142701D01*
Y93323D01*
X141701D01*
Y91323D01*
X142701D01*
X175181Y96539D02*
Y95539D01*
X177181D01*
Y96539D01*
X178181D01*
Y98539D01*
X177181D01*
Y99539D01*
X175181D01*
Y98539D01*
X174181D01*
Y96539D01*
X175181D01*
D66*
X370602Y23917D02*
X370373Y24847D01*
X369739Y25563D01*
X368844Y25903D01*
X367893Y25787D01*
X367105Y25244D01*
X366660Y24396D01*
Y23439D01*
X367105Y22591D01*
X367893Y22047D01*
X368844Y21932D01*
X369739Y22271D01*
X370373Y22988D01*
X370602Y23917D01*
X375500Y210000D02*
X375271Y210929D01*
X374636Y211646D01*
X373741Y211985D01*
X372791Y211870D01*
X372003Y211326D01*
X371558Y210479D01*
Y209521D01*
X372003Y208674D01*
X372791Y208130D01*
X373741Y208015D01*
X374636Y208354D01*
X375271Y209071D01*
X375500Y210000D01*
X41567Y12205D02*
X41338Y13134D01*
X40703Y13851D01*
X39808Y14190D01*
X38858Y14075D01*
X38070Y13531D01*
X37625Y12683D01*
Y11726D01*
X38070Y10879D01*
X38858Y10335D01*
X39808Y10219D01*
X40703Y10559D01*
X41338Y11275D01*
X41567Y12205D01*
X32620Y210000D02*
X32390Y210929D01*
X31756Y211646D01*
X30861Y211985D01*
X29910Y211870D01*
X29123Y211326D01*
X28678Y210479D01*
Y209521D01*
X29123Y208674D01*
X29910Y208130D01*
X30861Y208015D01*
X31756Y208354D01*
X32390Y209071D01*
X32620Y210000D01*
M02*
