G04*
G04 #@! TF.GenerationSoftware,Altium Limited,Altium Designer,23.8.1 (32)*
G04*
G04 Layer_Color=8421504*
%FSLAX25Y25*%
%MOIN*%
G70*
G04*
G04 #@! TF.SameCoordinates,22D07956-A4C6-4432-BF09-06FBB0FDB0D1*
G04*
G04*
G04 #@! TF.FilePolarity,Positive*
G04*
G01*
G75*
G04:AMPARAMS|DCode=16|XSize=39.37mil|YSize=55.91mil|CornerRadius=4.92mil|HoleSize=0mil|Usage=FLASHONLY|Rotation=90.000|XOffset=0mil|YOffset=0mil|HoleType=Round|Shape=RoundedRectangle|*
%AMROUNDEDRECTD16*
21,1,0.03937,0.04606,0,0,90.0*
21,1,0.02953,0.05591,0,0,90.0*
1,1,0.00984,0.02303,0.01476*
1,1,0.00984,0.02303,-0.01476*
1,1,0.00984,-0.02303,-0.01476*
1,1,0.00984,-0.02303,0.01476*
%
%ADD16ROUNDEDRECTD16*%
G04:AMPARAMS|DCode=17|XSize=39.37mil|YSize=55.91mil|CornerRadius=4.92mil|HoleSize=0mil|Usage=FLASHONLY|Rotation=0.000|XOffset=0mil|YOffset=0mil|HoleType=Round|Shape=RoundedRectangle|*
%AMROUNDEDRECTD17*
21,1,0.03937,0.04606,0,0,0.0*
21,1,0.02953,0.05591,0,0,0.0*
1,1,0.00984,0.01476,-0.02303*
1,1,0.00984,-0.01476,-0.02303*
1,1,0.00984,-0.01476,0.02303*
1,1,0.00984,0.01476,0.02303*
%
%ADD17ROUNDEDRECTD17*%
%ADD18R,0.04724X0.04724*%
%ADD19R,0.06299X0.05906*%
%ADD20R,0.03700X0.09800*%
%ADD21R,0.26200X0.26800*%
%ADD22R,0.03150X0.01772*%
%ADD23R,0.05700X0.13600*%
G04:AMPARAMS|DCode=24|XSize=40.55mil|YSize=20.47mil|CornerRadius=2.56mil|HoleSize=0mil|Usage=FLASHONLY|Rotation=0.000|XOffset=0mil|YOffset=0mil|HoleType=Round|Shape=RoundedRectangle|*
%AMROUNDEDRECTD24*
21,1,0.04055,0.01535,0,0,0.0*
21,1,0.03543,0.02047,0,0,0.0*
1,1,0.00512,0.01772,-0.00768*
1,1,0.00512,-0.01772,-0.00768*
1,1,0.00512,-0.01772,0.00768*
1,1,0.00512,0.01772,0.00768*
%
%ADD24ROUNDEDRECTD24*%
G04:AMPARAMS|DCode=25|XSize=47.64mil|YSize=28.74mil|CornerRadius=2.59mil|HoleSize=0mil|Usage=FLASHONLY|Rotation=0.000|XOffset=0mil|YOffset=0mil|HoleType=Round|Shape=RoundedRectangle|*
%AMROUNDEDRECTD25*
21,1,0.04764,0.02357,0,0,0.0*
21,1,0.04247,0.02874,0,0,0.0*
1,1,0.00517,0.02123,-0.01178*
1,1,0.00517,-0.02123,-0.01178*
1,1,0.00517,-0.02123,0.01178*
1,1,0.00517,0.02123,0.01178*
%
%ADD25ROUNDEDRECTD25*%
G04:AMPARAMS|DCode=26|XSize=47.64mil|YSize=28.74mil|CornerRadius=2.59mil|HoleSize=0mil|Usage=FLASHONLY|Rotation=90.000|XOffset=0mil|YOffset=0mil|HoleType=Round|Shape=RoundedRectangle|*
%AMROUNDEDRECTD26*
21,1,0.04764,0.02357,0,0,90.0*
21,1,0.04247,0.02874,0,0,90.0*
1,1,0.00517,0.01178,0.02123*
1,1,0.00517,0.01178,-0.02123*
1,1,0.00517,-0.01178,-0.02123*
1,1,0.00517,-0.01178,0.02123*
%
%ADD26ROUNDEDRECTD26*%
%ADD27R,0.05709X0.04331*%
%ADD28R,0.04331X0.05709*%
%ADD29R,0.09500X0.20500*%
G04:AMPARAMS|DCode=30|XSize=47.64mil|YSize=23.23mil|CornerRadius=5.81mil|HoleSize=0mil|Usage=FLASHONLY|Rotation=270.000|XOffset=0mil|YOffset=0mil|HoleType=Round|Shape=RoundedRectangle|*
%AMROUNDEDRECTD30*
21,1,0.04764,0.01161,0,0,270.0*
21,1,0.03602,0.02323,0,0,270.0*
1,1,0.01161,-0.00581,-0.01801*
1,1,0.01161,-0.00581,0.01801*
1,1,0.01161,0.00581,0.01801*
1,1,0.01161,0.00581,-0.01801*
%
%ADD30ROUNDEDRECTD30*%
%ADD31R,0.09700X0.06700*%
%ADD32R,0.02000X0.03850*%
%ADD33R,0.09843X0.05200*%
G36*
X163032Y38224D02*
X159686D01*
Y47594D01*
X163032D01*
Y38224D01*
D02*
G37*
G36*
Y48815D02*
X159686D01*
Y58185D01*
X163032D01*
Y48815D01*
D02*
G37*
D16*
X256496Y200905D02*
D03*
Y208268D02*
D03*
X353136Y124005D02*
D03*
Y116642D02*
D03*
X196500Y49681D02*
D03*
Y42319D02*
D03*
X256609Y102684D02*
D03*
Y95322D02*
D03*
X247059Y102684D02*
D03*
Y95322D02*
D03*
X237509Y102684D02*
D03*
Y95322D02*
D03*
X247500Y170819D02*
D03*
Y178181D02*
D03*
X133500Y40319D02*
D03*
Y47681D02*
D03*
X181000Y29681D02*
D03*
Y22319D02*
D03*
X265748Y208268D02*
D03*
Y200905D02*
D03*
X295358Y219543D02*
D03*
Y212181D02*
D03*
X278000Y176681D02*
D03*
Y169319D02*
D03*
D17*
X153309Y29405D02*
D03*
X160671D02*
D03*
X147819Y16000D02*
D03*
X155181D02*
D03*
X133500Y30500D02*
D03*
X140862D02*
D03*
X187681Y45000D02*
D03*
X180319D02*
D03*
X239362Y219500D02*
D03*
X232000D02*
D03*
X240886Y190354D02*
D03*
X233524D02*
D03*
X173362Y29500D02*
D03*
X166000D02*
D03*
X180319Y37000D02*
D03*
X187681D02*
D03*
X189500Y75000D02*
D03*
X182138D02*
D03*
X289181Y57000D02*
D03*
X281819D02*
D03*
X177225Y184843D02*
D03*
X184587D02*
D03*
X192225D02*
D03*
X199587D02*
D03*
X260271Y218321D02*
D03*
X252909D02*
D03*
X274109D02*
D03*
X266746D02*
D03*
X184362Y171000D02*
D03*
X177000D02*
D03*
X363875Y139705D02*
D03*
X371237D02*
D03*
X184587Y209154D02*
D03*
X177225D02*
D03*
X199587D02*
D03*
X192225D02*
D03*
D18*
X213563Y185701D02*
D03*
X221437D02*
D03*
D19*
X217500Y198496D02*
D03*
D20*
X154484Y71800D02*
D03*
X172516D02*
D03*
D21*
X163500Y97000D02*
D03*
D22*
X148091Y54602D02*
D03*
Y57161D02*
D03*
Y59720D02*
D03*
Y41807D02*
D03*
Y39248D02*
D03*
Y36689D02*
D03*
X170926D02*
D03*
Y39248D02*
D03*
Y41807D02*
D03*
Y44366D02*
D03*
Y46925D02*
D03*
Y49484D02*
D03*
Y52043D02*
D03*
Y54602D02*
D03*
Y57161D02*
D03*
Y59720D02*
D03*
D23*
X185050Y102000D02*
D03*
X202950D02*
D03*
D24*
X174972Y14000D02*
D03*
X184028D02*
D03*
D25*
X201728Y19500D02*
D03*
X188500D02*
D03*
D26*
X199500Y88728D02*
D03*
Y75500D02*
D03*
X268000Y92386D02*
D03*
Y105614D02*
D03*
D27*
X287358Y212319D02*
D03*
Y219406D02*
D03*
D28*
X281957Y48500D02*
D03*
X289043D02*
D03*
X371099Y131005D02*
D03*
X364013D02*
D03*
D29*
X216150Y63000D02*
D03*
X255850D02*
D03*
D30*
X278000Y196941D02*
D03*
X281740Y187059D02*
D03*
X274260D02*
D03*
D31*
X88142Y184821D02*
D03*
X65542D02*
D03*
X125942D02*
D03*
X103342D02*
D03*
X163742Y184820D02*
D03*
X141142D02*
D03*
Y208987D02*
D03*
X163742D02*
D03*
X65542D02*
D03*
X88142D02*
D03*
X103342D02*
D03*
X125942D02*
D03*
D32*
X240945Y198463D02*
D03*
X233465D02*
D03*
Y209213D02*
D03*
X237205D02*
D03*
X240945D02*
D03*
X263740Y167625D02*
D03*
X256260D02*
D03*
Y178375D02*
D03*
X260000D02*
D03*
X263740D02*
D03*
D33*
X299476Y99528D02*
D03*
Y109528D02*
D03*
X341076Y99528D02*
D03*
Y109528D02*
D03*
M02*
