G04*
G04 #@! TF.GenerationSoftware,Altium Limited,Altium Designer,23.8.1 (32)*
G04*
G04 Layer_Color=32896*
%FSLAX25Y25*%
%MOIN*%
G70*
G04*
G04 #@! TF.SameCoordinates,C406F027-57D3-470C-AF7C-978D06EE9A25*
G04*
G04*
G04 #@! TF.FilePolarity,Positive*
G04*
G01*
G75*
%ADD14C,0.01000*%
G36*
X141194Y131171D02*
X142192D01*
Y130971D01*
X142791D01*
Y130772D01*
X143191D01*
Y130572D01*
X143790D01*
Y130372D01*
X144189D01*
Y130173D01*
X144588D01*
Y129973D01*
X144788D01*
Y129773D01*
X145187D01*
Y129574D01*
X145387D01*
Y129374D01*
X145586D01*
Y129174D01*
X145986D01*
Y128975D01*
X146185D01*
Y128775D01*
X146385D01*
Y128576D01*
X146584D01*
Y128376D01*
X146784D01*
Y128176D01*
X146984D01*
Y127977D01*
X147183D01*
Y127577D01*
X147383D01*
Y127378D01*
X147583D01*
Y127178D01*
X147782D01*
Y126779D01*
X147982D01*
Y126579D01*
X148781D01*
Y126779D01*
X154171D01*
Y126180D01*
X153971D01*
Y124982D01*
X153772D01*
Y123984D01*
X153572D01*
Y123385D01*
X151975D01*
Y123185D01*
X149380D01*
Y122786D01*
X152973D01*
Y122986D01*
X157166D01*
Y121788D01*
X156966D01*
Y120590D01*
X156766D01*
Y119592D01*
X159761D01*
Y119791D01*
X162955D01*
Y119592D01*
X162556D01*
Y119392D01*
X161957D01*
Y119193D01*
X161557D01*
Y118993D01*
X160959D01*
Y118793D01*
X160360D01*
Y118594D01*
X159960D01*
Y118394D01*
X159362D01*
Y118194D01*
X158962D01*
Y117995D01*
X158363D01*
Y117795D01*
X157764D01*
Y117595D01*
X157365D01*
Y117396D01*
X156766D01*
Y117196D01*
X156367D01*
Y116996D01*
X155768D01*
Y116797D01*
X155169D01*
Y116597D01*
X154770D01*
Y116398D01*
X154171D01*
Y116198D01*
X153572D01*
Y115998D01*
X153173D01*
Y115799D01*
X152773D01*
Y116797D01*
X152973D01*
Y117995D01*
X153173D01*
Y118993D01*
X153372D01*
Y119392D01*
X149380D01*
Y119193D01*
X149180D01*
Y118793D01*
X149380D01*
Y118993D01*
X152773D01*
Y118594D01*
X152574D01*
Y117595D01*
X152374D01*
Y116597D01*
X152174D01*
Y115599D01*
X147583D01*
Y115399D01*
X147383D01*
Y115200D01*
X147183D01*
Y115000D01*
X146984D01*
Y114800D01*
X146784D01*
Y114401D01*
X146584D01*
Y114201D01*
X146185D01*
Y114002D01*
X145986D01*
Y113802D01*
X145786D01*
Y113602D01*
X145586D01*
Y113403D01*
X145387D01*
Y113203D01*
X144987D01*
Y113004D01*
X144788D01*
Y112804D01*
X144388D01*
Y112604D01*
X143989D01*
Y112405D01*
X143590D01*
Y112205D01*
X143191D01*
Y112005D01*
X142592D01*
Y111806D01*
X141993D01*
Y111606D01*
X140795D01*
Y111407D01*
X138000D01*
Y111606D01*
X137002D01*
Y111806D01*
X136403D01*
Y112005D01*
X135804D01*
Y112205D01*
X135405D01*
Y112405D01*
X135005D01*
Y112604D01*
X134606D01*
Y112804D01*
X134207D01*
Y113004D01*
X133808D01*
Y113203D01*
X133608D01*
Y113403D01*
X133408D01*
Y113602D01*
X133009D01*
Y113802D01*
X132809D01*
Y114002D01*
X132610D01*
Y114201D01*
X132410D01*
Y114401D01*
X132210D01*
Y114601D01*
X132011D01*
Y114800D01*
X131811D01*
Y115200D01*
X131612D01*
Y115399D01*
X131412D01*
Y115599D01*
X131212D01*
Y115998D01*
X131013D01*
Y116198D01*
X130813D01*
Y116597D01*
X130613D01*
Y116996D01*
X130414D01*
Y117396D01*
X130214D01*
Y117795D01*
X130014D01*
Y118394D01*
X129815D01*
Y118793D01*
Y118993D01*
Y119193D01*
X129615D01*
Y120390D01*
X129416D01*
Y122387D01*
X129615D01*
Y123584D01*
X129815D01*
Y124383D01*
X130014D01*
Y124982D01*
X130214D01*
Y125381D01*
X130414D01*
Y125980D01*
X130613D01*
Y126180D01*
X130813D01*
Y126579D01*
X131013D01*
Y126978D01*
X131212D01*
Y127178D01*
X131412D01*
Y127577D01*
X131612D01*
Y127777D01*
X131811D01*
Y127977D01*
X132011D01*
Y128176D01*
X132210D01*
Y128376D01*
X132410D01*
Y128576D01*
X132610D01*
Y128775D01*
X132809D01*
Y128975D01*
X133009D01*
Y129174D01*
X133209D01*
Y129374D01*
X133608D01*
Y129574D01*
X133808D01*
Y129773D01*
X134207D01*
Y129973D01*
X134406D01*
Y130173D01*
X134806D01*
Y130372D01*
X135205D01*
Y130572D01*
X135604D01*
Y130772D01*
X136203D01*
Y130971D01*
X136802D01*
Y131171D01*
X137800D01*
Y131370D01*
X141194D01*
Y131171D01*
D02*
G37*
%LPC*%
G36*
X139996Y127977D02*
X138799D01*
Y127777D01*
X137800D01*
Y127577D01*
X137201D01*
Y127378D01*
X136602D01*
Y127178D01*
X136203D01*
Y126978D01*
X136004D01*
Y126779D01*
X135604D01*
Y126579D01*
X135405D01*
Y126380D01*
X135205D01*
Y126180D01*
X135005D01*
Y125980D01*
X134806D01*
Y125781D01*
X134606D01*
Y125581D01*
X134406D01*
Y125381D01*
X134207D01*
Y124982D01*
X134007D01*
Y124782D01*
X133808D01*
Y124383D01*
X133608D01*
Y123984D01*
X133408D01*
Y123385D01*
X133209D01*
Y122786D01*
X133009D01*
Y120191D01*
X133209D01*
Y119392D01*
X133408D01*
Y118793D01*
X133608D01*
Y118394D01*
X133808D01*
Y117995D01*
X134007D01*
Y117795D01*
X134207D01*
Y117396D01*
X134406D01*
Y117196D01*
X134606D01*
Y116996D01*
X134806D01*
Y116797D01*
X135005D01*
Y116597D01*
X135205D01*
Y116398D01*
X135405D01*
Y116198D01*
X135804D01*
Y115998D01*
X136004D01*
Y115799D01*
X136403D01*
Y115599D01*
X136802D01*
Y115399D01*
X137401D01*
Y115200D01*
X138000D01*
Y115000D01*
X140995D01*
Y115200D01*
X141594D01*
Y115399D01*
X142192D01*
Y115599D01*
X142592D01*
Y115799D01*
X142791D01*
Y115998D01*
X143191D01*
Y116198D01*
X143390D01*
Y116398D01*
X143790D01*
Y116597D01*
X143989D01*
Y116797D01*
X144189D01*
Y116996D01*
X144388D01*
Y117396D01*
X144588D01*
Y117595D01*
X144788D01*
Y117795D01*
X144987D01*
Y118194D01*
X145187D01*
Y118594D01*
X145387D01*
Y118993D01*
X145586D01*
Y119193D01*
Y119592D01*
X145786D01*
Y120390D01*
X145986D01*
Y122387D01*
X145786D01*
Y123185D01*
X145586D01*
Y123784D01*
X145387D01*
Y124383D01*
X145187D01*
Y124583D01*
X144987D01*
Y124982D01*
X144788D01*
Y125182D01*
X144588D01*
Y125581D01*
X144388D01*
Y125781D01*
X144189D01*
Y125980D01*
X143989D01*
Y126180D01*
X143790D01*
Y126380D01*
X143590D01*
Y126579D01*
X143191D01*
Y126779D01*
X142991D01*
Y126978D01*
X142592D01*
Y127178D01*
X142192D01*
Y127378D01*
X141793D01*
Y127577D01*
X141194D01*
Y127777D01*
X139996D01*
Y127977D01*
D02*
G37*
%LPD*%
G36*
X143790Y122187D02*
X143989D01*
Y121987D01*
X144189D01*
Y121788D01*
X144388D01*
Y121388D01*
X144588D01*
Y120191D01*
X144388D01*
Y119791D01*
X144189D01*
Y119592D01*
X143989D01*
Y119392D01*
X143590D01*
Y119193D01*
X142392D01*
Y119392D01*
X141993D01*
Y119592D01*
X141793D01*
Y119791D01*
X141594D01*
Y120191D01*
X141394D01*
Y121388D01*
X141594D01*
Y121788D01*
X141793D01*
Y121987D01*
X141993D01*
Y122187D01*
X142192D01*
Y122387D01*
X143790D01*
Y122187D01*
D02*
G37*
D14*
X154000Y128500D02*
X242000Y128500D01*
X241500Y142248D02*
Y138312D01*
X238876D01*
X235596D02*
X236908D01*
X237564Y138968D01*
Y140280D01*
X236908Y140936D01*
X235596D01*
X234940Y140280D01*
Y139624D01*
X237564D01*
X233629Y138312D02*
X232317D01*
X232973D01*
Y140936D01*
X233629D01*
X230349D02*
Y138312D01*
Y139624D01*
X229693Y140280D01*
X229037Y140936D01*
X228381D01*
X226413Y138312D02*
X225101D01*
X225757D01*
Y140936D01*
X226413D01*
X222477D02*
X221165D01*
X220509Y140280D01*
Y138312D01*
X222477D01*
X223133Y138968D01*
X222477Y139624D01*
X220509D01*
X215262Y138312D02*
Y140936D01*
X213950Y142248D01*
X212638Y140936D01*
Y138312D01*
Y140280D01*
X215262D01*
X208702Y140936D02*
X210670D01*
X211326Y140280D01*
Y138968D01*
X210670Y138312D01*
X208702D01*
X206734Y140936D02*
X205422D01*
X204766Y140280D01*
Y138312D01*
X206734D01*
X207390Y138968D01*
X206734Y139624D01*
X204766D01*
X200831Y142248D02*
Y138312D01*
X202799D01*
X203454Y138968D01*
Y140280D01*
X202799Y140936D01*
X200831D01*
X197551Y138312D02*
X198863D01*
X199519Y138968D01*
Y140280D01*
X198863Y140936D01*
X197551D01*
X196895Y140280D01*
Y139624D01*
X199519D01*
X195583Y138312D02*
Y140936D01*
X194927D01*
X194271Y140280D01*
Y138312D01*
Y140280D01*
X193615Y140936D01*
X192959Y140280D01*
Y138312D01*
X191647D02*
X190335D01*
X190991D01*
Y140936D01*
X191647D01*
X185744D02*
X187712D01*
X188367Y140280D01*
Y138968D01*
X187712Y138312D01*
X185744D01*
X180496D02*
Y142248D01*
X178528D01*
X177872Y141592D01*
Y140280D01*
X178528Y139624D01*
X180496D01*
X179184D02*
X177872Y138312D01*
X175904Y140936D02*
X174592D01*
X173936Y140280D01*
Y138312D01*
X175904D01*
X176560Y138968D01*
X175904Y139624D01*
X173936D01*
X170001Y140936D02*
X171969D01*
X172625Y140280D01*
Y138968D01*
X171969Y138312D01*
X170001D01*
X168689D02*
X167377D01*
X168033D01*
Y140936D01*
X168689D01*
X165409Y138312D02*
Y140936D01*
X163441D01*
X162785Y140280D01*
Y138312D01*
X160161Y137000D02*
X159505D01*
X158850Y137656D01*
Y140936D01*
X160817D01*
X161473Y140280D01*
Y138968D01*
X160817Y138312D01*
X158850D01*
X153602Y142248D02*
X150978D01*
X152290D01*
Y138312D01*
X147698D02*
X149010D01*
X149666Y138968D01*
Y140280D01*
X149010Y140936D01*
X147698D01*
X147042Y140280D01*
Y139624D01*
X149666D01*
X145074Y140936D02*
X143763D01*
X143106Y140280D01*
Y138312D01*
X145074D01*
X145730Y138968D01*
X145074Y139624D01*
X143106D01*
X141795Y138312D02*
Y140936D01*
X141139D01*
X140483Y140280D01*
Y138312D01*
Y140280D01*
X139827Y140936D01*
X139171Y140280D01*
Y138312D01*
X238876Y117280D02*
X239532Y117936D01*
X240844D01*
X241500Y117280D01*
Y114656D01*
X240844Y114000D01*
X239532D01*
X238876Y114656D01*
Y115968D01*
X240188D01*
X237564Y116624D02*
Y114656D01*
X236908Y114000D01*
X234940D01*
Y116624D01*
X233629Y114000D02*
X232317D01*
X232973D01*
Y116624D01*
X233629D01*
X230349Y114000D02*
X229037D01*
X229693D01*
Y117936D01*
X230349D01*
X227069D02*
Y114000D01*
Y115968D01*
X226413Y116624D01*
X225101D01*
X224445Y115968D01*
Y114000D01*
X221165D02*
X222477D01*
X223133Y114656D01*
Y115968D01*
X222477Y116624D01*
X221165D01*
X220509Y115968D01*
Y115312D01*
X223133D01*
X219198Y116624D02*
Y114000D01*
Y115312D01*
X218542Y115968D01*
X217886Y116624D01*
X217230D01*
X215262Y114000D02*
Y116624D01*
X214606D01*
X213950Y115968D01*
Y114000D01*
Y115968D01*
X213294Y116624D01*
X212638Y115968D01*
Y114000D01*
X209358D02*
X210670D01*
X211326Y114656D01*
Y115968D01*
X210670Y116624D01*
X209358D01*
X208702Y115968D01*
Y115312D01*
X211326D01*
X200831Y117280D02*
X201487Y117936D01*
X202799D01*
X203454Y117280D01*
Y114656D01*
X202799Y114000D01*
X201487D01*
X200831Y114656D01*
X198863Y116624D02*
X197551D01*
X196895Y115968D01*
Y114000D01*
X198863D01*
X199519Y114656D01*
X198863Y115312D01*
X196895D01*
X195583Y114000D02*
Y116624D01*
X193615D01*
X192959Y115968D01*
Y114000D01*
X189023Y117936D02*
Y114000D01*
X190991D01*
X191647Y114656D01*
Y115968D01*
X190991Y116624D01*
X189023D01*
X187712Y114000D02*
X186400D01*
X187056D01*
Y116624D01*
X187712D01*
X181808Y117936D02*
Y114000D01*
X183776D01*
X184432Y114656D01*
Y115968D01*
X183776Y116624D01*
X181808D01*
X179840Y114000D02*
X178528D01*
X177872Y114656D01*
Y115968D01*
X178528Y116624D01*
X179840D01*
X180496Y115968D01*
Y114656D01*
X179840Y114000D01*
X241500Y135248D02*
Y132624D01*
X240188Y131312D01*
X238876Y132624D01*
Y135248D01*
X236908Y131312D02*
X235596D01*
X234940Y131968D01*
Y133280D01*
X235596Y133936D01*
X236908D01*
X237564Y133280D01*
Y131968D01*
X236908Y131312D01*
X233629D02*
X232317D01*
X232973D01*
Y135248D01*
X233629D01*
X229693Y134592D02*
Y133936D01*
X230349D01*
X229037D01*
X229693D01*
Y131968D01*
X229037Y131312D01*
X226413Y133936D02*
X225101D01*
X224445Y133280D01*
Y131312D01*
X226413D01*
X227069Y131968D01*
X226413Y132624D01*
X224445D01*
X221821Y130000D02*
X221165D01*
X220509Y130656D01*
Y133936D01*
X222477D01*
X223133Y133280D01*
Y131968D01*
X222477Y131312D01*
X220509D01*
X217230D02*
X218542D01*
X219198Y131968D01*
Y133280D01*
X218542Y133936D01*
X217230D01*
X216574Y133280D01*
Y132624D01*
X219198D01*
X211326Y135248D02*
X210014D01*
X210670D01*
Y131312D01*
X211326D01*
X210014D01*
X208046D02*
Y133936D01*
X206078D01*
X205422Y133280D01*
Y131312D01*
X201487Y135248D02*
Y131312D01*
X203454D01*
X204111Y131968D01*
Y133280D01*
X203454Y133936D01*
X201487D01*
X200175Y131312D02*
X198863D01*
X199519D01*
Y133936D01*
X200175D01*
X194271D02*
X196239D01*
X196895Y133280D01*
Y131968D01*
X196239Y131312D01*
X194271D01*
X192303Y133936D02*
X190991D01*
X190335Y133280D01*
Y131312D01*
X192303D01*
X192959Y131968D01*
X192303Y132624D01*
X190335D01*
X188367Y134592D02*
Y133936D01*
X189023D01*
X187712D01*
X188367D01*
Y131968D01*
X187712Y131312D01*
X185088D02*
X183776D01*
X183120Y131968D01*
Y133280D01*
X183776Y133936D01*
X185088D01*
X185744Y133280D01*
Y131968D01*
X185088Y131312D01*
X181808Y133936D02*
Y131312D01*
Y132624D01*
X181152Y133280D01*
X180496Y133936D01*
X179840D01*
X173936D02*
X172625Y131312D01*
X171313Y133936D01*
X167377Y131312D02*
X170001D01*
X167377Y133936D01*
Y134592D01*
X168033Y135248D01*
X169345D01*
X170001Y134592D01*
X166065Y131312D02*
Y131968D01*
X165409D01*
Y131312D01*
X166065D01*
X162785Y134592D02*
X162129Y135248D01*
X160817D01*
X160161Y134592D01*
Y131968D01*
X160817Y131312D01*
X162129D01*
X162785Y131968D01*
Y134592D01*
X158850Y131312D02*
Y131968D01*
X158194D01*
Y131312D01*
X158850D01*
X155570D02*
X154258D01*
X154914D01*
Y135248D01*
X155570Y134592D01*
X241500Y126248D02*
Y122312D01*
X239532D01*
X238876Y122968D01*
Y125592D01*
X239532Y126248D01*
X241500D01*
X235596Y122312D02*
X236908D01*
X237564Y122968D01*
Y124280D01*
X236908Y124936D01*
X235596D01*
X234940Y124280D01*
Y123624D01*
X237564D01*
X233629Y122312D02*
X231661D01*
X231005Y122968D01*
X231661Y123624D01*
X232973D01*
X233629Y124280D01*
X232973Y124936D01*
X231005D01*
X229693Y122312D02*
X228381D01*
X229037D01*
Y124936D01*
X229693D01*
X225101Y121000D02*
X224445D01*
X223789Y121656D01*
Y124936D01*
X225757D01*
X226413Y124280D01*
Y122968D01*
X225757Y122312D01*
X223789D01*
X222477D02*
Y124936D01*
X220509D01*
X219853Y124280D01*
Y122312D01*
X216574D02*
X217886D01*
X218542Y122968D01*
Y124280D01*
X217886Y124936D01*
X216574D01*
X215918Y124280D01*
Y123624D01*
X218542D01*
X211982Y126248D02*
Y122312D01*
X213950D01*
X214606Y122968D01*
Y124280D01*
X213950Y124936D01*
X211982D01*
X206734Y126248D02*
Y122312D01*
X204766D01*
X204111Y122968D01*
Y123624D01*
X204766Y124280D01*
X206734D01*
X204766D01*
X204111Y124936D01*
Y125592D01*
X204766Y126248D01*
X206734D01*
X202799Y124936D02*
Y122968D01*
X202143Y122312D01*
X200175D01*
Y121656D01*
X200831Y121000D01*
X201487D01*
X200175Y122312D02*
Y124936D01*
X198863D02*
X198207D01*
Y124280D01*
X198863D01*
Y124936D01*
Y122968D02*
X198207D01*
Y122312D01*
X198863D01*
Y122968D01*
M02*
