G04*
G04 #@! TF.GenerationSoftware,Altium Limited,Altium Designer,23.8.1 (32)*
G04*
G04 Layer_Color=8388736*
%FSLAX25Y25*%
%MOIN*%
G70*
G04*
G04 #@! TF.SameCoordinates,BB991CD9-E61E-4A70-A8D9-3A71C13EE87A*
G04*
G04*
G04 #@! TF.FilePolarity,Negative*
G04*
G01*
G75*
%ADD15R,0.09843X0.05200*%
%ADD19R,0.02000X0.03850*%
%ADD23R,0.06300X0.06700*%
%ADD24R,0.04700X0.05500*%
%ADD25R,0.09700X0.06700*%
%ADD26R,0.05700X0.13600*%
%ADD29R,0.09500X0.20500*%
%ADD30R,0.03700X0.09800*%
%ADD31R,0.26200X0.26800*%
G04:AMPARAMS|DCode=33|XSize=55.64mil|YSize=36.74mil|CornerRadius=6.59mil|HoleSize=0mil|Usage=FLASHONLY|Rotation=270.000|XOffset=0mil|YOffset=0mil|HoleType=Round|Shape=RoundedRectangle|*
%AMROUNDEDRECTD33*
21,1,0.05564,0.02357,0,0,270.0*
21,1,0.04247,0.03674,0,0,270.0*
1,1,0.01317,-0.01178,-0.02123*
1,1,0.01317,-0.01178,0.02123*
1,1,0.01317,0.01178,0.02123*
1,1,0.01317,0.01178,-0.02123*
%
%ADD33ROUNDEDRECTD33*%
%ADD34R,0.03950X0.02572*%
%ADD35R,0.07808X0.23162*%
G04:AMPARAMS|DCode=36|XSize=47.37mil|YSize=63.91mil|CornerRadius=8.92mil|HoleSize=0mil|Usage=FLASHONLY|Rotation=0.000|XOffset=0mil|YOffset=0mil|HoleType=Round|Shape=RoundedRectangle|*
%AMROUNDEDRECTD36*
21,1,0.04737,0.04606,0,0,0.0*
21,1,0.02953,0.06391,0,0,0.0*
1,1,0.01784,0.01476,-0.02303*
1,1,0.01784,-0.01476,-0.02303*
1,1,0.01784,-0.01476,0.02303*
1,1,0.01784,0.01476,0.02303*
%
%ADD36ROUNDEDRECTD36*%
G04:AMPARAMS|DCode=37|XSize=47.37mil|YSize=63.91mil|CornerRadius=8.92mil|HoleSize=0mil|Usage=FLASHONLY|Rotation=270.000|XOffset=0mil|YOffset=0mil|HoleType=Round|Shape=RoundedRectangle|*
%AMROUNDEDRECTD37*
21,1,0.04737,0.04606,0,0,270.0*
21,1,0.02953,0.06391,0,0,270.0*
1,1,0.01784,-0.02303,-0.01476*
1,1,0.01784,-0.02303,0.01476*
1,1,0.01784,0.02303,0.01476*
1,1,0.01784,0.02303,-0.01476*
%
%ADD37ROUNDEDRECTD37*%
G04:AMPARAMS|DCode=38|XSize=55.64mil|YSize=31.23mil|CornerRadius=9.81mil|HoleSize=0mil|Usage=FLASHONLY|Rotation=270.000|XOffset=0mil|YOffset=0mil|HoleType=Round|Shape=RoundedRectangle|*
%AMROUNDEDRECTD38*
21,1,0.05564,0.01161,0,0,270.0*
21,1,0.03602,0.03123,0,0,270.0*
1,1,0.01961,-0.00581,-0.01801*
1,1,0.01961,-0.00581,0.01801*
1,1,0.01961,0.00581,0.01801*
1,1,0.01961,0.00581,-0.01801*
%
%ADD38ROUNDEDRECTD38*%
%ADD39R,0.06509X0.05131*%
%ADD40R,0.05131X0.06509*%
G04:AMPARAMS|DCode=41|XSize=55.64mil|YSize=36.74mil|CornerRadius=6.59mil|HoleSize=0mil|Usage=FLASHONLY|Rotation=0.000|XOffset=0mil|YOffset=0mil|HoleType=Round|Shape=RoundedRectangle|*
%AMROUNDEDRECTD41*
21,1,0.05564,0.02357,0,0,0.0*
21,1,0.04247,0.03674,0,0,0.0*
1,1,0.01317,0.02123,-0.01178*
1,1,0.01317,-0.02123,-0.01178*
1,1,0.01317,-0.02123,0.01178*
1,1,0.01317,0.02123,0.01178*
%
%ADD41ROUNDEDRECTD41*%
G04:AMPARAMS|DCode=42|XSize=48.55mil|YSize=28.47mil|CornerRadius=6.56mil|HoleSize=0mil|Usage=FLASHONLY|Rotation=90.000|XOffset=0mil|YOffset=0mil|HoleType=Round|Shape=RoundedRectangle|*
%AMROUNDEDRECTD42*
21,1,0.04855,0.01535,0,0,90.0*
21,1,0.03543,0.02847,0,0,90.0*
1,1,0.01312,0.00768,0.01772*
1,1,0.01312,0.00768,-0.01772*
1,1,0.01312,-0.00768,-0.01772*
1,1,0.01312,-0.00768,0.01772*
%
%ADD42ROUNDEDRECTD42*%
%ADD43C,0.05900*%
%ADD44C,0.18517*%
%ADD45R,0.13592X0.13592*%
%ADD46C,0.13592*%
%ADD47C,0.12411*%
D15*
X340879Y109823D02*
D03*
Y99823D02*
D03*
X299279Y109823D02*
D03*
Y99823D02*
D03*
D19*
X284252Y156556D02*
D03*
X280512D02*
D03*
X276772D02*
D03*
Y145806D02*
D03*
X284252D02*
D03*
X240748Y209509D02*
D03*
X237008D02*
D03*
X233268D02*
D03*
Y198759D02*
D03*
X240748D02*
D03*
D23*
X215945Y208295D02*
D03*
D24*
X220079Y199016D02*
D03*
X211811D02*
D03*
D25*
X125745Y209283D02*
D03*
X103145D02*
D03*
X87945D02*
D03*
X65345D02*
D03*
X103145Y185117D02*
D03*
X125745D02*
D03*
X140945Y185116D02*
D03*
X163545D02*
D03*
Y209283D02*
D03*
X140945D02*
D03*
X65345Y185117D02*
D03*
X87945D02*
D03*
D26*
X196662Y147500D02*
D03*
X178762D02*
D03*
D29*
X249412Y76000D02*
D03*
X209712D02*
D03*
D30*
X163228Y117300D02*
D03*
X145196D02*
D03*
D31*
X154212Y142500D02*
D03*
D33*
X247812Y150814D02*
D03*
Y137586D02*
D03*
X196712Y119386D02*
D03*
Y132614D02*
D03*
D34*
X167729Y105016D02*
D03*
Y102457D02*
D03*
Y99898D02*
D03*
Y97339D02*
D03*
Y94780D02*
D03*
Y92220D02*
D03*
Y89661D02*
D03*
Y87102D02*
D03*
Y84543D02*
D03*
Y81984D02*
D03*
X144894D02*
D03*
Y84543D02*
D03*
Y87102D02*
D03*
Y105016D02*
D03*
Y102457D02*
D03*
Y99898D02*
D03*
D35*
X160312Y93500D02*
D03*
D36*
X177028Y209449D02*
D03*
X184390D02*
D03*
X192028D02*
D03*
X199390D02*
D03*
X271050Y220117D02*
D03*
X278412D02*
D03*
X257212D02*
D03*
X264574D02*
D03*
X232598Y222047D02*
D03*
X239961D02*
D03*
X233327Y190650D02*
D03*
X240689D02*
D03*
X274862Y167815D02*
D03*
X282224D02*
D03*
X286575Y136417D02*
D03*
X293937D02*
D03*
X210231Y42600D02*
D03*
X217593D02*
D03*
X184390Y185138D02*
D03*
X177028D02*
D03*
X175131Y117300D02*
D03*
X182493D02*
D03*
X189912Y76800D02*
D03*
X182550D02*
D03*
X191487Y87900D02*
D03*
X184124D02*
D03*
Y97000D02*
D03*
X191487D02*
D03*
X371040Y140000D02*
D03*
X363678D02*
D03*
X157474Y74700D02*
D03*
X150112D02*
D03*
X157474Y66200D02*
D03*
X150112D02*
D03*
X199390Y185138D02*
D03*
X192028D02*
D03*
D37*
X265551Y201201D02*
D03*
Y208563D02*
D03*
X256299D02*
D03*
Y201201D02*
D03*
X266161Y169976D02*
D03*
Y177339D02*
D03*
X233412Y140617D02*
D03*
Y147980D02*
D03*
X294390Y147362D02*
D03*
Y154724D02*
D03*
X223862Y140617D02*
D03*
Y147980D02*
D03*
X214312Y140617D02*
D03*
Y147980D02*
D03*
X198812Y91562D02*
D03*
Y84200D02*
D03*
X197933Y63740D02*
D03*
Y71102D02*
D03*
X352939Y116938D02*
D03*
Y124300D02*
D03*
X135827Y82119D02*
D03*
Y89481D02*
D03*
Y109232D02*
D03*
Y101870D02*
D03*
D38*
X275394Y198681D02*
D03*
X282874D02*
D03*
X279134Y208563D02*
D03*
D39*
X258161Y177201D02*
D03*
Y170114D02*
D03*
D40*
X217555Y33700D02*
D03*
X210469D02*
D03*
X363816Y131300D02*
D03*
X370902D02*
D03*
D41*
X172083Y62000D02*
D03*
X185312D02*
D03*
D42*
X156712Y58528D02*
D03*
Y49472D02*
D03*
D43*
X364939Y109200D02*
D03*
Y99357D02*
D03*
Y89514D02*
D03*
X184843Y30020D02*
D03*
X175000D02*
D03*
D44*
X368602Y23917D02*
D03*
X373500Y210000D02*
D03*
X39567Y12205D02*
D03*
X30620Y210000D02*
D03*
D45*
X109252Y136713D02*
D03*
X89567D02*
D03*
D46*
X109252Y97343D02*
D03*
X89567D02*
D03*
X109252Y57972D02*
D03*
X89567D02*
D03*
D47*
X54134Y35413D02*
D03*
Y159272D02*
D03*
M02*
