G04*
G04 #@! TF.GenerationSoftware,Altium Limited,Altium Designer,23.8.1 (32)*
G04*
G04 Layer_Physical_Order=2*
G04 Layer_Color=16711680*
%FSLAX25Y25*%
%MOIN*%
G70*
G04*
G04 #@! TF.SameCoordinates,BB991CD9-E61E-4A70-A8D9-3A71C13EE87A*
G04*
G04*
G04 #@! TF.FilePolarity,Positive*
G04*
G01*
G75*
%ADD43C,0.05900*%
%ADD49C,0.01968*%
%ADD50C,0.01575*%
%ADD55C,0.17717*%
%ADD56R,0.12992X0.12992*%
%ADD57C,0.12992*%
%ADD58C,0.11811*%
%ADD59C,0.03937*%
%ADD60C,0.05000*%
%ADD61C,0.01968*%
D43*
X364939Y109200D02*
D03*
Y99357D02*
D03*
Y89514D02*
D03*
X184843Y30020D02*
D03*
X175000D02*
D03*
D49*
X193602Y213583D02*
X198130Y218110D01*
X193602Y202264D02*
Y213583D01*
X251476Y220177D02*
X268780D01*
X271635Y223032D01*
X289282Y162609D02*
X289862Y163189D01*
X287609Y162609D02*
X289282D01*
X282480Y157480D02*
X287609Y162609D01*
X180118Y196457D02*
X188287D01*
X250344Y134400D01*
X273600D01*
X282480Y122835D02*
Y157480D01*
X255800Y175190D02*
X287598Y206988D01*
X255800Y161700D02*
Y175190D01*
X262500Y142400D02*
X263000Y142900D01*
Y145579D02*
X288958Y171537D01*
Y173997D02*
X289567Y174606D01*
X263000Y142900D02*
Y145579D01*
X288958Y171537D02*
Y173997D01*
X252400Y142500D02*
X266100Y156200D01*
X271635Y223032D02*
X294221D01*
X295374Y59646D02*
Y221878D01*
X294221Y223032D02*
X295374Y221878D01*
X243602Y7874D02*
X295374Y59646D01*
X175000Y30020D02*
X197146Y7874D01*
X243602D01*
D50*
X170965Y92323D02*
X176181Y97539D01*
X143701Y92323D02*
X170965D01*
D55*
X368602Y23917D02*
D03*
X373500Y210000D02*
D03*
X39567Y12205D02*
D03*
X30620Y210000D02*
D03*
D56*
X109252Y136713D02*
D03*
X89567D02*
D03*
D57*
X109252Y97343D02*
D03*
X89567D02*
D03*
X109252Y57972D02*
D03*
X89567D02*
D03*
D58*
X54134Y35413D02*
D03*
Y159272D02*
D03*
D59*
X198130Y218110D02*
D03*
X193602Y202264D02*
D03*
D60*
X251476Y220177D02*
D03*
X180118Y196457D02*
D03*
X262500Y142400D02*
D03*
X252400Y142500D02*
D03*
X289862Y163189D02*
D03*
X282480Y122835D02*
D03*
X287598Y206988D02*
D03*
X289567Y174606D02*
D03*
X266100Y156200D02*
D03*
X255800Y161700D02*
D03*
X273600Y134400D02*
D03*
D61*
X143701Y92323D02*
D03*
X176181Y97539D02*
D03*
M02*
