G04*
G04 #@! TF.GenerationSoftware,Altium Limited,Altium Designer,23.8.1 (32)*
G04*
G04 Layer_Color=32768*
%FSLAX25Y25*%
%MOIN*%
G70*
G04*
G04 #@! TF.SameCoordinates,BB991CD9-E61E-4A70-A8D9-3A71C13EE87A*
G04*
G04*
G04 #@! TF.FilePolarity,Positive*
G04*
G01*
G75*
%ADD11C,0.00600*%
%ADD64C,0.00197*%
G36*
X168795Y213633D02*
X169395D01*
Y204933D01*
X168795D01*
Y199833D01*
X135695D01*
Y204933D01*
X135095D01*
Y213633D01*
X135695D01*
Y218733D01*
X168795D01*
Y213633D01*
D02*
G37*
G36*
X130995D02*
X131595D01*
Y204933D01*
X130995D01*
Y199833D01*
X97895D01*
Y204933D01*
X97295D01*
Y213633D01*
X97895D01*
Y218733D01*
X130995D01*
Y213633D01*
D02*
G37*
G36*
X93195D02*
X93795D01*
Y204933D01*
X93195D01*
Y199833D01*
X60095D01*
Y204933D01*
X59495D01*
Y213633D01*
X60095D01*
Y218733D01*
X93195D01*
Y213633D01*
D02*
G37*
G36*
X130995Y189467D02*
X131595D01*
Y180766D01*
X130995D01*
Y175666D01*
X97895D01*
Y180766D01*
X97295D01*
Y189467D01*
X97895D01*
Y194567D01*
X130995D01*
Y189467D01*
D02*
G37*
G36*
X93195D02*
X93795D01*
Y180766D01*
X93195D01*
Y175666D01*
X60095D01*
Y180766D01*
X59495D01*
Y189467D01*
X60095D01*
Y194567D01*
X93195D01*
Y189467D01*
D02*
G37*
G36*
X168795Y189466D02*
X169395D01*
Y180766D01*
X168795D01*
Y175666D01*
X135695D01*
Y180766D01*
X135095D01*
Y189466D01*
X135695D01*
Y194566D01*
X168795D01*
Y189466D01*
D02*
G37*
G36*
X168412Y128100D02*
X165978D01*
Y111400D01*
X160478D01*
Y121200D01*
X147946D01*
Y111400D01*
X142446D01*
Y128100D01*
X140012D01*
Y156900D01*
X168412D01*
Y128100D01*
D02*
G37*
G36*
X242248Y208584D02*
X243958D01*
Y199684D01*
X242248D01*
Y196234D01*
X231768D01*
Y199684D01*
X230058D01*
Y208584D01*
X231768D01*
Y212034D01*
X242248D01*
Y208584D01*
D02*
G37*
G36*
X220095Y211655D02*
X223645D01*
Y196256D01*
X223429D01*
Y195266D01*
X208461D01*
Y196256D01*
X208245D01*
Y211655D01*
X211795D01*
Y212645D01*
X220095D01*
Y211655D01*
D02*
G37*
G36*
X285752Y155631D02*
X287462D01*
Y146731D01*
X285752D01*
Y143281D01*
X275272D01*
Y146731D01*
X273562D01*
Y155631D01*
X275272D01*
Y159081D01*
X285752D01*
Y155631D01*
D02*
G37*
G36*
X201512Y138700D02*
X173912D01*
Y156300D01*
X201512D01*
Y138700D01*
D02*
G37*
G36*
X334279Y112823D02*
X344879D01*
Y96823D01*
X334279D01*
Y94823D01*
X305879D01*
Y96823D01*
X295279D01*
Y112823D01*
X305879D01*
Y114823D01*
X334279D01*
Y112823D01*
D02*
G37*
G36*
X255162Y87250D02*
Y64750D01*
Y50400D01*
X203962D01*
Y64750D01*
Y87250D01*
Y101600D01*
X255162D01*
Y87250D01*
D02*
G37*
D11*
X295279Y96823D02*
X305879D01*
Y94823D02*
Y96823D01*
Y94823D02*
X334279D01*
Y96823D01*
X344879D01*
Y112823D01*
X334279D02*
X344879D01*
X334279D02*
Y114823D01*
X305879D02*
X334279D01*
X305879Y112823D02*
Y114823D01*
X295279Y112823D02*
X305879D01*
X295279Y96823D02*
Y112823D01*
X273562Y155631D02*
X275272D01*
Y159081D01*
X285752D01*
Y155631D02*
Y159081D01*
Y155631D02*
X287462D01*
Y146731D02*
Y155631D01*
X285752Y146731D02*
X287462D01*
X285752Y143281D02*
Y146731D01*
X275272Y143281D02*
X285752D01*
X275272D02*
Y146731D01*
X273562D02*
X275272D01*
X273562D02*
Y155631D01*
X230058Y208584D02*
X231768D01*
Y212034D01*
X242248D01*
Y208584D02*
Y212034D01*
Y208584D02*
X243958D01*
Y199684D02*
Y208584D01*
X242248Y199684D02*
X243958D01*
X242248Y196234D02*
Y199684D01*
X231768Y196234D02*
X242248D01*
X231768D02*
Y199684D01*
X230058D02*
X231768D01*
X230058D02*
Y208584D01*
X208461Y195266D02*
X223429D01*
X208461D02*
Y196256D01*
X223429Y195266D02*
Y196256D01*
X208245D02*
X208461D01*
X223429D02*
X223645D01*
Y211656D01*
X220095D02*
X223645D01*
X220095D02*
Y212645D01*
X211795D02*
X220095D01*
X211795Y211656D02*
Y212645D01*
X208245Y211656D02*
X211795D01*
X208245Y196256D02*
Y211656D01*
X131595Y204933D02*
Y213633D01*
X130995Y204933D02*
X131595D01*
X97295D02*
X97895D01*
X97295D02*
Y213633D01*
X97895D01*
X130995D02*
X131595D01*
X130995D02*
Y218733D01*
Y199833D02*
Y204933D01*
X97895Y199833D02*
X130995D01*
X97895D02*
Y204933D01*
Y213633D02*
Y218733D01*
X130995D01*
X93795Y204933D02*
Y213633D01*
X93195Y204933D02*
X93795D01*
X59495D02*
X60095D01*
X59495D02*
Y213633D01*
X60095D01*
X93195D02*
X93795D01*
X93195D02*
Y218733D01*
Y199833D02*
Y204933D01*
X60095Y199833D02*
X93195D01*
X60095D02*
Y204933D01*
Y213633D02*
Y218733D01*
X93195D01*
X97895Y194567D02*
X130995D01*
X97895Y189467D02*
Y194567D01*
Y175667D02*
Y180767D01*
Y175667D02*
X130995D01*
Y180767D01*
Y189467D02*
Y194567D01*
Y189467D02*
X131595D01*
X97295D02*
X97895D01*
X97295Y180767D02*
Y189467D01*
Y180767D02*
X97895D01*
X130995D02*
X131595D01*
Y189467D01*
X135695Y194566D02*
X168795D01*
X135695Y189466D02*
Y194566D01*
Y175666D02*
Y180766D01*
Y175666D02*
X168795D01*
Y180766D01*
Y189466D02*
Y194566D01*
Y189466D02*
X169395D01*
X135095D02*
X135695D01*
X135095Y180766D02*
Y189466D01*
Y180766D02*
X135695D01*
X168795D02*
X169395D01*
Y189466D01*
Y204933D02*
Y213633D01*
X168795Y204933D02*
X169395D01*
X135095D02*
X135695D01*
X135095D02*
Y213633D01*
X135695D01*
X168795D02*
X169395D01*
X168795D02*
Y218733D01*
Y199833D02*
Y204933D01*
X135695Y199833D02*
X168795D01*
X135695D02*
Y204933D01*
Y213633D02*
Y218733D01*
X168795D01*
X201512Y138700D02*
Y156300D01*
X173912Y138700D02*
X201512D01*
X173912D02*
Y156300D01*
X201512D01*
X60095Y194567D02*
X93195D01*
X60095Y189467D02*
Y194567D01*
Y175667D02*
Y180767D01*
Y175667D02*
X93195D01*
Y180767D01*
Y189467D02*
Y194567D01*
Y189467D02*
X93795D01*
X59495D02*
X60095D01*
X59495Y180767D02*
Y189467D01*
Y180767D02*
X60095D01*
X93195D02*
X93795D01*
Y189467D01*
X255162Y64750D02*
Y87250D01*
X203962Y64750D02*
Y87250D01*
X255162D02*
Y101600D01*
Y50400D02*
Y64750D01*
X203962Y50400D02*
X255162D01*
X203962D02*
Y64750D01*
Y87250D02*
Y101600D01*
X255162D01*
X140012Y128100D02*
X142446D01*
Y111400D02*
Y128100D01*
Y111400D02*
X147946D01*
Y121200D01*
X160478D01*
Y111400D02*
Y121200D01*
Y111400D02*
X165978D01*
Y128100D01*
X168412D01*
Y156900D01*
X140012D02*
X168412D01*
X140012Y128100D02*
Y156900D01*
D64*
X243481Y154200D02*
X252143D01*
Y134200D02*
Y154200D01*
X243481Y134200D02*
X252143D01*
X243481D02*
Y154200D01*
X142335Y79720D02*
Y107280D01*
Y79720D02*
X170288D01*
Y107280D01*
X142335D02*
X170288D01*
X174055Y213228D02*
X187362D01*
Y205669D02*
Y213228D01*
X174055Y205669D02*
X187362D01*
X174055D02*
Y213228D01*
X189055D02*
X202362D01*
Y205669D02*
Y213228D01*
X189055Y205669D02*
X202362D01*
X189055D02*
Y213228D01*
X281384Y216337D02*
Y223896D01*
X268077D02*
X281384D01*
X268077Y216337D02*
Y223896D01*
Y216337D02*
X281384D01*
X267546D02*
Y223896D01*
X254239D02*
X267546D01*
X254239Y216337D02*
Y223896D01*
Y216337D02*
X267546D01*
X261772Y211535D02*
X269331D01*
X261772Y198228D02*
Y211535D01*
Y198228D02*
X269331D01*
Y211535D01*
X273228Y195315D02*
Y199094D01*
X272047D02*
X273228D01*
X272047D02*
Y208150D01*
X276969D01*
Y211929D01*
X281299D01*
Y208150D02*
Y211929D01*
Y208150D02*
X286220D01*
Y199094D02*
Y208150D01*
X285039Y199094D02*
X286220D01*
X285039Y195315D02*
Y199094D01*
X273228Y195315D02*
X285039D01*
X254224Y180350D02*
X262098D01*
X254224Y166965D02*
X262098D01*
Y180350D01*
X254224Y166965D02*
Y180350D01*
X252520Y198228D02*
X260079D01*
Y211535D01*
X252520D02*
X260079D01*
X252520Y198228D02*
Y211535D01*
X262382Y180311D02*
X269941D01*
X262382Y167004D02*
Y180311D01*
Y167004D02*
X269941D01*
Y180311D01*
X242933Y218268D02*
Y225827D01*
X229626D02*
X242933D01*
X229626Y218268D02*
Y225827D01*
Y218268D02*
X242933D01*
X-4252Y25768D02*
X118307D01*
X-4252D02*
Y168917D01*
X118307D01*
Y25768D02*
Y168917D01*
X243661Y186870D02*
Y194429D01*
X230354D02*
X243661D01*
X230354Y186870D02*
Y194429D01*
Y186870D02*
X243661D01*
X229632Y150952D02*
X237191D01*
X229632Y137645D02*
Y150952D01*
Y137645D02*
X237191D01*
Y150952D01*
X285197Y164035D02*
Y171594D01*
X271890D02*
X285197D01*
X271890Y164035D02*
Y171594D01*
Y164035D02*
X285197D01*
X290610Y157697D02*
X298169D01*
X290610Y144390D02*
Y157697D01*
Y144390D02*
X298169D01*
Y157697D01*
X296909Y132638D02*
Y140197D01*
X283602D02*
X296909D01*
X283602Y132638D02*
Y140197D01*
Y132638D02*
X296909D01*
X220565Y38820D02*
Y46380D01*
X207258D02*
X220565D01*
X207258Y38820D02*
Y46380D01*
Y38820D02*
X220565D01*
X220705Y29763D02*
Y37637D01*
X207319Y29763D02*
Y37637D01*
Y29763D02*
X220705D01*
X207319Y37637D02*
X220705D01*
X174055Y181358D02*
Y188917D01*
Y181358D02*
X187362D01*
Y188917D01*
X174055D02*
X187362D01*
X185465Y113520D02*
Y121080D01*
X172158D02*
X185465D01*
X172158Y113520D02*
Y121080D01*
Y113520D02*
X185465D01*
X220082Y150952D02*
X227641D01*
X220082Y137645D02*
Y150952D01*
Y137645D02*
X227641D01*
Y150952D01*
X210532D02*
X218091D01*
X210532Y137645D02*
Y150952D01*
Y137645D02*
X218091D01*
Y150952D01*
X168698Y57669D02*
Y66331D01*
X188698D01*
Y57669D02*
Y66331D01*
X168698Y57669D02*
X188698D01*
X179577Y73020D02*
Y80580D01*
Y73020D02*
X192884D01*
Y80580D01*
X179577D02*
X192884D01*
X192381Y116000D02*
X201043D01*
X192381D02*
Y136000D01*
X201043D01*
Y116000D02*
Y136000D01*
X195032Y81228D02*
X202591D01*
Y94535D01*
X195032D02*
X202591D01*
X195032Y81228D02*
Y94535D01*
X194154Y74075D02*
X201713D01*
X194154Y60768D02*
Y74075D01*
Y60768D02*
X201713D01*
Y74075D01*
X181152Y84120D02*
Y91680D01*
Y84120D02*
X194459D01*
Y91680D01*
X181152D02*
X194459D01*
Y93220D02*
Y100780D01*
X181152D02*
X194459D01*
X181152Y93220D02*
Y100780D01*
Y93220D02*
X194459D01*
X349160Y113965D02*
Y127272D01*
X356719D01*
Y113965D02*
Y127272D01*
X349160Y113965D02*
X356719D01*
X360666Y127363D02*
Y135237D01*
X374052Y127363D02*
Y135237D01*
X360666D02*
X374052D01*
X360666Y127363D02*
X374052D01*
X360706Y136220D02*
Y143780D01*
Y136220D02*
X374013D01*
Y143780D01*
X360706D02*
X374013D01*
X147139Y70920D02*
Y78480D01*
Y70920D02*
X160446D01*
Y78480D01*
X147139D02*
X160446D01*
X147139Y62420D02*
Y69980D01*
Y62420D02*
X160446D01*
Y69980D01*
X147139D02*
X160446D01*
X132047Y92454D02*
X139606D01*
X132047Y79146D02*
Y92454D01*
Y79146D02*
X139606D01*
Y92454D01*
Y98898D02*
Y112205D01*
X132047Y98898D02*
X139606D01*
X132047D02*
Y112205D01*
X139606D01*
X189055Y181358D02*
Y188917D01*
Y181358D02*
X202362D01*
Y188917D01*
X189055D02*
X202362D01*
X153050Y46461D02*
Y61539D01*
X160373D01*
Y46461D02*
Y61539D01*
X153050Y46461D02*
X160373D01*
M02*
