G04*
G04 #@! TF.GenerationSoftware,Altium Limited,Altium Designer,23.8.1 (32)*
G04*
G04 Layer_Color=65535*
%FSLAX25Y25*%
%MOIN*%
G70*
G04*
G04 #@! TF.SameCoordinates,BB991CD9-E61E-4A70-A8D9-3A71C13EE87A*
G04*
G04*
G04 #@! TF.FilePolarity,Positive*
G04*
G01*
G75*
%ADD10C,0.00787*%
%ADD11C,0.00600*%
%ADD12C,0.00500*%
%ADD13C,0.01000*%
%ADD14C,0.00300*%
D10*
X248205Y155224D02*
X247418D01*
X248205D01*
X140957Y105016D02*
X140170D01*
X140957D01*
X275590Y194173D02*
X274803D01*
X275590D01*
X258555Y165783D02*
X257768D01*
X258555D01*
X206532Y33700D02*
X205744D01*
X206532D01*
X168068Y62000D02*
X167280D01*
X168068D01*
X197106Y114976D02*
X196318D01*
X197106D01*
X375627Y131300D02*
X374839D01*
X375627D01*
X157106Y45250D02*
X156318D01*
X157106D01*
X260524Y172870D02*
Y174445D01*
X255799Y172870D02*
Y174445D01*
X213224Y31338D02*
X214799D01*
X213224Y36062D02*
X214799D01*
X366572Y133662D02*
X368146D01*
X366572Y128938D02*
X368146D01*
D11*
X204745Y197066D02*
X203995Y197499D01*
Y196633D01*
X204745Y197066D01*
X203112Y147500D02*
X202512D01*
X203112D01*
X360341Y79384D02*
X395388D01*
X360341Y119330D02*
X395388D01*
X360341Y79385D02*
Y119330D01*
X395388Y79385D02*
Y119330D01*
X305779Y94723D02*
Y114923D01*
X334379D01*
Y94723D02*
Y114923D01*
X305779Y94723D02*
X334379D01*
X274062Y147231D02*
Y155131D01*
X279082Y147231D02*
X281942D01*
X286962D02*
Y155131D01*
X230558Y200184D02*
Y208084D01*
X235578Y200184D02*
X238438D01*
X243458D02*
Y208084D01*
X208745Y202863D02*
Y211156D01*
X220405D02*
X223145D01*
Y202863D02*
Y211156D01*
X208745D02*
X211485D01*
X164870Y-429D02*
Y34620D01*
X195170D01*
Y-429D02*
Y34620D01*
X164870Y-429D02*
X195170D01*
X98395Y200333D02*
Y204623D01*
Y218233D02*
X130495D01*
X98395Y213943D02*
Y218233D01*
Y200333D02*
X130495D01*
Y204623D01*
Y213943D02*
Y218233D01*
X60595Y200333D02*
Y204623D01*
Y218233D02*
X92695D01*
X60595Y213943D02*
Y218233D01*
Y200333D02*
X92695D01*
Y204623D01*
Y213943D02*
Y218233D01*
X130495Y189777D02*
Y194067D01*
Y176167D02*
Y180457D01*
X98395Y176167D02*
X130495D01*
X98395Y189777D02*
Y194067D01*
X130495D01*
X98395Y176167D02*
Y180457D01*
X168295Y189776D02*
Y194066D01*
Y176166D02*
Y180456D01*
X136195Y176166D02*
X168295D01*
X136195Y189776D02*
Y194066D01*
X168295D01*
X136195Y176166D02*
Y180456D01*
Y200333D02*
Y204623D01*
Y218233D02*
X168295D01*
X136195Y213943D02*
Y218233D01*
Y200333D02*
X168295D01*
Y204623D01*
Y213943D02*
Y218233D01*
X182859Y154700D02*
X192564D01*
X182859Y140300D02*
X192564D01*
X92695Y189777D02*
Y194067D01*
Y176167D02*
Y180457D01*
X60595Y176167D02*
X92695D01*
X60595Y189777D02*
Y194067D01*
X92695D01*
X60595Y176167D02*
Y180457D01*
X204462Y50900D02*
Y64539D01*
Y101100D02*
X254662D01*
X204462Y87461D02*
Y101100D01*
Y50900D02*
X254662D01*
Y64539D01*
Y87461D02*
Y101100D01*
X164978Y123600D02*
Y127790D01*
X146946Y123600D02*
Y127790D01*
X161478Y123600D02*
Y127790D01*
X143446Y123600D02*
Y127790D01*
D12*
X251158Y138885D02*
Y149515D01*
X244465Y138885D02*
Y149515D01*
X147650Y106295D02*
X164973D01*
X147650Y80705D02*
X164973D01*
X176772Y212953D02*
X184646D01*
X176772Y205945D02*
X184646D01*
X191772Y212953D02*
X199646D01*
X191772Y205945D02*
X199646D01*
X270794Y223620D02*
X278668D01*
X270794Y216613D02*
X278668D01*
X256956Y223620D02*
X264830D01*
X256956Y216613D02*
X264830D01*
X262047Y200945D02*
Y208819D01*
X269055Y200945D02*
Y208819D01*
X272996Y200079D02*
Y207165D01*
X276736D01*
X285272Y200079D02*
Y207165D01*
X281532D02*
X285272D01*
X259803Y200945D02*
Y208819D01*
X252795Y200945D02*
Y208819D01*
X262657Y169720D02*
Y177594D01*
X269665Y169720D02*
Y177594D01*
X232343Y225551D02*
X240217D01*
X232343Y218543D02*
X240217D01*
X107677Y168236D02*
X110827D01*
X107677D02*
X109252Y165087D01*
X110827Y168236D01*
X748Y30768D02*
Y163917D01*
X113307Y30768D02*
Y50098D01*
Y144587D02*
Y163917D01*
X60433D02*
X113307D01*
X60433Y30768D02*
X113307D01*
X748D02*
X47441D01*
X748Y163917D02*
X47441D01*
X233071Y194154D02*
X240945D01*
X233071Y187146D02*
X240945D01*
X229908Y140361D02*
Y148235D01*
X236916Y140361D02*
Y148235D01*
X274606Y171319D02*
X282480D01*
X274606Y164311D02*
X282480D01*
X290886Y147106D02*
Y154980D01*
X297894Y147106D02*
Y154980D01*
X286319Y139921D02*
X294193D01*
X286319Y132913D02*
X294193D01*
X209975Y46104D02*
X217849D01*
X209975Y39096D02*
X217849D01*
X176772Y181634D02*
X184646D01*
X176772Y188642D02*
X184646D01*
X174875Y120804D02*
X182749D01*
X174875Y113796D02*
X182749D01*
X220358Y140361D02*
Y148235D01*
X227366Y140361D02*
Y148235D01*
X210808Y140361D02*
Y148235D01*
X217816Y140361D02*
Y148235D01*
X173383Y65346D02*
X184013D01*
X173383Y58654D02*
X184013D01*
X182294Y73296D02*
X190168D01*
X182294Y80304D02*
X190168D01*
X193365Y120685D02*
Y131315D01*
X200058Y120685D02*
Y131315D01*
X202316Y83944D02*
Y91818D01*
X195308Y83944D02*
Y91818D01*
X194429Y63484D02*
Y71358D01*
X201437Y63484D02*
Y71358D01*
X183869Y84396D02*
X191743D01*
X183869Y91404D02*
X191743D01*
X183869Y100504D02*
X191743D01*
X183869Y93496D02*
X191743D01*
X349435Y116682D02*
Y124556D01*
X356443Y116682D02*
Y124556D01*
X363422Y136496D02*
X371296D01*
X363422Y143504D02*
X371296D01*
X149856Y71196D02*
X157730D01*
X149856Y78204D02*
X157730D01*
X149856Y62696D02*
X157730D01*
X149856Y69704D02*
X157730D01*
X132323Y81863D02*
Y89737D01*
X139331Y81863D02*
Y89737D01*
Y101614D02*
Y109488D01*
X132323Y101614D02*
Y109488D01*
X191772Y181634D02*
X199646D01*
X191772Y188642D02*
X199646D01*
X159389Y50457D02*
Y57543D01*
X154035Y50457D02*
Y57543D01*
D13*
X222112Y32668D02*
X224736D01*
X223424Y33980D02*
Y31356D01*
X226048Y30700D02*
X227360D01*
X226704D01*
Y34636D01*
X226048Y33980D01*
X231951Y30700D02*
X229327D01*
X231951Y33324D01*
Y33980D01*
X231295Y34636D01*
X229983D01*
X229327Y33980D01*
X233263Y34636D02*
Y32012D01*
X234575Y30700D01*
X235887Y32012D01*
Y34636D01*
X212679Y192633D02*
X211367Y191977D01*
X210055Y190665D01*
Y189353D01*
X210711Y188697D01*
X212023D01*
X212679Y189353D01*
Y190009D01*
X212023Y190665D01*
X210055D01*
X213991Y191977D02*
X214647Y192633D01*
X215959D01*
X216615Y191977D01*
Y189353D01*
X215959Y188697D01*
X214647D01*
X213991Y189353D01*
Y191977D01*
X217927Y192633D02*
Y190009D01*
X219238Y188697D01*
X220550Y190009D01*
Y192633D01*
X292043Y91815D02*
X295979D01*
Y89847D01*
X295323Y89191D01*
X294011D01*
X293355Y89847D01*
Y91815D01*
X292043Y87879D02*
X295979D01*
Y85911D01*
X295323Y85255D01*
X294011D01*
X293355Y85911D01*
Y87879D01*
Y86567D02*
X292043Y85255D01*
X295979Y81320D02*
Y83943D01*
X292043D01*
Y81320D01*
X294011Y83943D02*
Y82632D01*
Y80008D02*
Y77384D01*
X295323Y73448D02*
X295979Y74104D01*
Y75416D01*
X295323Y76072D01*
X292699D01*
X292043Y75416D01*
Y74104D01*
X292699Y73448D01*
X295979Y72136D02*
X292043D01*
X294011D01*
Y69512D01*
X295979D01*
X292043D01*
X397494Y70200D02*
X401430D01*
Y72824D01*
X397494Y74136D02*
X400118D01*
X401430Y75448D01*
X400118Y76760D01*
X397494D01*
X399462Y78071D02*
Y80695D01*
X210172Y182142D02*
Y186077D01*
X212140D01*
X212796Y185422D01*
Y184110D01*
X212140Y183454D01*
X210172D01*
X211484D02*
X212796Y182142D01*
X216732Y186077D02*
X214108D01*
Y182142D01*
X216732D01*
X214108Y184110D02*
X215420D01*
X220668Y186077D02*
X218044D01*
Y184110D01*
X219356D01*
X218044D01*
Y182142D01*
X397494Y99000D02*
X401430D01*
Y101624D01*
X397494Y102936D02*
X400118D01*
X401430Y104248D01*
X400118Y105560D01*
X397494D01*
X399462Y106871D02*
Y109495D01*
X398150Y108183D02*
X400774D01*
X382231Y145076D02*
X382887Y145732D01*
Y147044D01*
X382231Y147700D01*
X379607D01*
X378951Y147044D01*
Y145732D01*
X379607Y145076D01*
X382887Y143764D02*
X378951D01*
X380919D01*
X381575Y143108D01*
Y141796D01*
X380919Y141140D01*
X378951D01*
X381575Y139173D02*
Y137861D01*
X380919Y137205D01*
X378951D01*
Y139173D01*
X379607Y139829D01*
X380263Y139173D01*
Y137205D01*
X381575Y135893D02*
X378951D01*
X380263D01*
X380919Y135237D01*
X381575Y134581D01*
Y133925D01*
X377639Y130645D02*
Y129989D01*
X378295Y129333D01*
X381575D01*
Y131301D01*
X380919Y131957D01*
X379607D01*
X378951Y131301D01*
Y129333D01*
Y126053D02*
Y127365D01*
X379607Y128021D01*
X380919D01*
X381575Y127365D01*
Y126053D01*
X380919Y125398D01*
X380263D01*
Y128021D01*
X401430Y85100D02*
X397494D01*
Y87068D01*
X398150Y87724D01*
X399462D01*
X400118Y87068D01*
Y85100D01*
X398150Y91660D02*
X397494Y91004D01*
Y89692D01*
X398150Y89036D01*
X400774D01*
X401430Y89692D01*
Y91004D01*
X400774Y91660D01*
X398150Y95595D02*
X397494Y94939D01*
Y93627D01*
X398150Y92971D01*
X398806D01*
X399462Y93627D01*
Y94939D01*
X400118Y95595D01*
X400774D01*
X401430Y94939D01*
Y93627D01*
X400774Y92971D01*
X228712Y102600D02*
Y106536D01*
X230680D01*
X231336Y105880D01*
Y104568D01*
X230680Y103912D01*
X228712D01*
X230024D02*
X231336Y102600D01*
X235271Y106536D02*
X232648D01*
Y102600D01*
X235271D01*
X232648Y104568D02*
X233960D01*
X239207Y106536D02*
X236583D01*
Y104568D01*
X237895D01*
X236583D01*
Y102600D01*
X384139Y142200D02*
X388075D01*
Y140232D01*
X387419Y139576D01*
X386107D01*
X385451Y140232D01*
Y142200D01*
X386763Y138264D02*
X384139D01*
X385451D01*
X386107Y137608D01*
X386763Y136952D01*
Y136296D01*
X384139Y132361D02*
Y133673D01*
X384795Y134328D01*
X386107D01*
X386763Y133673D01*
Y132361D01*
X386107Y131705D01*
X385451D01*
Y134328D01*
X293094Y192535D02*
X291127Y194503D01*
X289159Y192535D01*
Y198439D02*
X289815Y197127D01*
X291127Y195815D01*
X292439D01*
X293094Y196471D01*
Y197783D01*
X292439Y198439D01*
X291783D01*
X291127Y197783D01*
Y195815D01*
X289815Y199751D02*
X289159Y200407D01*
Y201719D01*
X289815Y202375D01*
X292439D01*
X293094Y201719D01*
Y200407D01*
X292439Y199751D01*
X289815D01*
X289159Y203687D02*
X291783D01*
X293094Y204999D01*
X291783Y206311D01*
X289159D01*
Y213526D02*
Y212214D01*
X289815Y211558D01*
X292439D01*
X293094Y212214D01*
Y213526D01*
X292439Y214182D01*
X289815D01*
X289159Y213526D01*
X293094Y215494D02*
X289159D01*
X293094Y218118D01*
X289159D01*
X289469Y101937D02*
X292749D01*
X293405Y102593D01*
Y103905D01*
X292749Y104561D01*
X289469D01*
X293405Y107840D02*
X289469D01*
X291437Y105872D01*
Y108496D01*
X168438Y39960D02*
X167127D01*
X167783D01*
Y36680D01*
X167127Y36024D01*
X166471D01*
X165815Y36680D01*
X169750Y39304D02*
X170406Y39960D01*
X171718D01*
X172374Y39304D01*
Y38648D01*
X171718Y37992D01*
X171062D01*
X171718D01*
X172374Y37336D01*
Y36680D01*
X171718Y36024D01*
X170406D01*
X169750Y36680D01*
X354922Y84679D02*
Y83367D01*
Y84023D01*
X358202D01*
X358858Y83367D01*
Y82711D01*
X358202Y82055D01*
X358858Y88614D02*
Y85991D01*
X356234Y88614D01*
X355578D01*
X354922Y87959D01*
Y86647D01*
X355578Y85991D01*
X-776Y214464D02*
X-2088D01*
X-1432D01*
Y217744D01*
X-2088Y218400D01*
X-2744D01*
X-3400Y217744D01*
X536Y218400D02*
X1848D01*
X1192D01*
Y214464D01*
X536Y215120D01*
X190098Y214627D02*
Y218563D01*
X192066D01*
X192722Y217907D01*
Y216595D01*
X192066Y215939D01*
X190098D01*
X191410D02*
X192722Y214627D01*
X196658D02*
X194034D01*
X196658Y217251D01*
Y217907D01*
X196002Y218563D01*
X194690D01*
X194034Y217907D01*
X200594Y218563D02*
X197970D01*
Y216595D01*
X199282Y217251D01*
X199938D01*
X200594Y216595D01*
Y215283D01*
X199938Y214627D01*
X198626D01*
X197970Y215283D01*
X175073Y214627D02*
Y218563D01*
X177041D01*
X177697Y217907D01*
Y216595D01*
X177041Y215939D01*
X175073D01*
X176385D02*
X177697Y214627D01*
X181633D02*
X179009D01*
X181633Y217251D01*
Y217907D01*
X180977Y218563D01*
X179665D01*
X179009Y217907D01*
X184913Y214627D02*
Y218563D01*
X182945Y216595D01*
X185568D01*
X98203Y219784D02*
Y223720D01*
X100171D01*
X100827Y223064D01*
Y221752D01*
X100171Y221096D01*
X98203D01*
X99515D02*
X100827Y219784D01*
X104763D02*
X102139D01*
X104763Y222408D01*
Y223064D01*
X104107Y223720D01*
X102795D01*
X102139Y223064D01*
X106075D02*
X106731Y223720D01*
X108043D01*
X108699Y223064D01*
Y220440D01*
X108043Y219784D01*
X106731D01*
X106075Y220440D01*
Y223064D01*
X60577Y220276D02*
Y224212D01*
X62545D01*
X63201Y223556D01*
Y222244D01*
X62545Y221588D01*
X60577D01*
X61889D02*
X63201Y220276D01*
X64513D02*
X65825D01*
X65169D01*
Y224212D01*
X64513Y223556D01*
X67792Y220932D02*
X68448Y220276D01*
X69760D01*
X70416Y220932D01*
Y223556D01*
X69760Y224212D01*
X68448D01*
X67792Y223556D01*
Y222900D01*
X68448Y222244D01*
X70416D01*
X264929Y153504D02*
Y150224D01*
X265585Y149569D01*
X266897D01*
X267553Y150224D01*
Y153504D01*
X268865Y152848D02*
X269521Y153504D01*
X270832D01*
X271488Y152848D01*
Y152192D01*
X270832Y151536D01*
X270177D01*
X270832D01*
X271488Y150881D01*
Y150224D01*
X270832Y149569D01*
X269521D01*
X268865Y150224D01*
X22400Y224880D02*
X25024Y222256D01*
X22400D02*
X25024Y224880D01*
X22400Y223568D02*
X25024D01*
X23712Y222256D02*
Y224880D01*
X31300Y27080D02*
X33924Y24456D01*
X31300D02*
X33924Y27080D01*
X31300Y25768D02*
X33924D01*
X32612Y24456D02*
Y27080D01*
X370900Y224880D02*
X373524Y222256D01*
X370900D02*
X373524Y224880D01*
X370900Y223568D02*
X373524D01*
X372212Y222256D02*
Y224880D01*
X360300Y38780D02*
X362924Y36156D01*
X360300D02*
X362924Y38780D01*
X360300Y37468D02*
X362924D01*
X361612Y36156D02*
Y38780D01*
X296259Y158860D02*
X292323D01*
Y160828D01*
X292979Y161484D01*
X294291D01*
X294947Y160828D01*
Y158860D01*
Y160172D02*
X296259Y161484D01*
Y162796D02*
Y164108D01*
Y163452D01*
X292323D01*
X292979Y162796D01*
Y166075D02*
X292323Y166731D01*
Y168043D01*
X292979Y168699D01*
X293635D01*
X294291Y168043D01*
X294947Y168699D01*
X295603D01*
X296259Y168043D01*
Y166731D01*
X295603Y166075D01*
X294947D01*
X294291Y166731D01*
X293635Y166075D01*
X292979D01*
X294291Y166731D02*
Y168043D01*
X363720Y145132D02*
Y149068D01*
X365688D01*
X366343Y148412D01*
Y147100D01*
X365688Y146444D01*
X363720D01*
X365032D02*
X366343Y145132D01*
X367655D02*
X368967D01*
X368311D01*
Y149068D01*
X367655Y148412D01*
X370935Y149068D02*
X373559D01*
Y148412D01*
X370935Y145788D01*
Y145132D01*
X364060Y126268D02*
Y122332D01*
X366027D01*
X366683Y122988D01*
Y125612D01*
X366027Y126268D01*
X364060D01*
X367995D02*
X370619D01*
Y125612D01*
X367995Y122988D01*
Y122332D01*
X249901Y207709D02*
X246621D01*
X245965Y207053D01*
Y205741D01*
X246621Y205085D01*
X249901D01*
X245965Y201149D02*
Y203773D01*
X248589Y201149D01*
X249245D01*
X249901Y201805D01*
Y203117D01*
X249245Y203773D01*
X137241Y219913D02*
Y223849D01*
X139208D01*
X139864Y223193D01*
Y221881D01*
X139208Y221225D01*
X137241D01*
X138552D02*
X139864Y219913D01*
X143800D02*
X141176D01*
X143800Y222537D01*
Y223193D01*
X143144Y223849D01*
X141832D01*
X141176Y223193D01*
X145112D02*
X145768Y223849D01*
X147080D01*
X147736Y223193D01*
Y222537D01*
X147080Y221881D01*
X146424D01*
X147080D01*
X147736Y221225D01*
Y220569D01*
X147080Y219913D01*
X145768D01*
X145112Y220569D01*
X285763Y126871D02*
Y130806D01*
X287731D01*
X288387Y130150D01*
Y128839D01*
X287731Y128183D01*
X285763D01*
X287074D02*
X288387Y126871D01*
X292322D02*
X289698D01*
X292322Y129495D01*
Y130150D01*
X291666Y130806D01*
X290354D01*
X289698Y130150D01*
X293634Y126871D02*
X294946D01*
X294290D01*
Y130806D01*
X293634Y130150D01*
X268229Y155737D02*
X264294D01*
Y157705D01*
X264949Y158361D01*
X266261D01*
X266917Y157705D01*
Y155737D01*
Y157049D02*
X268229Y158361D01*
Y159673D02*
Y160985D01*
Y160329D01*
X264294D01*
X264949Y159673D01*
X264294Y165576D02*
X264949Y164264D01*
X266261Y162952D01*
X267573D01*
X268229Y163609D01*
Y164920D01*
X267573Y165576D01*
X266917D01*
X266261Y164920D01*
Y162952D01*
X211059Y213949D02*
Y217885D01*
X213027D01*
X213683Y217229D01*
Y215917D01*
X213027Y215261D01*
X211059D01*
X212371D02*
X213683Y213949D01*
X214995D02*
X216307D01*
X215651D01*
Y217885D01*
X214995Y217229D01*
X220898Y217885D02*
X218275D01*
Y215917D01*
X219586Y216573D01*
X220242D01*
X220898Y215917D01*
Y214605D01*
X220242Y213949D01*
X218931D01*
X218275Y214605D01*
X267716Y187698D02*
X263780D01*
Y189666D01*
X264436Y190322D01*
X265748D01*
X266404Y189666D01*
Y187698D01*
Y189010D02*
X267716Y190322D01*
Y191634D02*
Y192946D01*
Y192290D01*
X263780D01*
X264436Y191634D01*
X267716Y196882D02*
X263780D01*
X265748Y194914D01*
Y197538D01*
X282282Y224636D02*
X286217D01*
Y222668D01*
X285561Y222012D01*
X284250D01*
X283594Y222668D01*
Y224636D01*
Y223324D02*
X282282Y222012D01*
Y220701D02*
Y219389D01*
Y220044D01*
X286217D01*
X285561Y220701D01*
Y217421D02*
X286217Y216765D01*
Y215453D01*
X285561Y214797D01*
X284906D01*
X284250Y215453D01*
Y216109D01*
Y215453D01*
X283594Y214797D01*
X282938D01*
X282282Y215453D01*
Y216765D01*
X282938Y217421D01*
X252980Y214997D02*
X249044D01*
Y216965D01*
X249700Y217621D01*
X251012D01*
X251668Y216965D01*
Y214997D01*
Y216309D02*
X252980Y217621D01*
Y218933D02*
Y220245D01*
Y219589D01*
X249044D01*
X249700Y218933D01*
X252980Y224836D02*
Y222212D01*
X250356Y224836D01*
X249700D01*
X249044Y224180D01*
Y222868D01*
X249700Y222212D01*
X191845Y176569D02*
Y180505D01*
X193813D01*
X194469Y179849D01*
Y178537D01*
X193813Y177881D01*
X191845D01*
X193157D02*
X194469Y176569D01*
X195781D02*
X197093D01*
X196437D01*
Y180505D01*
X195781Y179849D01*
X199060Y176569D02*
X200372D01*
X199716D01*
Y180505D01*
X199060Y179849D01*
X176183Y176182D02*
Y180117D01*
X178151D01*
X178806Y179462D01*
Y178150D01*
X178151Y177494D01*
X176183D01*
X177495D02*
X178806Y176182D01*
X180118D02*
X181430D01*
X180774D01*
Y180117D01*
X180118Y179462D01*
X183398D02*
X184054Y180117D01*
X185366D01*
X186022Y179462D01*
Y176838D01*
X185366Y176182D01*
X184054D01*
X183398Y176838D01*
Y179462D01*
X138028Y170846D02*
Y174782D01*
X139996D01*
X140652Y174126D01*
Y172814D01*
X139996Y172158D01*
X138028D01*
X139340D02*
X140652Y170846D01*
X141964Y171502D02*
X142620Y170846D01*
X143931D01*
X144588Y171502D01*
Y174126D01*
X143931Y174782D01*
X142620D01*
X141964Y174126D01*
Y173470D01*
X142620Y172814D01*
X144588D01*
X98393Y170148D02*
Y174084D01*
X100361D01*
X101017Y173428D01*
Y172116D01*
X100361Y171460D01*
X98393D01*
X99705D02*
X101017Y170148D01*
X102329Y173428D02*
X102985Y174084D01*
X104297D01*
X104953Y173428D01*
Y172772D01*
X104297Y172116D01*
X104953Y171460D01*
Y170804D01*
X104297Y170148D01*
X102985D01*
X102329Y170804D01*
Y171460D01*
X102985Y172116D01*
X102329Y172772D01*
Y173428D01*
X102985Y172116D02*
X104297D01*
X60964Y170249D02*
Y174184D01*
X62932D01*
X63588Y173528D01*
Y172216D01*
X62932Y171561D01*
X60964D01*
X62276D02*
X63588Y170249D01*
X64900Y174184D02*
X67524D01*
Y173528D01*
X64900Y170905D01*
Y170249D01*
X197713Y40732D02*
Y44668D01*
X199681D01*
X200337Y44012D01*
Y42700D01*
X199681Y42044D01*
X197713D01*
X199025D02*
X200337Y40732D01*
X204273Y44668D02*
X202961Y44012D01*
X201649Y42700D01*
Y41388D01*
X202305Y40732D01*
X203617D01*
X204273Y41388D01*
Y42044D01*
X203617Y42700D01*
X201649D01*
X175932Y122232D02*
Y126168D01*
X177900D01*
X178556Y125512D01*
Y124200D01*
X177900Y123544D01*
X175932D01*
X177244D02*
X178556Y122232D01*
X182492Y126168D02*
X179868D01*
Y124200D01*
X181180Y124856D01*
X181836D01*
X182492Y124200D01*
Y122888D01*
X181836Y122232D01*
X180524D01*
X179868Y122888D01*
X180373Y84320D02*
X176438D01*
Y86288D01*
X177094Y86944D01*
X178405D01*
X179061Y86288D01*
Y84320D01*
Y85632D02*
X180373Y86944D01*
Y90224D02*
X176438D01*
X178405Y88256D01*
Y90880D01*
X182832Y67832D02*
Y71768D01*
X184800D01*
X185456Y71112D01*
Y69800D01*
X184800Y69144D01*
X182832D01*
X184144D02*
X185456Y67832D01*
X186768Y71112D02*
X187424Y71768D01*
X188736D01*
X189392Y71112D01*
Y70456D01*
X188736Y69800D01*
X188080D01*
X188736D01*
X189392Y69144D01*
Y68488D01*
X188736Y67832D01*
X187424D01*
X186768Y68488D01*
X194752Y75690D02*
Y79625D01*
X196720D01*
X197376Y78969D01*
Y77658D01*
X196720Y77002D01*
X194752D01*
X196064D02*
X197376Y75690D01*
X201311D02*
X198688D01*
X201311Y78313D01*
Y78969D01*
X200655Y79625D01*
X199343D01*
X198688Y78969D01*
X133503Y113183D02*
Y117119D01*
X135471D01*
X136127Y116463D01*
Y115151D01*
X135471Y114495D01*
X133503D01*
X134815D02*
X136127Y113183D01*
X137439D02*
X138751D01*
X138095D01*
Y117119D01*
X137439Y116463D01*
X275646Y209010D02*
Y211634D01*
X274990Y212290D01*
X273678D01*
X273022Y211634D01*
Y209010D01*
X273678Y208354D01*
X274990D01*
X274334Y209666D02*
X275646Y208354D01*
X274990D02*
X275646Y209010D01*
X247288Y49168D02*
Y45232D01*
X249912D01*
X251224D02*
X252536D01*
X251880D01*
Y49168D01*
X251224Y48512D01*
X197775Y35668D02*
Y31732D01*
X199743D01*
X200399Y32388D01*
Y35012D01*
X199743Y35668D01*
X197775D01*
X204335D02*
X203023Y35012D01*
X201711Y33700D01*
Y32388D01*
X202367Y31732D01*
X203679D01*
X204335Y32388D01*
Y33044D01*
X203679Y33700D01*
X201711D01*
X256593Y157377D02*
X260529D01*
Y159345D01*
X259873Y160001D01*
X257249D01*
X256593Y159345D01*
Y157377D01*
Y163936D02*
Y161313D01*
X258561D01*
X257905Y162625D01*
Y163280D01*
X258561Y163936D01*
X259873D01*
X260529Y163280D01*
Y161969D01*
X259873Y161313D01*
X244432Y160068D02*
Y156132D01*
X246400D01*
X247056Y156788D01*
Y159412D01*
X246400Y160068D01*
X244432D01*
X250336Y156132D02*
Y160068D01*
X248368Y158100D01*
X250992D01*
X199992Y110032D02*
Y113968D01*
X198024D01*
X197368Y113312D01*
Y110688D01*
X198024Y110032D01*
X199992D01*
X196056Y110688D02*
X195400Y110032D01*
X194088D01*
X193432Y110688D01*
Y111344D01*
X194088Y112000D01*
X194744D01*
X194088D01*
X193432Y112656D01*
Y113312D01*
X194088Y113968D01*
X195400D01*
X196056Y113312D01*
X169132Y71268D02*
Y67332D01*
X171100D01*
X171756Y67988D01*
Y70612D01*
X171100Y71268D01*
X169132D01*
X175692Y67332D02*
X173068D01*
X175692Y69956D01*
Y70612D01*
X175036Y71268D01*
X173724D01*
X173068Y70612D01*
X153388Y44268D02*
Y40332D01*
X155356D01*
X156012Y40988D01*
Y43612D01*
X155356Y44268D01*
X153388D01*
X157324Y40332D02*
X158636D01*
X157980D01*
Y44268D01*
X157324Y43612D01*
X276448Y176027D02*
X275792Y176683D01*
X274480D01*
X273824Y176027D01*
Y173403D01*
X274480Y172747D01*
X275792D01*
X276448Y173403D01*
X277759Y172747D02*
X279071D01*
X278415D01*
Y176683D01*
X277759Y176027D01*
X281039D02*
X281695Y176683D01*
X283007D01*
X283663Y176027D01*
Y175371D01*
X283007Y174715D01*
X282351D01*
X283007D01*
X283663Y174059D01*
Y173403D01*
X283007Y172747D01*
X281695D01*
X281039Y173403D01*
X247701Y192946D02*
X248357Y193601D01*
Y194913D01*
X247701Y195569D01*
X245077D01*
X244421Y194913D01*
Y193601D01*
X245077Y192946D01*
X244421Y191633D02*
Y190322D01*
Y190978D01*
X248357D01*
X247701Y191633D01*
X244421Y185730D02*
Y188354D01*
X247045Y185730D01*
X247701D01*
X248357Y186386D01*
Y187698D01*
X247701Y188354D01*
X254889Y191372D02*
X254233Y190716D01*
Y189404D01*
X254889Y188748D01*
X257513D01*
X258169Y189404D01*
Y190716D01*
X257513Y191372D01*
X258169Y192684D02*
Y193996D01*
Y193340D01*
X254233D01*
X254889Y192684D01*
X258169Y195964D02*
Y197275D01*
Y196620D01*
X254233D01*
X254889Y195964D01*
X221326Y223851D02*
X220670Y224507D01*
X219358D01*
X218702Y223851D01*
Y221227D01*
X219358Y220571D01*
X220670D01*
X221326Y221227D01*
X222638Y220571D02*
X223950D01*
X223294D01*
Y224507D01*
X222638Y223851D01*
X225918D02*
X226574Y224507D01*
X227886D01*
X228542Y223851D01*
Y221227D01*
X227886Y220571D01*
X226574D01*
X225918Y221227D01*
Y223851D01*
X213656Y155312D02*
X213000Y155968D01*
X211688D01*
X211032Y155312D01*
Y152688D01*
X211688Y152032D01*
X213000D01*
X213656Y152688D01*
X214968D02*
X215624Y152032D01*
X216936D01*
X217592Y152688D01*
Y155312D01*
X216936Y155968D01*
X215624D01*
X214968Y155312D01*
Y154656D01*
X215624Y154000D01*
X217592D01*
X223256Y155212D02*
X222600Y155868D01*
X221288D01*
X220632Y155212D01*
Y152588D01*
X221288Y151932D01*
X222600D01*
X223256Y152588D01*
X224568Y155212D02*
X225224Y155868D01*
X226536D01*
X227192Y155212D01*
Y154556D01*
X226536Y153900D01*
X227192Y153244D01*
Y152588D01*
X226536Y151932D01*
X225224D01*
X224568Y152588D01*
Y153244D01*
X225224Y153900D01*
X224568Y154556D01*
Y155212D01*
X225224Y153900D02*
X226536D01*
X233356Y155212D02*
X232700Y155868D01*
X231388D01*
X230732Y155212D01*
Y152588D01*
X231388Y151932D01*
X232700D01*
X233356Y152588D01*
X234668Y155868D02*
X237292D01*
Y155212D01*
X234668Y152588D01*
Y151932D01*
X198056Y99312D02*
X197400Y99968D01*
X196088D01*
X195432Y99312D01*
Y96688D01*
X196088Y96032D01*
X197400D01*
X198056Y96688D01*
X201992Y99968D02*
X200680Y99312D01*
X199368Y98000D01*
Y96688D01*
X200024Y96032D01*
X201336D01*
X201992Y96688D01*
Y97344D01*
X201336Y98000D01*
X199368D01*
X164624Y75856D02*
X165280Y76512D01*
Y77824D01*
X164624Y78480D01*
X162000D01*
X161344Y77824D01*
Y76512D01*
X162000Y75856D01*
X165280Y71920D02*
Y74544D01*
X163312D01*
X163968Y73232D01*
Y72576D01*
X163312Y71920D01*
X162000D01*
X161344Y72576D01*
Y73888D01*
X162000Y74544D01*
X187050Y105012D02*
X186394Y105668D01*
X185082D01*
X184426Y105012D01*
Y102388D01*
X185082Y101732D01*
X186394D01*
X187050Y102388D01*
X190329Y101732D02*
Y105668D01*
X188362Y103700D01*
X190985D01*
X164624Y66756D02*
X165280Y67412D01*
Y68724D01*
X164624Y69380D01*
X162000D01*
X161344Y68724D01*
Y67412D01*
X162000Y66756D01*
X164624Y65444D02*
X165280Y64788D01*
Y63476D01*
X164624Y62820D01*
X163968D01*
X163312Y63476D01*
Y64132D01*
Y63476D01*
X162656Y62820D01*
X162000D01*
X161344Y63476D01*
Y64788D01*
X162000Y65444D01*
X135827Y96075D02*
X135171Y96731D01*
X133859D01*
X133203Y96075D01*
Y93451D01*
X133859Y92795D01*
X135171D01*
X135827Y93451D01*
X137139Y92795D02*
X138451D01*
X137795D01*
Y96731D01*
X137139Y96075D01*
X180056Y136312D02*
X179400Y136968D01*
X178088D01*
X177432Y136312D01*
Y133688D01*
X178088Y133032D01*
X179400D01*
X180056Y133688D01*
X183992Y133032D02*
X181368D01*
X183992Y135656D01*
Y136312D01*
X183336Y136968D01*
X182024D01*
X181368Y136312D01*
X152396Y112007D02*
Y108728D01*
X153052Y108071D01*
X154364D01*
X155020Y108728D01*
Y112007D01*
X156332Y108071D02*
X157643D01*
X156988D01*
Y112007D01*
X156332Y111351D01*
X348792Y150332D02*
Y154268D01*
X350760D01*
X351415Y153612D01*
Y152300D01*
X350760Y151644D01*
X348792D01*
X350104D02*
X351415Y150332D01*
X355351D02*
X352727D01*
X355351Y152956D01*
Y153612D01*
X354695Y154268D01*
X353383D01*
X352727Y153612D01*
X359287Y150332D02*
X356663D01*
X359287Y152956D01*
Y153612D01*
X358631Y154268D01*
X357319D01*
X356663Y153612D01*
X137212Y123088D02*
Y125712D01*
X136556Y126368D01*
X135244D01*
X134588Y125712D01*
Y123088D01*
X135244Y122432D01*
X136556D01*
X135900Y123744D02*
X137212Y122432D01*
X136556D02*
X137212Y123088D01*
X138524Y122432D02*
X139836D01*
X139180D01*
Y126368D01*
X138524Y125712D01*
D14*
X289917Y158806D02*
X286585Y155474D01*
Y158806D02*
X289917Y155474D01*
X288251Y158806D02*
Y155474D01*
X286585Y157140D02*
X289917D01*
X246413Y211759D02*
X243081Y208427D01*
Y211759D02*
X246413Y208427D01*
X244747Y211759D02*
Y208427D01*
X243081Y210093D02*
X246413D01*
X132430Y118965D02*
X135763Y115633D01*
X132430D02*
X135763Y118965D01*
X132430Y117299D02*
X135763D01*
X134096Y115633D02*
Y118965D01*
M02*
