G04*
G04 #@! TF.GenerationSoftware,Altium Limited,Altium Designer,24.6.1 (21)*
G04*
G04 Layer_Color=128*
%FSLAX25Y25*%
%MOIN*%
G70*
G04*
G04 #@! TF.SameCoordinates,08707EBF-9302-4E29-B135-06D0E3724A66*
G04*
G04*
G04 #@! TF.FilePolarity,Positive*
G04*
G01*
G75*
%ADD13C,0.00500*%
D13*
X85748Y130500D02*
X90079D01*
X87913Y128335D02*
Y132665D01*
X85748Y110500D02*
X90079D01*
X87913Y108335D02*
Y112665D01*
X85748Y90500D02*
X90079D01*
X87913Y88335D02*
Y92665D01*
X52008Y145500D02*
X63819D01*
X57913Y139594D02*
Y151406D01*
X52008Y75500D02*
X63819D01*
X57913Y69595D02*
Y81406D01*
X361910Y23622D02*
X375689D01*
X368799Y16732D02*
Y30512D01*
X366807Y209705D02*
X380587D01*
X373697Y202815D02*
Y216595D01*
X32874Y11909D02*
X46654D01*
X39764Y5020D02*
Y18799D01*
X23927Y209705D02*
X37706D01*
X30816Y202815D02*
Y216595D01*
X363186Y89219D02*
X367086D01*
X365136Y87269D02*
Y91169D01*
X363186Y99062D02*
X367086D01*
X365136Y97112D02*
Y101012D01*
X363186Y108905D02*
X367086D01*
X365136Y106955D02*
Y110855D01*
X277207Y31000D02*
X281107D01*
X279157Y29050D02*
Y32950D01*
X287050Y31000D02*
X290950D01*
X289000Y29050D02*
Y32950D01*
X274016Y48500D02*
X275984D01*
X275000Y47516D02*
Y49484D01*
X221100Y165500D02*
X223900D01*
X222500Y164100D02*
Y166900D01*
X286516Y183500D02*
X288484D01*
X287500Y182516D02*
Y184484D01*
X293016Y167000D02*
X294984D01*
X294000Y166016D02*
Y167984D01*
X272563Y132000D02*
X280437D01*
X276500Y128063D02*
Y135937D01*
X268516Y187500D02*
X270484D01*
X269500Y186516D02*
Y188484D01*
X271516Y210000D02*
X273484D01*
X272500Y209016D02*
Y210984D01*
X246016Y221500D02*
X247984D01*
X247000Y220516D02*
Y222484D01*
X176016Y164500D02*
X177984D01*
X177000Y163516D02*
Y165484D01*
X176516Y201000D02*
X178484D01*
X177500Y200016D02*
Y201984D01*
X254016Y162500D02*
X255984D01*
X255000Y161516D02*
Y163484D01*
X283016Y170000D02*
X284984D01*
X284000Y169016D02*
Y170984D01*
X285516Y163000D02*
X287484D01*
X286500Y162016D02*
Y163984D01*
X294016Y119000D02*
X295984D01*
X295000Y118016D02*
Y119984D01*
X272016Y163000D02*
X273984D01*
X273000Y162016D02*
Y163984D01*
X214516Y192000D02*
X216484D01*
X215500Y191016D02*
Y192984D01*
X282516Y199000D02*
X284484D01*
X283500Y198016D02*
Y199984D01*
X278300Y212319D02*
X280269D01*
X279284Y211335D02*
Y213303D01*
X143409Y43000D02*
X144591D01*
X144000Y42409D02*
Y43591D01*
X177409Y53000D02*
X178591D01*
X178000Y52409D02*
Y53591D01*
X272563Y75500D02*
X280437D01*
X276500Y71563D02*
Y79437D01*
M02*
