G04*
G04 #@! TF.GenerationSoftware,Altium Limited,Altium Designer,23.8.1 (32)*
G04*
G04 Layer_Color=2752767*
%FSLAX25Y25*%
%MOIN*%
G70*
G04*
G04 #@! TF.SameCoordinates,5A361EC5-2A83-46BB-980A-506F3EB005D7*
G04*
G04*
G04 #@! TF.FilePolarity,Positive*
G04*
G01*
G75*
%ADD13C,0.00500*%
%ADD72C,0.00667*%
D13*
X54331Y33118D02*
X52331Y37118D01*
X56331D01*
X54331Y33118D01*
Y156976D02*
X52331Y160976D01*
X56331D01*
X54331Y156976D01*
X366799Y21622D02*
Y25622D01*
X370799D01*
Y21622D01*
X366799D01*
X371697Y207705D02*
Y211705D01*
X375697D01*
Y207705D01*
X371697D01*
X37764Y9910D02*
Y13909D01*
X41764D01*
Y9910D01*
X37764D01*
X28816Y207705D02*
Y211705D01*
X32816D01*
Y207705D01*
X28816D01*
X365136Y87219D02*
X366136Y88219D01*
X367136D01*
X366136Y89219D01*
X367136Y90219D01*
X366136D01*
X365136Y91219D01*
X364136Y90219D01*
X363136D01*
X364136Y89219D01*
X363136Y88219D01*
X364136D01*
X365136Y87219D01*
Y97062D02*
X366136Y98062D01*
X367136D01*
X366136Y99062D01*
X367136Y100062D01*
X366136D01*
X365136Y101062D01*
X364136Y100062D01*
X363136D01*
X364136Y99062D01*
X363136Y98062D01*
X364136D01*
X365136Y97062D01*
Y106905D02*
X366136Y107905D01*
X367136D01*
X366136Y108905D01*
X367136Y109905D01*
X366136D01*
X365136Y110905D01*
X364136Y109905D01*
X363136D01*
X364136Y108905D01*
X363136Y107905D01*
X364136D01*
X365136Y106905D01*
X279157Y29000D02*
X280157Y30000D01*
X281157D01*
X280157Y31000D01*
X281157Y32000D01*
X280157D01*
X279157Y33000D01*
X278157Y32000D01*
X277157D01*
X278157Y31000D01*
X277157Y30000D01*
X278157D01*
X279157Y29000D01*
X289000D02*
X290000Y30000D01*
X291000D01*
X290000Y31000D01*
X291000Y32000D01*
X290000D01*
X289000Y33000D01*
X288000Y32000D01*
X287000D01*
X288000Y31000D01*
X287000Y30000D01*
X288000D01*
X289000Y29000D01*
X273000Y46500D02*
X274000D01*
X275000Y47500D01*
X276000Y46500D01*
X277000D01*
Y47500D01*
X276000Y48500D01*
X277000Y49500D01*
Y50500D01*
X276000D01*
X275000Y49500D01*
X274000Y50500D01*
X273000D01*
Y49500D01*
X274000Y48500D01*
X273000Y47500D01*
Y46500D01*
X220500Y165500D02*
X222500Y167500D01*
X224500Y165500D01*
X222500Y163500D01*
X220500Y165500D01*
X285500Y181500D02*
X286500D01*
X287500Y182500D01*
X288500Y181500D01*
X289500D01*
Y182500D01*
X288500Y183500D01*
X289500Y184500D01*
Y185500D01*
X288500D01*
X287500Y184500D01*
X286500Y185500D01*
X285500D01*
Y184500D01*
X286500Y183500D01*
X285500Y182500D01*
Y181500D01*
X292000Y165000D02*
X293000D01*
X294000Y166000D01*
X295000Y165000D01*
X296000D01*
Y166000D01*
X295000Y167000D01*
X296000Y168000D01*
Y169000D01*
X295000D01*
X294000Y168000D01*
X293000Y169000D01*
X292000D01*
Y168000D01*
X293000Y167000D01*
X292000Y166000D01*
Y165000D01*
X274500Y130000D02*
X275500Y132000D01*
X274500Y134000D01*
X276500Y133000D01*
X278500Y134000D01*
X277500Y132000D01*
X278500Y130000D01*
X276500Y131000D01*
X274500Y130000D01*
X267500Y185500D02*
X268500D01*
X269500Y186500D01*
X270500Y185500D01*
X271500D01*
Y186500D01*
X270500Y187500D01*
X271500Y188500D01*
Y189500D01*
X270500D01*
X269500Y188500D01*
X268500Y189500D01*
X267500D01*
Y188500D01*
X268500Y187500D01*
X267500Y186500D01*
Y185500D01*
X270500Y208000D02*
X271500D01*
X272500Y209000D01*
X273500Y208000D01*
X274500D01*
Y209000D01*
X273500Y210000D01*
X274500Y211000D01*
Y212000D01*
X273500D01*
X272500Y211000D01*
X271500Y212000D01*
X270500D01*
Y211000D01*
X271500Y210000D01*
X270500Y209000D01*
Y208000D01*
X245000Y219500D02*
X246000D01*
X247000Y220500D01*
X248000Y219500D01*
X249000D01*
Y220500D01*
X248000Y221500D01*
X249000Y222500D01*
Y223500D01*
X248000D01*
X247000Y222500D01*
X246000Y223500D01*
X245000D01*
Y222500D01*
X246000Y221500D01*
X245000Y220500D01*
Y219500D01*
X175000Y162500D02*
X176000D01*
X177000Y163500D01*
X178000Y162500D01*
X179000D01*
Y163500D01*
X178000Y164500D01*
X179000Y165500D01*
Y166500D01*
X178000D01*
X177000Y165500D01*
X176000Y166500D01*
X175000D01*
Y165500D01*
X176000Y164500D01*
X175000Y163500D01*
Y162500D01*
X175500Y199000D02*
X176500D01*
X177500Y200000D01*
X178500Y199000D01*
X179500D01*
Y200000D01*
X178500Y201000D01*
X179500Y202000D01*
Y203000D01*
X178500D01*
X177500Y202000D01*
X176500Y203000D01*
X175500D01*
Y202000D01*
X176500Y201000D01*
X175500Y200000D01*
Y199000D01*
X253000Y160500D02*
X254000D01*
X255000Y161500D01*
X256000Y160500D01*
X257000D01*
Y161500D01*
X256000Y162500D01*
X257000Y163500D01*
Y164500D01*
X256000D01*
X255000Y163500D01*
X254000Y164500D01*
X253000D01*
Y163500D01*
X254000Y162500D01*
X253000Y161500D01*
Y160500D01*
X282000Y168000D02*
X283000D01*
X284000Y169000D01*
X285000Y168000D01*
X286000D01*
Y169000D01*
X285000Y170000D01*
X286000Y171000D01*
Y172000D01*
X285000D01*
X284000Y171000D01*
X283000Y172000D01*
X282000D01*
Y171000D01*
X283000Y170000D01*
X282000Y169000D01*
Y168000D01*
X284500Y161000D02*
X285500D01*
X286500Y162000D01*
X287500Y161000D01*
X288500D01*
Y162000D01*
X287500Y163000D01*
X288500Y164000D01*
Y165000D01*
X287500D01*
X286500Y164000D01*
X285500Y165000D01*
X284500D01*
Y164000D01*
X285500Y163000D01*
X284500Y162000D01*
Y161000D01*
X293000Y117000D02*
X294000D01*
X295000Y118000D01*
X296000Y117000D01*
X297000D01*
Y118000D01*
X296000Y119000D01*
X297000Y120000D01*
Y121000D01*
X296000D01*
X295000Y120000D01*
X294000Y121000D01*
X293000D01*
Y120000D01*
X294000Y119000D01*
X293000Y118000D01*
Y117000D01*
X271000Y161000D02*
X272000D01*
X273000Y162000D01*
X274000Y161000D01*
X275000D01*
Y162000D01*
X274000Y163000D01*
X275000Y164000D01*
Y165000D01*
X274000D01*
X273000Y164000D01*
X272000Y165000D01*
X271000D01*
Y164000D01*
X272000Y163000D01*
X271000Y162000D01*
Y161000D01*
X213500Y190000D02*
X214500D01*
X215500Y191000D01*
X216500Y190000D01*
X217500D01*
Y191000D01*
X216500Y192000D01*
X217500Y193000D01*
Y194000D01*
X216500D01*
X215500Y193000D01*
X214500Y194000D01*
X213500D01*
Y193000D01*
X214500Y192000D01*
X213500Y191000D01*
Y190000D01*
X281500Y197000D02*
X282500D01*
X283500Y198000D01*
X284500Y197000D01*
X285500D01*
Y198000D01*
X284500Y199000D01*
X285500Y200000D01*
Y201000D01*
X284500D01*
X283500Y200000D01*
X282500Y201000D01*
X281500D01*
Y200000D01*
X282500Y199000D01*
X281500Y198000D01*
Y197000D01*
X277284Y210319D02*
X278284D01*
X279284Y211319D01*
X280284Y210319D01*
X281284D01*
Y211319D01*
X280284Y212319D01*
X281284Y213319D01*
Y214319D01*
X280284D01*
X279284Y213319D01*
X278284Y214319D01*
X277284D01*
Y213319D01*
X278284Y212319D01*
X277284Y211319D01*
Y210319D01*
X143000Y42000D02*
Y41000D01*
X145000D01*
Y42000D01*
X146000D01*
Y44000D01*
X145000D01*
Y45000D01*
X143000D01*
Y44000D01*
X142000D01*
Y42000D01*
X143000D01*
X177000Y52000D02*
Y51000D01*
X179000D01*
Y52000D01*
X180000D01*
Y54000D01*
X179000D01*
Y55000D01*
X177000D01*
Y54000D01*
X176000D01*
Y52000D01*
X177000D01*
X274500Y73500D02*
X275500Y75500D01*
X274500Y77500D01*
X276500Y76500D01*
X278500Y77500D01*
X277500Y75500D01*
X278500Y73500D01*
X276500Y74500D01*
X274500Y73500D01*
D72*
X111449Y136417D02*
X111220Y137347D01*
X110585Y138063D01*
X109690Y138403D01*
X108740Y138287D01*
X107952Y137744D01*
X107507Y136896D01*
Y135939D01*
X107952Y135091D01*
X108740Y134547D01*
X109690Y134432D01*
X110585Y134771D01*
X111220Y135488D01*
X111449Y136417D01*
X91764D02*
X91535Y137347D01*
X90900Y138063D01*
X90005Y138403D01*
X89055Y138287D01*
X88267Y137744D01*
X87822Y136896D01*
Y135939D01*
X88267Y135091D01*
X89055Y134547D01*
X90005Y134432D01*
X90900Y134771D01*
X91535Y135488D01*
X91764Y136417D01*
X111449Y97047D02*
X111220Y97977D01*
X110585Y98693D01*
X109690Y99033D01*
X108740Y98917D01*
X107952Y98374D01*
X107507Y97526D01*
Y96569D01*
X107952Y95721D01*
X108740Y95177D01*
X109690Y95062D01*
X110585Y95401D01*
X111220Y96118D01*
X111449Y97047D01*
X91764D02*
X91535Y97977D01*
X90900Y98693D01*
X90005Y99033D01*
X89055Y98917D01*
X88267Y98374D01*
X87822Y97526D01*
Y96569D01*
X88267Y95721D01*
X89055Y95177D01*
X90005Y95062D01*
X90900Y95401D01*
X91535Y96118D01*
X91764Y97047D01*
X111449Y57677D02*
X111220Y58607D01*
X110585Y59323D01*
X109690Y59662D01*
X108740Y59547D01*
X107952Y59003D01*
X107507Y58156D01*
Y57199D01*
X107952Y56351D01*
X108740Y55807D01*
X109690Y55692D01*
X110585Y56031D01*
X111220Y56748D01*
X111449Y57677D01*
X91764D02*
X91535Y58607D01*
X90900Y59323D01*
X90005Y59662D01*
X89055Y59547D01*
X88267Y59003D01*
X87822Y58156D01*
Y57199D01*
X88267Y56351D01*
X89055Y55807D01*
X90005Y55692D01*
X90900Y56031D01*
X91535Y56748D01*
X91764Y57677D01*
M02*
