M48
;Layer_Color=9474304
;FILE_FORMAT=2:4
INCH,TZ
;TYPE=PLATED
T01F00S00C0.0118
T02F00S00C0.0280
T03F00S00C0.0390
T04F00S00C0.1102
T05F00S00C0.1378
;TYPE=NON_PLATED
T06F00S00C0.1181
%
T01
X14370Y9232
X17618Y9754
T02
X18012Y19646
X19360Y20226
X19813Y21811
X25148Y22018
X28760Y20699
X28957Y17461
X28986Y16319
X26610Y15620
X25580Y16170
X25240Y14250
X26250Y14240
X27360Y13440
X28248Y12283
T03
X36494Y8951
X18484Y3002
X17500
X36494Y9936
Y10920
T04
X8957Y5797
X10925
Y9734
X8957
Y13671
X10925
T05
X36860Y2392
X3957Y1220
X3062Y21000
X37350
T06
X5413Y3541
Y15927
M30
