G04*
G04 #@! TF.GenerationSoftware,Altium Limited,Altium Designer,24.6.1 (21)*
G04*
G04 Layer_Color=8388736*
%FSLAX25Y25*%
%MOIN*%
G70*
G04*
G04 #@! TF.SameCoordinates,08707EBF-9302-4E29-B135-06D0E3724A66*
G04*
G04*
G04 #@! TF.FilePolarity,Negative*
G04*
G01*
G75*
%ADD21R,0.03700X0.09800*%
%ADD22R,0.26200X0.26800*%
%ADD24R,0.05700X0.13600*%
%ADD30R,0.09500X0.20500*%
%ADD32R,0.09700X0.06700*%
%ADD33R,0.02000X0.03850*%
%ADD34R,0.09843X0.05200*%
%ADD35R,0.07099X0.10642*%
G04:AMPARAMS|DCode=36|XSize=47.37mil|YSize=63.91mil|CornerRadius=8.92mil|HoleSize=0mil|Usage=FLASHONLY|Rotation=90.000|XOffset=0mil|YOffset=0mil|HoleType=Round|Shape=RoundedRectangle|*
%AMROUNDEDRECTD36*
21,1,0.04737,0.04606,0,0,90.0*
21,1,0.02953,0.06391,0,0,90.0*
1,1,0.01784,0.02303,0.01476*
1,1,0.01784,0.02303,-0.01476*
1,1,0.01784,-0.02303,-0.01476*
1,1,0.01784,-0.02303,0.01476*
%
%ADD36ROUNDEDRECTD36*%
G04:AMPARAMS|DCode=37|XSize=47.37mil|YSize=63.91mil|CornerRadius=8.92mil|HoleSize=0mil|Usage=FLASHONLY|Rotation=0.000|XOffset=0mil|YOffset=0mil|HoleType=Round|Shape=RoundedRectangle|*
%AMROUNDEDRECTD37*
21,1,0.04737,0.04606,0,0,0.0*
21,1,0.02953,0.06391,0,0,0.0*
1,1,0.01784,0.01476,-0.02303*
1,1,0.01784,-0.01476,-0.02303*
1,1,0.01784,-0.01476,0.02303*
1,1,0.01784,0.01476,0.02303*
%
%ADD37ROUNDEDRECTD37*%
%ADD38R,0.05524X0.05524*%
%ADD39R,0.07099X0.06706*%
%ADD40R,0.07808X0.23162*%
%ADD41R,0.03950X0.02572*%
G04:AMPARAMS|DCode=42|XSize=48.55mil|YSize=28.47mil|CornerRadius=6.56mil|HoleSize=0mil|Usage=FLASHONLY|Rotation=0.000|XOffset=0mil|YOffset=0mil|HoleType=Round|Shape=RoundedRectangle|*
%AMROUNDEDRECTD42*
21,1,0.04855,0.01535,0,0,0.0*
21,1,0.03543,0.02847,0,0,0.0*
1,1,0.01312,0.01772,-0.00768*
1,1,0.01312,-0.01772,-0.00768*
1,1,0.01312,-0.01772,0.00768*
1,1,0.01312,0.01772,0.00768*
%
%ADD42ROUNDEDRECTD42*%
G04:AMPARAMS|DCode=43|XSize=55.64mil|YSize=36.74mil|CornerRadius=6.59mil|HoleSize=0mil|Usage=FLASHONLY|Rotation=0.000|XOffset=0mil|YOffset=0mil|HoleType=Round|Shape=RoundedRectangle|*
%AMROUNDEDRECTD43*
21,1,0.05564,0.02357,0,0,0.0*
21,1,0.04247,0.03674,0,0,0.0*
1,1,0.01317,0.02123,-0.01178*
1,1,0.01317,-0.02123,-0.01178*
1,1,0.01317,-0.02123,0.01178*
1,1,0.01317,0.02123,0.01178*
%
%ADD43ROUNDEDRECTD43*%
G04:AMPARAMS|DCode=44|XSize=55.64mil|YSize=36.74mil|CornerRadius=6.59mil|HoleSize=0mil|Usage=FLASHONLY|Rotation=90.000|XOffset=0mil|YOffset=0mil|HoleType=Round|Shape=RoundedRectangle|*
%AMROUNDEDRECTD44*
21,1,0.05564,0.02357,0,0,90.0*
21,1,0.04247,0.03674,0,0,90.0*
1,1,0.01317,0.01178,0.02123*
1,1,0.01317,0.01178,-0.02123*
1,1,0.01317,-0.01178,-0.02123*
1,1,0.01317,-0.01178,0.02123*
%
%ADD44ROUNDEDRECTD44*%
%ADD45R,0.06509X0.05131*%
%ADD46R,0.05131X0.06509*%
G04:AMPARAMS|DCode=47|XSize=55.64mil|YSize=31.23mil|CornerRadius=9.81mil|HoleSize=0mil|Usage=FLASHONLY|Rotation=270.000|XOffset=0mil|YOffset=0mil|HoleType=Round|Shape=RoundedRectangle|*
%AMROUNDEDRECTD47*
21,1,0.05564,0.01161,0,0,270.0*
21,1,0.03602,0.03123,0,0,270.0*
1,1,0.01961,-0.00581,-0.01801*
1,1,0.01961,-0.00581,0.01801*
1,1,0.01961,0.00581,0.01801*
1,1,0.01961,0.00581,-0.01801*
%
%ADD47ROUNDEDRECTD47*%
%ADD48R,0.07296X0.07296*%
%ADD49C,0.07296*%
%ADD50C,0.16548*%
%ADD51C,0.18517*%
%ADD52C,0.05900*%
%ADD53C,0.12611*%
D21*
X154484Y71800D02*
D03*
X172516D02*
D03*
D22*
X163500Y97000D02*
D03*
D24*
X185050Y102000D02*
D03*
X202950D02*
D03*
D30*
X216150Y63000D02*
D03*
X255850D02*
D03*
D32*
X88142Y184821D02*
D03*
X65542D02*
D03*
X125942D02*
D03*
X103342D02*
D03*
X163742Y184820D02*
D03*
X141142D02*
D03*
Y208987D02*
D03*
X163742D02*
D03*
X65542D02*
D03*
X88142D02*
D03*
X103342D02*
D03*
X125942D02*
D03*
D33*
X240945Y198463D02*
D03*
X233465D02*
D03*
Y209213D02*
D03*
X237205D02*
D03*
X240945D02*
D03*
X263740Y167625D02*
D03*
X256260D02*
D03*
Y178375D02*
D03*
X260000D02*
D03*
X263740D02*
D03*
D34*
X299476Y99528D02*
D03*
Y109528D02*
D03*
X341076Y99528D02*
D03*
Y109528D02*
D03*
D35*
X250000Y20279D02*
D03*
Y6500D02*
D03*
D36*
X256496Y200905D02*
D03*
Y208268D02*
D03*
X353136Y124005D02*
D03*
Y116642D02*
D03*
X196500Y49681D02*
D03*
Y42319D02*
D03*
X256609Y102684D02*
D03*
Y95322D02*
D03*
X247059Y102684D02*
D03*
Y95322D02*
D03*
X237509Y102684D02*
D03*
Y95322D02*
D03*
X247500Y170819D02*
D03*
Y178181D02*
D03*
X133500Y40319D02*
D03*
Y47681D02*
D03*
X181000Y29681D02*
D03*
Y22319D02*
D03*
X265748Y208268D02*
D03*
Y200905D02*
D03*
X295358Y219543D02*
D03*
Y212181D02*
D03*
X278000Y176681D02*
D03*
Y169319D02*
D03*
D37*
X153309Y29405D02*
D03*
X160671D02*
D03*
X147819Y16000D02*
D03*
X155181D02*
D03*
X133500Y30500D02*
D03*
X140862D02*
D03*
X187681Y45000D02*
D03*
X180319D02*
D03*
X239362Y219500D02*
D03*
X232000D02*
D03*
X240886Y190354D02*
D03*
X233524D02*
D03*
X173362Y29500D02*
D03*
X166000D02*
D03*
X180319Y37000D02*
D03*
X187681D02*
D03*
X189500Y75000D02*
D03*
X182138D02*
D03*
X289181Y57000D02*
D03*
X281819D02*
D03*
X177225Y184843D02*
D03*
X184587D02*
D03*
X192225D02*
D03*
X199587D02*
D03*
X260271Y218321D02*
D03*
X252909D02*
D03*
X274109D02*
D03*
X266746D02*
D03*
X184362Y171000D02*
D03*
X177000D02*
D03*
X363875Y139705D02*
D03*
X371237D02*
D03*
X184587Y209154D02*
D03*
X177225D02*
D03*
X199587D02*
D03*
X192225D02*
D03*
D38*
X213563Y185701D02*
D03*
X221437D02*
D03*
D39*
X217500Y198496D02*
D03*
D40*
X163509Y48205D02*
D03*
D41*
X148091Y54602D02*
D03*
Y57161D02*
D03*
Y59720D02*
D03*
Y41807D02*
D03*
Y39248D02*
D03*
Y36689D02*
D03*
X170926D02*
D03*
Y39248D02*
D03*
Y41807D02*
D03*
Y44366D02*
D03*
Y46925D02*
D03*
Y49484D02*
D03*
Y52043D02*
D03*
Y54602D02*
D03*
Y57161D02*
D03*
Y59720D02*
D03*
D42*
X174972Y14000D02*
D03*
X184028D02*
D03*
D43*
X201728Y19500D02*
D03*
X188500D02*
D03*
D44*
X199500Y88728D02*
D03*
Y75500D02*
D03*
X268000Y92386D02*
D03*
Y105614D02*
D03*
D45*
X287358Y212319D02*
D03*
Y219406D02*
D03*
D46*
X281957Y48500D02*
D03*
X289043D02*
D03*
X371099Y131005D02*
D03*
X364013D02*
D03*
D47*
X278000Y196941D02*
D03*
X281740Y187059D02*
D03*
X274260D02*
D03*
D48*
X87913Y130500D02*
D03*
D49*
Y110500D02*
D03*
Y90500D02*
D03*
D50*
X57913Y145500D02*
D03*
Y75500D02*
D03*
D51*
X368799Y23622D02*
D03*
X373697Y209705D02*
D03*
X39764Y11909D02*
D03*
X30816Y209705D02*
D03*
D52*
X365136Y89219D02*
D03*
Y99062D02*
D03*
Y108905D02*
D03*
X279157Y31000D02*
D03*
X289000D02*
D03*
D53*
X276500Y132000D02*
D03*
Y75500D02*
D03*
M02*
