G04*
G04 #@! TF.GenerationSoftware,Altium Limited,Altium Designer,23.8.1 (32)*
G04*
G04 Layer_Color=32768*
%FSLAX25Y25*%
%MOIN*%
G70*
G04*
G04 #@! TF.SameCoordinates,5A361EC5-2A83-46BB-980A-506F3EB005D7*
G04*
G04*
G04 #@! TF.FilePolarity,Positive*
G04*
G01*
G75*
%ADD11C,0.00394*%
%ADD12C,0.00600*%
%ADD70C,0.00197*%
G36*
X168992Y213337D02*
X169592D01*
Y204637D01*
X168992D01*
Y199537D01*
X135892D01*
Y204637D01*
X135292D01*
Y213337D01*
X135892D01*
Y218437D01*
X168992D01*
Y213337D01*
D02*
G37*
G36*
X131192D02*
X131792D01*
Y204637D01*
X131192D01*
Y199537D01*
X98092D01*
Y204637D01*
X97492D01*
Y213337D01*
X98092D01*
Y218437D01*
X131192D01*
Y213337D01*
D02*
G37*
G36*
X93392D02*
X93992D01*
Y204637D01*
X93392D01*
Y199537D01*
X60292D01*
Y204637D01*
X59692D01*
Y213337D01*
X60292D01*
Y218437D01*
X93392D01*
Y213337D01*
D02*
G37*
G36*
X242445Y208289D02*
X244155D01*
Y199389D01*
X242445D01*
Y195939D01*
X231965D01*
Y199389D01*
X230255D01*
Y208289D01*
X231965D01*
Y211739D01*
X242445D01*
Y208289D01*
D02*
G37*
G36*
X131192Y189171D02*
X131792D01*
Y180471D01*
X131192D01*
Y175371D01*
X98092D01*
Y180471D01*
X97492D01*
Y189171D01*
X98092D01*
Y194271D01*
X131192D01*
Y189171D01*
D02*
G37*
G36*
X93392D02*
X93992D01*
Y180471D01*
X93392D01*
Y175371D01*
X60292D01*
Y180471D01*
X59692D01*
Y189171D01*
X60292D01*
Y194271D01*
X93392D01*
Y189171D01*
D02*
G37*
G36*
X168992Y189171D02*
X169592D01*
Y180471D01*
X168992D01*
Y175371D01*
X135892D01*
Y180471D01*
X135292D01*
Y189171D01*
X135892D01*
Y194271D01*
X168992D01*
Y189171D01*
D02*
G37*
G36*
X265240Y177450D02*
X266950D01*
Y168550D01*
X265240D01*
Y165100D01*
X254760D01*
Y168550D01*
X253050D01*
Y177450D01*
X254760D01*
Y180900D01*
X265240D01*
Y177450D01*
D02*
G37*
G36*
X334476Y112528D02*
X345076D01*
Y96527D01*
X334476D01*
Y94528D01*
X306076D01*
Y96527D01*
X295476D01*
Y112528D01*
X306076D01*
Y114527D01*
X334476D01*
Y112528D01*
D02*
G37*
G36*
X207800Y93200D02*
X180200D01*
Y110800D01*
X207800D01*
Y93200D01*
D02*
G37*
G36*
X177700Y82600D02*
X175266D01*
Y65900D01*
X169766D01*
Y75700D01*
X157234D01*
Y65900D01*
X151734D01*
Y82600D01*
X149300D01*
Y111400D01*
X177700D01*
Y82600D01*
D02*
G37*
G36*
X261600Y74250D02*
Y51750D01*
Y37400D01*
X210400D01*
Y51750D01*
Y74250D01*
Y88600D01*
X261600D01*
Y74250D01*
D02*
G37*
D11*
X206870Y205386D02*
X228130D01*
Y179402D02*
Y205386D01*
X206870Y179402D02*
X228130D01*
X206870D02*
Y205386D01*
D12*
X149300Y82600D02*
Y111400D01*
X177700D01*
Y82600D02*
Y111400D01*
X175266Y82600D02*
X177700D01*
X175266Y65900D02*
Y82600D01*
X169766Y65900D02*
X175266D01*
X169766D02*
Y75700D01*
X157234D02*
X169766D01*
X157234Y65900D02*
Y75700D01*
X151734Y65900D02*
X157234D01*
X151734D02*
Y82600D01*
X149300D02*
X151734D01*
X180200Y110800D02*
X207800D01*
X180200Y93200D02*
Y110800D01*
Y93200D02*
X207800D01*
Y110800D01*
X210400Y88600D02*
X261600D01*
X210400Y74250D02*
Y88600D01*
Y37400D02*
Y51750D01*
Y37400D02*
X261600D01*
Y51750D01*
Y74250D02*
Y88600D01*
X210400Y51750D02*
Y74250D01*
X261600Y51750D02*
Y74250D01*
X93992Y180471D02*
Y189171D01*
X93392Y180471D02*
X93992D01*
X59692D02*
X60292D01*
X59692D02*
Y189171D01*
X60292D01*
X93392D02*
X93992D01*
X93392D02*
Y194271D01*
Y175371D02*
Y180471D01*
X60292Y175371D02*
X93392D01*
X60292D02*
Y180471D01*
Y189171D02*
Y194271D01*
X93392D01*
X131792Y180471D02*
Y189171D01*
X131192Y180471D02*
X131792D01*
X97492D02*
X98092D01*
X97492D02*
Y189171D01*
X98092D01*
X131192D02*
X131792D01*
X131192D02*
Y194271D01*
Y175371D02*
Y180471D01*
X98092Y175371D02*
X131192D01*
X98092D02*
Y180471D01*
Y189171D02*
Y194271D01*
X131192D01*
X169592Y180471D02*
Y189171D01*
X168992Y180471D02*
X169592D01*
X135292D02*
X135892D01*
X135292D02*
Y189171D01*
X135892D01*
X168992D02*
X169592D01*
X168992D02*
Y194271D01*
Y175371D02*
Y180471D01*
X135892Y175371D02*
X168992D01*
X135892D02*
Y180471D01*
Y189171D02*
Y194271D01*
X168992D01*
X135892Y218437D02*
X168992D01*
X135892Y213337D02*
Y218437D01*
Y199537D02*
Y204637D01*
Y199537D02*
X168992D01*
Y204637D01*
Y213337D02*
Y218437D01*
Y213337D02*
X169592D01*
X135292D02*
X135892D01*
X135292Y204637D02*
Y213337D01*
Y204637D02*
X135892D01*
X168992D02*
X169592D01*
Y213337D01*
X230255Y199389D02*
Y208289D01*
Y199389D02*
X231965D01*
Y195939D02*
Y199389D01*
Y195939D02*
X242445D01*
Y199389D01*
X244155D01*
Y208289D01*
X242445D02*
X244155D01*
X242445D02*
Y211738D01*
X231965D02*
X242445D01*
X231965Y208289D02*
Y211738D01*
X230255Y208289D02*
X231965D01*
X253050Y168550D02*
Y177450D01*
Y168550D02*
X254760D01*
Y165100D02*
Y168550D01*
Y165100D02*
X265240D01*
Y168550D01*
X266950D01*
Y177450D01*
X265240D02*
X266950D01*
X265240D02*
Y180900D01*
X254760D02*
X265240D01*
X254760Y177450D02*
Y180900D01*
X253050Y177450D02*
X254760D01*
X60292Y218437D02*
X93392D01*
X60292Y213337D02*
Y218437D01*
Y199537D02*
Y204637D01*
Y199537D02*
X93392D01*
Y204637D01*
Y213337D02*
Y218437D01*
Y213337D02*
X93992D01*
X59692D02*
X60292D01*
X59692Y204637D02*
Y213337D01*
Y204637D02*
X60292D01*
X93392D02*
X93992D01*
Y213337D01*
X98092Y218437D02*
X131192D01*
X98092Y213337D02*
Y218437D01*
Y199537D02*
Y204637D01*
Y199537D02*
X131192D01*
Y204637D01*
Y213337D02*
Y218437D01*
Y213337D02*
X131792D01*
X97492D02*
X98092D01*
X97492Y204637D02*
Y213337D01*
Y204637D02*
X98092D01*
X131192D02*
X131792D01*
Y213337D01*
X295476Y96527D02*
Y112528D01*
X306076D01*
Y114527D01*
X334476D01*
Y112528D02*
Y114527D01*
Y112528D02*
X345076D01*
Y96527D02*
Y112528D01*
X334476Y96527D02*
X345076D01*
X334476Y94528D02*
Y96527D01*
X306076Y94528D02*
X334476D01*
X306076D02*
Y96527D01*
X295476D02*
X306076D01*
D70*
X-4055Y25473D02*
X118504D01*
X-4055D02*
Y168622D01*
X118504D01*
Y25473D02*
Y168622D01*
X254134Y22839D02*
Y26185D01*
Y594D02*
Y3941D01*
X245866Y594D02*
X254134D01*
X245866D02*
Y3941D01*
Y22839D02*
Y26185D01*
X254134D01*
Y22839D02*
X256201D01*
X259449Y19590D01*
Y3941D02*
Y19590D01*
X254134Y3941D02*
X259449D01*
X240551D02*
X245866D01*
X240551D02*
Y19590D01*
X243799Y22839D01*
X245866D01*
X252716Y197933D02*
Y211240D01*
X260276D01*
Y197933D02*
Y211240D01*
X252716Y197933D02*
X260276D01*
X150336Y33184D02*
X163643D01*
Y25625D02*
Y33184D01*
X150336Y25625D02*
X163643D01*
X150336D02*
Y33184D01*
X144846Y19780D02*
X158153D01*
Y12220D02*
Y19780D01*
X144846Y12220D02*
X158153D01*
X144846D02*
Y19780D01*
X349357Y113670D02*
X356916D01*
Y126977D01*
X349357D02*
X356916D01*
X349357Y113670D02*
Y126977D01*
X145532Y61984D02*
X173485D01*
Y34425D02*
Y61984D01*
X145532Y34425D02*
X173485D01*
X145532D02*
Y61984D01*
X130528Y34280D02*
X143835D01*
Y26720D02*
Y34280D01*
X130528Y26720D02*
X143835D01*
X130528D02*
Y34280D01*
X177347Y41220D02*
X190654D01*
X177347D02*
Y48780D01*
X190654D01*
Y41220D02*
Y48780D01*
X200280Y39347D02*
Y52653D01*
X192720Y39347D02*
X200280D01*
X192720D02*
Y52653D01*
X200280D01*
X260388Y92349D02*
Y105657D01*
X252829Y92349D02*
X260388D01*
X252829D02*
Y105657D01*
X260388D01*
X250838Y92349D02*
Y105657D01*
X243279Y92349D02*
X250838D01*
X243279D02*
Y105657D01*
X250838D01*
X241288Y92349D02*
Y105657D01*
X233729Y92349D02*
X241288D01*
X233729D02*
Y105657D01*
X241288D01*
X229028Y215721D02*
X242335D01*
X229028D02*
Y223280D01*
X242335D01*
Y215721D02*
Y223280D01*
X230551Y186575D02*
X243858D01*
X230551D02*
Y194134D01*
X243858D01*
Y186575D02*
Y194134D01*
X243720Y167847D02*
Y181154D01*
X251279D01*
Y167847D02*
Y181154D01*
X243720Y167847D02*
X251279D01*
X171961Y10339D02*
Y17661D01*
Y10339D02*
X187039D01*
Y17661D01*
X171961D02*
X187039D01*
X185114Y15169D02*
X205114D01*
Y23831D01*
X185114D02*
X205114D01*
X185114Y15169D02*
Y23831D01*
X203831Y72114D02*
Y92114D01*
X195169D02*
X203831D01*
X195169Y72114D02*
Y92114D01*
Y72114D02*
X203831D01*
X263669Y89000D02*
Y109000D01*
Y89000D02*
X272331D01*
Y109000D01*
X263669D02*
X272331D01*
X283421Y209169D02*
Y222555D01*
X291295Y209169D02*
Y222555D01*
X283421Y209169D02*
X291295D01*
X283421Y222555D02*
X291295D01*
X278807Y52437D02*
X292193D01*
X278807Y44563D02*
X292193D01*
X278807D02*
Y52437D01*
X292193Y44563D02*
Y52437D01*
X272094Y183693D02*
X283906D01*
Y187472D01*
X285086D01*
Y196528D01*
X280165D02*
X285086D01*
X280165D02*
Y200307D01*
X275835D02*
X280165D01*
X275835Y196528D02*
Y200307D01*
X270913Y196528D02*
X275835D01*
X270913Y187472D02*
Y196528D01*
Y187472D02*
X272094D01*
Y183693D02*
Y187472D01*
X129720Y50654D02*
X137280D01*
X129720Y37346D02*
Y50654D01*
Y37346D02*
X137280D01*
Y50654D01*
X184780Y19346D02*
Y32653D01*
X177220Y19346D02*
X184780D01*
X177220D02*
Y32653D01*
X184780D01*
X163028Y25720D02*
X176335D01*
X163028D02*
Y33280D01*
X176335D01*
Y25720D02*
Y33280D01*
X177347Y40780D02*
X190654D01*
Y33220D02*
Y40780D01*
X177347Y33220D02*
X190654D01*
X177347D02*
Y40780D01*
X179165Y71220D02*
X192472D01*
X179165D02*
Y78780D01*
X192472D01*
Y71220D02*
Y78780D01*
X278846Y53220D02*
X292154D01*
X278846D02*
Y60780D01*
X292154D01*
Y53220D02*
Y60780D01*
X174252Y188622D02*
X187559D01*
Y181063D02*
Y188622D01*
X174252Y181063D02*
X187559D01*
X174252D02*
Y188622D01*
X189252D02*
X202559D01*
Y181063D02*
Y188622D01*
X189252Y181063D02*
X202559D01*
X189252D02*
Y188622D01*
X249936Y214542D02*
X263243D01*
X249936D02*
Y222101D01*
X263243D01*
Y214542D02*
Y222101D01*
X263774Y214542D02*
X277081D01*
X263774D02*
Y222101D01*
X277081D01*
Y214542D02*
Y222101D01*
X269528Y197933D02*
Y211240D01*
X261968Y197933D02*
X269528D01*
X261968D02*
Y211240D01*
X269528D01*
X299138Y209209D02*
Y222516D01*
X291579Y209209D02*
X299138D01*
X291579D02*
Y222516D01*
X299138D01*
X174028Y167220D02*
X187335D01*
X174028D02*
Y174779D01*
X187335D01*
Y167220D02*
Y174779D01*
X360863Y127068D02*
X374249D01*
X360863Y134942D02*
X374249D01*
Y127068D02*
Y134942D01*
X360863Y127068D02*
Y134942D01*
X360902Y143484D02*
X374209D01*
Y135925D02*
Y143484D01*
X360902Y135925D02*
X374209D01*
X360902D02*
Y143484D01*
X281779Y166347D02*
Y179654D01*
X274220Y166347D02*
X281779D01*
X274220D02*
Y179654D01*
X281779D01*
X174252Y205374D02*
Y212933D01*
Y205374D02*
X187559D01*
Y212933D01*
X174252D02*
X187559D01*
X189252Y205374D02*
Y212933D01*
Y205374D02*
X202559D01*
Y212933D01*
X189252D02*
X202559D01*
M02*
