G04*
G04 #@! TF.GenerationSoftware,Altium Limited,Altium Designer,23.8.1 (32)*
G04*
G04 Layer_Color=16711935*
%FSLAX25Y25*%
%MOIN*%
G70*
G04*
G04 #@! TF.SameCoordinates,BB991CD9-E61E-4A70-A8D9-3A71C13EE87A*
G04*
G04*
G04 #@! TF.FilePolarity,Positive*
G04*
G01*
G75*
%ADD65C,0.00709*%
G36*
X158495Y205733D02*
X145995D01*
Y212833D01*
X158495D01*
Y205733D01*
D02*
G37*
G36*
X120695D02*
X108195D01*
Y212833D01*
X120695D01*
Y205733D01*
D02*
G37*
G36*
X82895D02*
X70395D01*
Y212833D01*
X82895D01*
Y205733D01*
D02*
G37*
G36*
X120695Y181567D02*
X108195D01*
Y188666D01*
X120695D01*
Y181567D01*
D02*
G37*
G36*
X82895D02*
X70395D01*
Y188666D01*
X82895D01*
Y181567D01*
D02*
G37*
G36*
X158495Y181566D02*
X145995D01*
Y188666D01*
X158495D01*
Y181566D01*
D02*
G37*
G36*
X193612Y140800D02*
X181812D01*
Y154200D01*
X193612D01*
Y140800D01*
D02*
G37*
D65*
X339862Y215437D02*
X339569Y216144D01*
X338862Y216437D01*
Y12500D02*
X339569Y12793D01*
X339862Y13500D01*
X301492Y216437D02*
X300785Y216144D01*
X300492Y215437D01*
Y13500D02*
X300785Y12793D01*
X301492Y12500D01*
X393701Y225063D02*
X393567Y226082D01*
X393173Y227031D01*
X392548Y227847D01*
X391732Y228472D01*
X390783Y228866D01*
X389764Y229000D01*
Y0D02*
X390783Y134D01*
X391732Y527D01*
X392548Y1153D01*
X393173Y1969D01*
X393567Y2918D01*
X393701Y3937D01*
X3937Y229000D02*
X2918Y228866D01*
X1969Y228472D01*
X1153Y227847D01*
X527Y227031D01*
X134Y226082D01*
X0Y225063D01*
Y3937D02*
X134Y2918D01*
X527Y1969D01*
X1153Y1153D01*
X1969Y527D01*
X2918Y134D01*
X3937Y0D01*
X301492Y12500D02*
X338862D01*
X301492Y216437D02*
X338862D01*
X339862Y13500D02*
Y215437D01*
X300492Y13500D02*
Y215437D01*
X3937Y0D02*
X389764D01*
X3937Y229000D02*
X389764D01*
X393701Y3937D02*
Y225063D01*
X0Y3937D02*
Y225063D01*
M02*
