M48
;Layer_Color=9474304
;FILE_FORMAT=2:4
INCH,TZ
;TYPE=PLATED
T01F00S00C0.0118
T02F00S00C0.0197
T03F00S00C0.0280
T04F00S00C0.0390
T05F00S00C0.0433
T06F00S00C0.0787
T07F00S00C0.1181
T08F00S00C0.1378
%
T01
X14400Y4300
X17800Y5300
T02
X27500Y4850
X29500Y11900
X29400Y16700
X28650Y16300
X28400Y17000
X28750Y18350
X28350Y19900
X27928Y21232
X27250Y21000
X26950Y18750
X27300Y16300
X25500Y16250
X24700Y22150
X21550Y19200
X17750Y20100
X17700Y16450
T03
X22250Y16550
T04
X27916Y3100
X28900
X36514Y8922
Y9906
Y10890
T05
X8791Y9050
Y11050
Y13050
T06
X27650Y7550
Y13200
T07
X5791Y7550
Y14550
T08
X3976Y1191
X36880Y2362
X37370Y20970
X3082
M30
